<svg width="19" height="20" viewBox="0 0 19 20" fill="none" xmlns="http://www.w3.org/2000/svg">
<path d="M9.49762 7.24605C7.7532 7.24605 6.32961 8.66963 6.32961 10.4141C6.32961 12.1585 7.7532 13.5821 9.49762 13.5821C11.2421 13.5821 12.6656 12.1585 12.6656 10.4141C12.6656 8.66963 11.2421 7.24605 9.49762 7.24605ZM18.9993 10.4141C18.9993 9.10218 19.0112 7.80217 18.9375 6.49266C18.8638 4.97164 18.5168 3.62172 17.4046 2.50947C16.29 1.39484 14.9424 1.05024 13.4214 0.976561C12.1095 0.902886 10.8095 0.914769 9.5 0.914769C8.18811 0.914769 6.88811 0.902886 5.5786 0.976561C4.05757 1.05024 2.70766 1.39722 1.59541 2.50947C0.480781 3.6241 0.136173 4.97164 0.0624986 6.49266C-0.0111762 7.80455 0.000706908 9.10455 0.000706908 10.4141C0.000706908 11.7236 -0.0111762 13.026 0.0624986 14.3355C0.136173 15.8565 0.483158 17.2064 1.59541 18.3187C2.71004 19.4333 4.05757 19.7779 5.5786 19.8516C6.89049 19.9252 8.19049 19.9134 9.5 19.9134C10.8119 19.9134 12.1119 19.9252 13.4214 19.8516C14.9424 19.7779 16.2923 19.4309 17.4046 18.3187C18.5192 17.204 18.8638 15.8565 18.9375 14.3355C19.0136 13.026 18.9993 11.7259 18.9993 10.4141ZM9.49762 15.2885C6.80018 15.2885 4.62321 13.1115 4.62321 10.4141C4.62321 7.71661 6.80018 5.53964 9.49762 5.53964C12.1951 5.53964 14.372 7.71661 14.372 10.4141C14.372 13.1115 12.1951 15.2885 9.49762 15.2885ZM14.5717 6.4784C13.9419 6.4784 13.4333 5.96981 13.4333 5.34001C13.4333 4.71021 13.9419 4.20162 14.5717 4.20162C15.2015 4.20162 15.7101 4.71021 15.7101 5.34001C15.7103 5.48956 15.6809 5.63767 15.6238 5.77588C15.5667 5.91408 15.4828 6.03965 15.3771 6.14539C15.2713 6.25114 15.1457 6.33499 15.0075 6.39213C14.8693 6.44927 14.7212 6.47859 14.5717 6.4784Z" fill="#35B5B4"/>
</svg>
