<svg width="16" height="21" viewBox="0 0 16 21" fill="none" xmlns="http://www.w3.org/2000/svg">
<path d="M7.06808e-05 8.08828C7.06808e-05 7.2236 0.151224 6.4067 0.449084 5.64427C0.733667 4.90373 1.15648 4.22407 1.69499 3.64149C2.2324 3.06656 2.84738 2.56941 3.52216 2.16441C4.21448 1.74558 4.964 1.4296 5.74722 1.22638C6.5399 1.01823 7.35612 0.913261 8.17567 0.914067C9.44158 0.914067 10.6197 1.18192 11.7122 1.7154C12.7905 2.23915 13.7083 3.04293 14.3696 4.04271C15.052 5.05966 15.391 6.20998 15.391 7.49256C15.391 8.26166 15.3154 9.01409 15.1609 9.74985C15.0093 10.4852 14.7681 11.1992 14.443 11.876C14.133 12.5311 13.7278 13.1368 13.2404 13.6732C12.7506 14.201 12.1574 14.6225 11.4977 14.9113C10.7815 15.2252 10.0068 15.3831 9.22485 15.3747C8.68137 15.3747 8.139 15.2469 7.60329 14.9902C7.06759 14.7346 6.68304 14.3834 6.45186 13.9332C6.37073 14.2455 6.25959 14.6968 6.11177 15.2869C5.96951 15.876 5.87392 16.2561 5.83169 16.4284C5.78723 16.5995 5.70499 16.8852 5.58495 17.2808C5.50355 17.5735 5.39912 17.8593 5.27265 18.1355L4.89032 18.8846C4.72497 19.2061 4.54013 19.5171 4.33683 19.816C4.13566 20.1072 3.88671 20.455 3.58996 20.8552L3.42435 20.9141L3.31432 20.794C3.1954 19.5348 3.13427 18.7812 3.13427 18.5323C3.13427 17.7954 3.22208 16.9685 3.39546 16.0505C3.5655 15.1336 3.83447 13.981 4.19568 12.5951C4.55689 11.2103 4.76362 10.3956 4.81919 10.1544C4.56467 9.63538 4.43575 8.95741 4.43575 8.12385C4.43575 7.45811 4.64358 6.8346 5.06036 6.24777C5.47826 5.66316 6.00618 5.37086 6.64636 5.37086C7.1365 5.37086 7.5166 5.53313 7.7889 5.85877C8.06231 6.18331 8.19568 6.59231 8.19568 7.09134C8.19568 7.62037 8.02007 8.38614 7.66664 9.38753C7.31321 10.39 7.13761 11.138 7.13761 11.6348C7.13761 12.1383 7.31766 12.5595 7.67776 12.8896C8.03313 13.2199 8.50309 13.3988 8.98812 13.3886C9.42824 13.3886 9.83613 13.2886 10.2151 13.0874C10.5882 12.8922 10.9111 12.6134 11.1587 12.2728C11.698 11.5329 12.0825 10.6918 12.289 9.79987C12.3957 9.33085 12.478 8.88517 12.5291 8.46616C12.5836 8.04493 12.6069 7.64705 12.6069 7.26916C12.6069 5.88322 12.1668 4.80292 11.2921 4.02938C10.413 3.25583 9.2682 2.87128 7.86003 2.87128C6.25847 2.87128 4.91921 3.3892 3.84669 4.42838C2.77306 5.46422 2.23291 6.78125 2.23291 8.37836C2.23291 8.73068 2.28626 9.07078 2.3874 9.39976C2.48632 9.72762 2.59412 9.98881 2.71082 10.1822C2.82641 10.3722 2.93533 10.5579 3.03425 10.729C3.13427 10.9002 3.18651 11.0224 3.18651 11.0958C3.18651 11.3203 3.12761 11.6126 3.00868 11.9738C2.88532 12.335 2.73972 12.5151 2.56412 12.5151C2.54744 12.5151 2.47854 12.5028 2.3585 12.4773C1.94279 12.3532 1.56737 12.1212 1.27042 11.8049C0.955266 11.4771 0.706549 11.0913 0.537997 10.669C0.369926 10.2482 0.23902 9.81342 0.146778 9.36975C0.0471189 8.94994 -0.00213118 8.51975 7.06808e-05 8.08828Z" fill="#35B5B4"/>
</svg>
