<svg width="20" height="18" viewBox="0 0 20 18" fill="none" xmlns="http://www.w3.org/2000/svg">
<path d="M20 2.84413C19.2645 3.1614 18.4641 3.38974 17.6397 3.47867C18.4956 2.97016 19.1366 2.16681 19.4424 1.21932C18.6392 1.69713 17.7593 2.03217 16.8417 2.20959C16.4582 1.79961 15.9944 1.473 15.4792 1.25011C14.9639 1.02722 14.4083 0.912832 13.8469 0.914072C11.5755 0.914072 9.74883 2.7552 9.74883 5.01454C9.74883 5.33181 9.78729 5.64908 9.84978 5.95433C6.44874 5.77647 3.41546 4.15166 1.39887 1.66398C1.03143 2.29159 0.838874 3.00619 0.841245 3.73344C0.841245 5.15635 1.56472 6.41101 2.66795 7.1489C2.0178 7.1233 1.38287 6.94459 0.814806 6.62733V6.6778C0.814806 8.67035 2.22329 10.3216 4.10047 10.7014C3.74801 10.7929 3.38543 10.8397 3.02127 10.8408C2.75448 10.8408 2.5021 10.8143 2.24733 10.7783C2.76649 12.4031 4.27833 13.5832 6.0786 13.6217C4.67011 14.7249 2.9059 15.3739 0.990266 15.3739C0.646557 15.3739 0.329287 15.3619 0 15.3234C1.81709 16.4891 3.97308 17.1621 6.29492 17.1621C13.8325 17.1621 17.957 10.9177 17.957 5.49766C17.957 5.31979 17.957 5.14193 17.945 4.96407C18.7429 4.38 19.4424 3.65653 20 2.84413Z" fill="#35B5B4"/>
</svg>
