<svg width="38" height="37" viewBox="0 0 38 37" fill="none" xmlns="http://www.w3.org/2000/svg">
<g clip-path="url(#clip0_2537_11530)">
<path d="M21.3855 30.584H19.5699C19.4342 30.584 19.3242 30.694 19.3242 30.8297V36.8805C19.3242 37.0162 19.4342 37.1262 19.5699 37.1262H21.3855C21.5212 37.1262 21.6312 37.0162 21.6312 36.8805V30.8297C21.6312 30.694 21.5212 30.584 21.3855 30.584Z" fill="#35B5B4"/>
<path d="M18.2048 30.584H16.3922C16.2565 30.584 16.1465 30.694 16.1465 30.8297V36.8805C16.1465 37.0162 16.2565 37.1262 16.3922 37.1262H18.2048C18.3406 37.1262 18.4506 37.0162 18.4506 36.8805V30.8297C18.4506 30.694 18.3406 30.584 18.2048 30.584Z" fill="#35B5B4"/>
<path d="M25.8698 3.53418H11.9007C11.6724 3.53418 11.4902 3.71631 11.4902 3.9418V36.0574C11.4902 36.6442 11.9672 37.1213 12.557 37.1213H15.0201C15.156 37.1213 15.2658 37.0114 15.2658 36.8755V30.1425C15.2658 29.9025 15.4624 29.706 15.7024 29.706H22.0653C22.3053 29.706 22.5019 29.9025 22.5019 30.1425V36.8755C22.5019 37.0114 22.6117 37.1213 22.7476 37.1213H25.2136C25.8004 37.1213 26.2775 36.6442 26.2775 36.0574V3.9418C26.2775 3.71631 26.0953 3.53418 25.8698 3.53418ZM13.6787 6.95996C13.6787 6.72001 13.8724 6.52342 14.1123 6.52342H17.7781C18.018 6.52342 18.2146 6.72001 18.2146 6.95996V10.6228C18.2146 10.8627 18.018 11.0593 17.7781 11.0593H14.1123C13.8724 11.0593 13.6787 10.8627 13.6787 10.6228V6.95996ZM13.6787 14.4504C13.6787 14.2105 13.8724 14.0168 14.1123 14.0168H17.7781C18.018 14.0168 18.2146 14.2105 18.2146 14.4504V18.1161C18.2146 18.3561 18.018 18.5527 17.7781 18.5527H14.1123C13.8724 18.5527 13.6787 18.3561 13.6787 18.1161V14.4504ZM13.6787 25.6095V21.9438C13.6787 21.7038 13.8724 21.5072 14.1123 21.5072H17.7781C18.018 21.5072 18.2146 21.7038 18.2146 21.9438V25.6095C18.2146 25.8494 18.018 26.0431 17.7781 26.0431H14.1123C13.8724 26.0431 13.6787 25.8494 13.6787 25.6095ZM24.1006 25.6095C24.1006 25.8494 23.904 26.0431 23.664 26.0431H19.9983C19.7584 26.0431 19.5647 25.8494 19.5647 25.6095V21.9438C19.5647 21.7038 19.7584 21.5072 19.9983 21.5072H23.664C23.904 21.5072 24.1006 21.7038 24.1006 21.9438V25.6095ZM24.1006 18.1161C24.1006 18.3561 23.904 18.5527 23.664 18.5527H19.9983C19.7584 18.5527 19.5647 18.3561 19.5647 18.1161V14.4504C19.5647 14.2105 19.7584 14.0168 19.9983 14.0168H23.664C23.904 14.0168 24.1006 14.2105 24.1006 14.4504V18.1161ZM24.1006 10.6228C24.1006 10.8627 23.904 11.0593 23.664 11.0593H19.9983C19.7584 11.0593 19.5647 10.8627 19.5647 10.6228V6.95996C19.5647 6.72001 19.7584 6.52342 19.9983 6.52342H23.664C23.904 6.52342 24.1006 6.72001 24.1006 6.95996V10.6228Z" fill="#35B5B4"/>
<path d="M20.6813 22.3755H22.9825C23.1183 22.3755 23.2282 22.4853 23.2282 22.6212V24.9224C23.2282 25.0583 23.1183 25.1681 22.9825 25.1681H20.6813C20.5454 25.1681 20.4355 25.0583 20.4355 24.9224V22.6212C20.4355 22.4853 20.5454 22.3755 20.6813 22.3755Z" fill="#35B5B4"/>
<path d="M14.7946 22.3755H17.0958C17.2316 22.3755 17.3415 22.4853 17.3415 22.6212V24.9224C17.3415 25.0583 17.2316 25.1681 17.0958 25.1681H14.7946C14.6587 25.1681 14.5488 25.0583 14.5488 24.9224V22.6212C14.5488 22.4853 14.6587 22.3755 14.7946 22.3755Z" fill="#35B5B4"/>
<path d="M14.7946 14.8877H17.0958C17.2316 14.8877 17.3415 14.9976 17.3415 15.1334V17.4346C17.3415 17.5705 17.2316 17.6804 17.0958 17.6804H14.7946C14.6587 17.6804 14.5488 17.5705 14.5488 17.4346V15.1334C14.5488 14.9976 14.6587 14.8877 14.7946 14.8877Z" fill="#35B5B4"/>
<path d="M20.6813 14.8877H22.9825C23.1183 14.8877 23.2282 14.9976 23.2282 15.1334V17.4346C23.2282 17.5705 23.1183 17.6804 22.9825 17.6804H20.6813C20.5454 17.6804 20.4355 17.5705 20.4355 17.4346V15.1334C20.4355 14.9976 20.5454 14.8877 20.6813 14.8877Z" fill="#35B5B4"/>
<path d="M20.6813 7.39551H22.9825C23.1183 7.39551 23.2282 7.50536 23.2282 7.64124V9.94244C23.2282 10.0783 23.1183 10.1882 22.9825 10.1882H20.6813C20.5454 10.1882 20.4355 10.0783 20.4355 9.94244V7.64124C20.4355 7.50536 20.5454 7.39551 20.6813 7.39551Z" fill="#35B5B4"/>
<path d="M14.7946 7.39551H17.0958C17.2316 7.39551 17.3415 7.50536 17.3415 7.64124V9.94244C17.3415 10.0783 17.2316 10.1882 17.0958 10.1882H14.7946C14.6587 10.1882 14.5488 10.0783 14.5488 9.94244V7.64124C14.5488 7.50536 14.6587 7.39551 14.7946 7.39551Z" fill="#35B5B4"/>
<path d="M28.0475 1.33303V1.55563C28.0475 1.94013 27.741 2.24657 27.3565 2.24657H10.4155C10.0397 2.24657 9.72461 1.94013 9.72461 1.55563V1.33303C9.72461 0.957204 10.0311 0.64209 10.4155 0.64209H27.3565C27.741 0.650763 28.0475 0.957204 28.0475 1.33303Z" fill="#35B5B4"/>
<path d="M10.2049 9.57671C10.2049 9.71259 10.095 9.82245 9.95915 9.82245H0.901797C0.687867 9.82245 0.482609 9.73572 0.338062 9.59117C0.158823 9.41193 0.0865488 9.17776 0.112567 8.92625C0.155932 8.5273 0.511519 8.23242 0.913361 8.23242H9.95915C10.095 8.23242 10.2049 8.34228 10.2049 8.47815V9.57671Z" fill="#35B5B4"/>
<path d="M9.7978 11.1025H2.69762C2.46924 11.1025 2.28711 11.2847 2.28711 11.5131V35.4704C2.28711 36.0572 2.76412 36.5342 3.35098 36.5342H9.9597C10.0956 36.5342 10.2054 36.4244 10.2054 36.2885V11.5131C10.2054 11.2847 10.0233 11.1025 9.7978 11.1025ZM3.97832 14.485C3.97832 14.245 4.1749 14.0484 4.41485 14.0484H8.07769C8.31763 14.0484 8.51422 14.245 8.51422 14.485V18.1507C8.51422 18.3906 8.31763 18.5843 8.07769 18.5843H4.41485C4.1749 18.5843 3.97832 18.3906 3.97832 18.1507V14.485ZM8.51422 33.1258C8.51422 33.3658 8.31763 33.5623 8.07769 33.5623H4.41485C4.1749 33.5623 3.97832 33.3658 3.97832 33.1258V29.4601C3.97832 29.2201 4.1749 29.0264 4.41485 29.0264H8.07769C8.31763 29.0264 8.51422 29.2201 8.51422 29.4601V33.1258ZM3.97832 21.9783C3.97832 21.7384 4.1749 21.5418 4.41485 21.5418H8.07769C8.31763 21.5418 8.51422 21.7384 8.51422 21.9783V25.6411C8.51422 25.8811 8.31763 26.0777 8.07769 26.0777H4.41485C4.1749 26.0777 3.97832 25.8811 3.97832 25.6411V21.9783Z" fill="#35B5B4"/>
<path d="M7.39748 29.9019H5.09339C4.95767 29.9019 4.84766 30.0119 4.84766 30.1476V32.4488C4.84766 32.5845 4.95767 32.6945 5.09339 32.6945H7.39748C7.53319 32.6945 7.64321 32.5845 7.64321 32.4488V30.1476C7.64321 30.0119 7.53319 29.9019 7.39748 29.9019Z" fill="#35B5B4"/>
<path d="M5.09339 22.4199H7.39458C7.53046 22.4199 7.64032 22.5298 7.64032 22.6657V24.9669C7.64032 25.1027 7.53046 25.2126 7.39458 25.2126H5.09339C4.95751 25.2126 4.84766 25.1027 4.84766 24.9669V22.6657C4.84766 22.5298 4.95751 22.4199 5.09339 22.4199Z" fill="#35B5B4"/>
<path d="M5.09339 14.9233H7.39458C7.53046 14.9233 7.64032 15.0332 7.64032 15.1691V17.4703C7.64032 17.6061 7.53046 17.716 7.39458 17.716H5.09339C4.95751 17.716 4.84766 17.6061 4.84766 17.4703V15.1691C4.84766 15.0332 4.95751 14.9233 5.09339 14.9233Z" fill="#35B5B4"/>
<path d="M27.5625 11.5223V36.3007C27.5625 36.4366 27.6724 36.5464 27.8082 36.5464H34.4169C35.0067 36.5464 35.4837 36.0694 35.4837 35.4796V11.5223C35.4837 11.2968 35.3016 11.1118 35.0732 11.1118H27.973C27.7475 11.1118 27.5625 11.2939 27.5625 11.5223ZM33.7896 33.138C33.7896 33.3779 33.593 33.5745 33.3531 33.5745H29.6873C29.4474 33.5745 29.2508 33.3779 29.2508 33.138V29.4722C29.2508 29.2323 29.4474 29.0357 29.6873 29.0357H33.3531C33.593 29.0357 33.7896 29.2323 33.7896 29.4722V33.138ZM33.7896 25.6533C33.7896 25.8933 33.593 26.0898 33.3531 26.0898H29.6873C29.4474 26.0898 29.2508 25.8933 29.2508 25.6533V21.9876C29.2508 21.7476 29.4474 21.551 29.6873 21.551H33.3531C33.593 21.551 33.7896 21.7476 33.7896 21.9876V25.6533ZM33.7896 18.16C33.7896 18.3999 33.593 18.5965 33.3531 18.5965H29.6873C29.4474 18.5965 29.2508 18.3999 29.2508 18.16V14.4942C29.2508 14.2543 29.4474 14.0577 29.6873 14.0577H33.3531C33.593 14.0577 33.7896 14.2543 33.7896 14.4942V18.16Z" fill="#35B5B4"/>
<path d="M30.3727 14.9312H32.6739C32.8098 14.9312 32.9196 15.041 32.9196 15.1769V17.4781C32.9196 17.614 32.8098 17.7238 32.6739 17.7238H30.3727C30.2368 17.7238 30.127 17.614 30.127 17.4781V15.1769C30.127 15.041 30.2368 14.9312 30.3727 14.9312Z" fill="#35B5B4"/>
<path d="M30.3727 22.4233H32.6739C32.8098 22.4233 32.9196 22.5332 32.9196 22.6691V24.9703C32.9196 25.1061 32.8098 25.216 32.6739 25.216H30.3727C30.2368 25.216 30.127 25.1061 30.127 24.9703V22.6691C30.127 22.5332 30.2368 22.4233 30.3727 22.4233Z" fill="#35B5B4"/>
<path d="M30.3727 29.9033H32.6739C32.8098 29.9033 32.9196 30.0132 32.9196 30.1491V32.4502C32.9196 32.5861 32.8098 32.696 32.6739 32.696H30.3727C30.2368 32.696 30.127 32.5861 30.127 32.4502V30.1491C30.127 30.0132 30.2368 29.9033 30.3727 29.9033Z" fill="#35B5B4"/>
<path d="M37.6519 9.0346C37.6519 9.24853 37.5652 9.45379 37.4206 9.59834C37.2674 9.75156 37.0708 9.82961 36.8569 9.82961H27.8082C27.6724 9.82961 27.5625 9.71687 27.5625 9.58099V8.47376C27.5625 8.33788 27.6724 8.22803 27.8082 8.22803H36.8569C37.2934 8.22803 37.6519 8.5894 37.6519 9.0346Z" fill="#35B5B4"/>
</g>
<defs>
<clipPath id="clip0_2537_11530">
<rect width="36.478" height="36.478" fill="white" transform="translate(0.560547 0.48291)"/>
</clipPath>
</defs>
</svg>
