<svg width="38" height="38" viewBox="0 0 38 38" fill="none" xmlns="http://www.w3.org/2000/svg">
<g clip-path="url(#clip0_2537_11473)">
<path d="M15.6953 32.0964C15.6953 32.9203 16.0784 33.6316 16.6985 34.2214C17.3156 34.8081 18.179 35.2915 19.1792 35.6745C21.1795 36.4376 23.803 36.8297 26.3353 36.8297C28.8676 36.8297 31.4912 36.4376 33.4915 35.6745C34.4916 35.2915 35.355 34.8112 35.9721 34.2214C36.5923 33.6316 36.9784 32.9203 36.9784 32.0964C36.9784 31.5219 36.5102 31.0537 35.9356 31.0537C35.3611 31.0537 34.8929 31.5219 34.8929 32.0964C34.8929 32.2667 34.7683 32.5281 34.3913 32.8443C34.0235 33.1513 33.4641 33.4675 32.7193 33.7502C31.2328 34.3187 29.0561 34.7443 26.3384 34.7443C23.6206 34.7443 21.447 34.3187 19.9574 33.7502C19.2126 33.4644 18.6532 33.1513 18.2854 32.8443C17.9084 32.5281 17.7838 32.2667 17.7838 32.0964C17.7838 31.5219 17.3156 31.0537 16.7411 31.0537C16.1665 31.0537 15.6984 31.5219 15.6984 32.0964H15.6953Z" fill="#35B5B4"/>
<path d="M26.3346 37.1336C23.6746 37.1336 21.0268 36.705 19.069 35.9571C17.9716 35.5376 17.1052 35.0269 16.4881 34.4402C15.7585 33.7471 15.3906 32.9567 15.3906 32.0933C15.3906 31.3515 15.9956 30.7466 16.7373 30.7466C17.4791 30.7466 18.0841 31.3515 18.0841 32.0933C18.0841 32.1024 18.0871 32.2848 18.4762 32.6071C18.838 32.9111 19.3882 33.2059 20.0631 33.4643C21.7077 34.0936 23.933 34.4402 26.3346 34.4402C28.7362 34.4402 30.9615 34.0936 32.6061 33.4643C33.281 33.2059 33.8313 32.9111 34.193 32.6071C34.5821 32.2848 34.5852 32.0994 34.5852 32.0933C34.5852 31.3515 35.1901 30.7466 35.9319 30.7466C36.6737 30.7466 37.2786 31.3515 37.2786 32.0933C37.2786 32.9567 36.9077 33.744 36.1781 34.4402C35.5641 35.0269 34.6946 35.5376 33.5972 35.9571C31.6394 36.705 28.9916 37.1336 26.3316 37.1336H26.3346ZM16.7373 31.3576C16.33 31.3576 15.9986 31.689 15.9986 32.0963C15.9986 32.7864 16.3057 33.4279 16.9076 34.0024C17.4639 34.5344 18.2665 34.9995 19.2849 35.3917C21.1757 36.1122 23.7445 36.5287 26.3316 36.5287C28.9186 36.5287 31.4874 36.1152 33.3783 35.3917C34.3997 35.0026 35.1993 34.5344 35.7556 34.0024C36.3605 33.4279 36.6645 32.7864 36.6645 32.0963C36.6645 31.689 36.3332 31.3576 35.9258 31.3576C35.5185 31.3576 35.1871 31.689 35.1871 32.0963C35.1871 32.3122 35.0807 32.6557 34.5761 33.0783C34.1626 33.4218 33.5546 33.7531 32.8189 34.0359C31.1074 34.6895 28.8031 35.0512 26.3316 35.0512C23.8601 35.0512 21.5557 34.6925 19.8442 34.0359C19.1085 33.7531 18.5005 33.4218 18.0841 33.0783C17.5794 32.6557 17.473 32.3122 17.473 32.0963C17.473 31.689 17.1417 31.3576 16.7343 31.3576H16.7373Z" fill="#35B5B4"/>
<path d="M15.6944 27.798C15.6944 28.5854 16.0836 29.2603 16.7068 29.8166C17.3239 30.3699 18.1872 30.8228 19.1844 31.1815C21.1847 31.902 23.8052 32.2699 26.3344 32.2699C28.8637 32.2699 31.4842 31.902 33.4845 31.1815C34.4847 30.8228 35.345 30.3699 35.9621 29.8166C36.5823 29.2603 36.9744 28.5854 36.9744 27.798C36.9744 27.2295 36.4911 26.7979 35.9317 26.7979C35.3724 26.7979 34.889 27.2295 34.889 27.798C34.889 27.9439 34.7735 28.1841 34.3935 28.482C34.0256 28.7708 33.4663 29.0687 32.7184 29.3363C31.2288 29.8713 29.0492 30.2726 26.3344 30.2726C23.6197 30.2726 21.437 29.8713 19.9474 29.3363C19.2026 29.0687 18.6402 28.7708 18.2724 28.482C17.8924 28.1841 17.7768 27.9439 17.7768 27.798C17.7768 27.2295 17.2935 26.7979 16.7341 26.7979C16.1748 26.7979 15.6914 27.2295 15.6914 27.798H15.6944Z" fill="#35B5B4"/>
<path d="M26.3346 32.5738C23.6777 32.5738 21.0359 32.1694 19.0812 31.4672C17.9868 31.075 17.1204 30.5947 16.5033 30.0414C15.7645 29.3787 15.3906 28.6248 15.3906 27.7949C15.3906 27.0774 15.9956 26.4907 16.7373 26.4907C17.4791 26.4907 18.0841 27.0744 18.0841 27.7949C18.0841 27.7949 18.1023 27.959 18.4641 28.2387C18.8289 28.5245 19.3761 28.8042 20.054 29.0474C21.7017 29.6402 23.933 29.9654 26.3377 29.9654C28.7423 29.9654 30.9737 29.6402 32.6213 29.0474C33.2993 28.8042 33.8465 28.5245 34.2113 28.2387C34.573 27.956 34.5913 27.7949 34.5913 27.7918C34.5913 27.0744 35.1962 26.4907 35.938 26.4907C36.6797 26.4907 37.2847 27.0744 37.2847 27.7949C37.2847 28.6248 36.9108 29.3787 36.1721 30.0414C35.5549 30.5947 34.6885 31.075 33.5941 31.4672C31.6425 32.1694 28.9977 32.5738 26.3407 32.5738H26.3346ZM16.7373 27.1018C16.33 27.1018 15.9986 27.4149 15.9986 27.7979C15.9986 28.4454 16.3057 29.0504 16.9076 29.5915C17.4639 30.0901 18.2665 30.5309 19.2849 30.8987C21.1757 31.5797 23.7445 31.9688 26.3316 31.9688C28.9186 31.9688 31.4874 31.5797 33.3783 30.8987C34.3997 30.5309 35.1993 30.0931 35.7556 29.5915C36.3605 29.0504 36.6676 28.4454 36.6676 27.7979C36.6676 27.4149 36.3362 27.1018 35.9289 27.1018C35.5215 27.1018 35.1901 27.4149 35.1901 27.7979C35.1901 28.0016 35.0837 28.3238 34.5791 28.7221C34.1657 29.0474 33.5577 29.3574 32.8189 29.6219C31.1074 30.236 28.8031 30.5765 26.3316 30.5765C23.8601 30.5765 21.5557 30.236 19.8442 29.6219C19.1085 29.3574 18.5005 29.0443 18.0841 28.7221C17.5794 28.3269 17.473 28.0016 17.473 27.7979C17.473 27.4149 17.1417 27.1018 16.7343 27.1018H16.7373Z" fill="#35B5B4"/>
<path d="M15.6953 23.3017C15.6953 24.1225 16.0784 24.8309 16.7016 25.4176C17.3187 26.0013 18.182 26.4816 19.1822 26.8616C21.1825 27.6216 23.806 28.0107 26.3384 28.0107C28.8707 28.0107 31.4912 27.6216 33.4945 26.8616C34.4947 26.4816 35.358 26.0013 35.9752 25.4176C36.5953 24.8278 36.9814 24.1195 36.9814 23.3017C36.9814 22.484 36.5984 21.7726 35.9752 21.1859C35.358 20.6022 34.4947 20.1219 33.4945 19.7419C31.4942 18.9819 28.8707 18.5928 26.3384 18.5928C23.806 18.5928 21.1856 18.9819 19.1822 19.7419C18.182 20.1219 17.3187 20.6022 16.7016 21.1859C16.0814 21.7757 15.6953 22.484 15.6953 23.3017ZM17.7808 23.3017C17.7808 23.1315 17.9054 22.8731 18.2824 22.56C18.6502 22.256 19.2096 21.9398 19.9544 21.6571C21.4409 21.0917 23.6176 20.6691 26.3353 20.6691C29.0531 20.6691 31.2297 21.0917 32.7163 21.6571C33.4611 21.9398 34.0204 22.256 34.3883 22.56C34.7683 22.8731 34.8899 23.1345 34.8899 23.3017C34.8899 23.4689 34.7652 23.7304 34.3883 24.0435C34.0204 24.3475 33.4611 24.6637 32.7163 24.9464C31.2297 25.5118 29.0531 25.9344 26.3353 25.9344C23.6176 25.9344 21.4409 25.5118 19.9544 24.9464C19.2096 24.6637 18.6502 24.3475 18.2824 24.0435C17.9024 23.7304 17.7808 23.4689 17.7808 23.3017Z" fill="#35B5B4"/>
<path d="M26.3346 28.3176C23.6746 28.3176 21.0268 27.892 19.0721 27.1472C17.9746 26.7308 17.1082 26.2231 16.4911 25.6394C15.7615 24.9463 15.3906 24.162 15.3906 23.3016C15.3906 22.4413 15.7615 21.657 16.4911 20.9639C17.1082 20.3802 17.9746 19.8725 19.0721 19.456C21.0298 18.7112 23.6746 18.2856 26.3346 18.2856C28.9946 18.2856 31.6425 18.7112 33.5972 19.456C34.6946 19.8725 35.561 20.3802 36.1781 20.9639C36.9077 21.657 37.2786 22.4413 37.2786 23.3016C37.2786 24.162 36.9077 24.9463 36.1781 25.6394C35.561 26.2231 34.6946 26.7308 33.5972 27.1472C31.6394 27.892 28.9916 28.3176 26.3346 28.3176ZM26.3346 18.8936C23.7476 18.8936 21.1788 19.3071 19.2879 20.0245C18.2665 20.4136 17.4669 20.8788 16.9106 21.4047C16.3057 21.9762 16.0017 22.6146 16.0017 23.3016C16.0017 23.9887 16.3087 24.624 16.9106 25.1986C17.4669 25.7276 18.2695 26.1927 19.2879 26.5788C21.1788 27.2962 23.7476 27.7096 26.3346 27.7096C28.9217 27.7096 31.4905 27.2962 33.3813 26.5788C34.4028 26.1896 35.2023 25.7245 35.7617 25.1986C36.3666 24.6271 36.6706 23.9887 36.6706 23.3016C36.6706 22.6146 36.3636 21.9792 35.7617 21.4047C35.2053 20.8757 34.4028 20.4106 33.3844 20.0245C31.4935 19.3071 28.9247 18.8936 26.3377 18.8936H26.3346ZM26.3346 26.2413C23.8631 26.2413 21.5588 25.8826 19.8473 25.232C19.1116 24.9524 18.5036 24.621 18.0871 24.2805C17.5825 23.861 17.4761 23.5175 17.4761 23.3047C17.4761 23.0919 17.5825 22.7484 18.0871 22.3288C18.5005 21.9853 19.1085 21.657 19.8473 21.3773C21.5588 20.7268 23.8631 20.368 26.3346 20.368C28.8061 20.368 31.1105 20.7268 32.822 21.3773C33.5577 21.657 34.1657 21.9853 34.5821 22.3288C35.0868 22.7484 35.1932 23.0919 35.1932 23.3047C35.1932 23.5175 35.0868 23.861 34.5821 24.2805C34.1687 24.624 33.5607 24.9524 32.822 25.232C31.1105 25.8826 28.8061 26.2413 26.3346 26.2413ZM26.3346 20.973C23.9361 20.973 21.7077 21.3165 20.0631 21.9428C19.3882 22.1981 18.838 22.493 18.4762 22.794C18.1661 23.0524 18.0841 23.2378 18.0841 23.3016C18.0841 23.3655 18.1661 23.554 18.4762 23.8093C18.838 24.1103 19.3882 24.4052 20.0631 24.6605C21.7077 25.2868 23.9361 25.6303 26.3346 25.6303C28.7332 25.6303 30.9615 25.2868 32.6061 24.6605C33.281 24.4052 33.8313 24.1103 34.193 23.8093C34.5031 23.5509 34.5852 23.3655 34.5852 23.3016C34.5852 23.2378 34.5031 23.0493 34.193 22.794C33.8313 22.493 33.281 22.1981 32.6061 21.9428C30.9615 21.3165 28.7332 20.973 26.3346 20.973Z" fill="#35B5B4"/>
<path d="M34.8477 32.1391C34.8477 32.7228 35.3341 33.1818 35.9117 33.1818C36.4893 33.1818 36.9757 32.7228 36.9757 32.1391V23.2805C36.9757 22.6968 36.4893 22.2378 35.9117 22.2378C35.3341 22.2378 34.8477 22.6968 34.8477 23.2805V32.1391Z" fill="#35B5B4"/>
<path d="M35.911 33.4856C35.157 33.4856 34.543 32.8806 34.543 32.1389V23.2803C34.543 22.5386 35.157 21.9336 35.911 21.9336C36.6649 21.9336 37.279 22.5386 37.279 23.2803V32.1389C37.279 32.8806 36.6649 33.4856 35.911 33.4856ZM35.911 22.5416C35.4914 22.5416 35.151 22.873 35.151 23.2803V32.1389C35.151 32.5462 35.4914 32.8776 35.911 32.8776C36.3305 32.8776 36.671 32.5462 36.671 32.1389V23.2803C36.671 22.873 36.3305 22.5416 35.911 22.5416Z" fill="#35B5B4"/>
<path d="M15.6953 32.1391C15.6953 32.7228 16.1817 33.1818 16.7593 33.1818C17.3369 33.1818 17.8233 32.7228 17.8233 32.1391V23.2805C17.8233 22.6968 17.3369 22.2378 16.7593 22.2378C16.1817 22.2378 15.6953 22.6968 15.6953 23.2805V32.1391Z" fill="#35B5B4"/>
<path d="M16.7586 33.4856C16.0047 33.4856 15.3906 32.8806 15.3906 32.1389V23.2803C15.3906 22.5386 16.0047 21.9336 16.7586 21.9336C17.5125 21.9336 18.1266 22.5386 18.1266 23.2803V32.1389C18.1266 32.8806 17.5125 33.4856 16.7586 33.4856ZM16.7586 22.5416C16.3391 22.5416 15.9986 22.873 15.9986 23.2803V32.1389C15.9986 32.5462 16.3391 32.8776 16.7586 32.8776C17.1781 32.8776 17.5186 32.5462 17.5186 32.1389V23.2803C17.5186 22.873 17.1781 22.5416 16.7586 22.5416Z" fill="#35B5B4"/>
<path d="M1.10352 14.4646C1.10352 15.2884 1.48656 15.9998 2.10672 16.5896C2.72384 17.1763 3.5872 17.6596 4.58736 18.0427C6.58768 18.8088 9.21119 19.1979 11.7435 19.1979C14.2758 19.1979 16.8994 18.8057 18.8997 18.0427C19.8998 17.6596 20.7632 17.1793 21.3803 16.5896C22.0005 15.9968 22.3835 15.2854 22.3835 14.4646C22.3835 13.89 21.9154 13.4219 21.3408 13.4219C20.7662 13.4219 20.2981 13.89 20.2981 14.4646C20.2981 14.6348 20.1734 14.8963 19.7965 15.2124C19.4286 15.5195 18.8693 15.8356 18.1245 16.1184C16.6379 16.6868 14.4613 17.1124 11.7435 17.1124C9.02576 17.1124 6.85216 16.6868 5.36256 16.1184C4.61776 15.8326 4.0584 15.5164 3.69056 15.2124C3.3136 14.8963 3.18896 14.6348 3.18896 14.4646C3.18896 13.89 2.7208 13.4219 2.14624 13.4219C1.57168 13.4219 1.10352 13.89 1.10352 14.4646Z" fill="#35B5B4"/>
<path d="M11.7428 19.5018C9.08283 19.5018 6.43499 19.0731 4.47723 18.3253C3.37979 17.9058 2.51339 17.3951 1.89627 16.8083C1.16667 16.1152 0.798828 15.3248 0.798828 14.4615C0.798828 13.7197 1.40379 13.1147 2.14555 13.1147C2.88731 13.1147 3.49227 13.7197 3.49227 14.4615C3.49227 14.5253 3.57435 14.7168 3.88443 14.9752C4.24619 15.2762 4.79643 15.5741 5.47131 15.8325C7.11595 16.4618 9.34123 16.8053 11.7428 16.8053C14.1444 16.8053 16.3697 16.4587 18.0143 15.8325C18.6892 15.5741 19.2395 15.2792 19.6012 14.9752C19.9113 14.7168 19.9934 14.5253 19.9934 14.4615C19.9934 13.7197 20.5983 13.1147 21.3401 13.1147C22.0819 13.1147 22.6868 13.7197 22.6868 14.4615C22.6868 15.3218 22.3159 16.1122 21.5863 16.8083C20.9723 17.3951 20.1028 17.9058 19.0054 18.3253C17.0476 19.0731 14.3998 19.5018 11.7398 19.5018H11.7428ZM2.14555 13.7258C1.73819 13.7258 1.40683 14.0571 1.40683 14.4645C1.40683 15.1546 1.71387 15.796 2.31579 16.3706C2.87211 16.9026 3.67467 17.3677 4.69307 17.7599C6.58395 18.4834 9.15275 18.8968 11.7398 18.8968C14.3268 18.8968 16.8956 18.4834 18.7865 17.7599C19.8079 17.3707 20.6075 16.9026 21.1638 16.3706C21.7687 15.796 22.0728 15.1546 22.0728 14.4645C22.0728 14.0571 21.7414 13.7258 21.334 13.7258C20.9267 13.7258 20.5953 14.0571 20.5953 14.4645C20.5953 14.6803 20.4889 15.0239 19.9843 15.4464C19.5708 15.7899 18.9628 16.1213 18.2241 16.404C16.5126 17.0576 14.2083 17.4194 11.7367 17.4194C9.26523 17.4194 6.96091 17.0607 5.24939 16.404C4.51371 16.1213 3.90571 15.7899 3.48923 15.4464C2.98459 15.0239 2.87819 14.6803 2.87819 14.4645C2.87819 14.0571 2.54683 13.7258 2.13947 13.7258H2.14555Z" fill="#35B5B4"/>
<path d="M1.10352 10.2087C1.10352 11.0326 1.48656 11.7439 2.10672 12.3337C2.72384 12.9204 3.5872 13.4038 4.58736 13.7868C6.58768 14.5529 9.21119 14.942 11.7435 14.942C14.2758 14.942 16.8994 14.5499 18.8997 13.7868C19.8998 13.4038 20.7632 12.9235 21.3803 12.3337C22.0005 11.7409 22.3835 11.0295 22.3835 10.2087C22.3835 9.63418 21.9154 9.16602 21.3408 9.16602C20.7662 9.16602 20.2981 9.63418 20.2981 10.2087C20.2981 10.379 20.1734 10.6404 19.7965 10.9566C19.4286 11.2636 18.8693 11.5798 18.1245 11.8625C16.6379 12.431 14.4613 12.8566 11.7435 12.8566C9.02576 12.8566 6.85216 12.431 5.36256 11.8625C4.61776 11.5767 4.0584 11.2606 3.69056 10.9566C3.3136 10.6404 3.18896 10.379 3.18896 10.2087C3.18896 9.63418 2.7208 9.16602 2.14624 9.16602C1.57168 9.16602 1.10352 9.63418 1.10352 10.2087Z" fill="#35B5B4"/>
<path d="M11.7428 15.2459C9.08283 15.2459 6.43499 14.8173 4.47723 14.0694C3.37979 13.6499 2.51339 13.1392 1.89627 12.5525C1.16667 11.8594 0.798828 11.069 0.798828 10.2056C0.798828 9.46385 1.40379 8.85889 2.14555 8.85889C2.88731 8.85889 3.49227 9.46385 3.49227 10.2056C3.49227 10.2694 3.57435 10.461 3.88443 10.7194C4.24619 11.0203 4.79643 11.3182 5.47131 11.5766C7.11595 12.2059 9.34123 12.5494 11.7428 12.5494C14.1444 12.5494 16.3697 12.2029 18.0143 11.5766C18.6892 11.3182 19.2395 11.0234 19.6012 10.7194C19.9113 10.461 19.9934 10.2694 19.9934 10.2056C19.9934 9.46385 20.5983 8.85889 21.3401 8.85889C22.0819 8.85889 22.6868 9.46385 22.6868 10.2056C22.6868 11.0659 22.3159 11.8563 21.5863 12.5525C20.9723 13.1392 20.1028 13.6499 19.0054 14.0694C17.0476 14.8173 14.3998 15.2459 11.7398 15.2459H11.7428ZM2.14555 9.46993C1.73819 9.46993 1.40683 9.80129 1.40683 10.2086C1.40683 10.8987 1.71387 11.5402 2.31579 12.1147C2.87211 12.6467 3.67467 13.1118 4.69307 13.504C6.58395 14.2275 9.15275 14.641 11.7398 14.641C14.3268 14.641 16.8956 14.2275 18.7865 13.504C19.8079 13.1149 20.6075 12.6467 21.1638 12.1147C21.7687 11.5402 22.0728 10.8987 22.0728 10.2086C22.0728 9.80129 21.7414 9.46993 21.334 9.46993C20.9267 9.46993 20.5953 9.80129 20.5953 10.2086C20.5953 10.4245 20.4889 10.768 19.9843 11.1906C19.5708 11.5341 18.9628 11.8654 18.2241 12.1482C16.5126 12.8018 14.2083 13.1635 11.7367 13.1635C9.26523 13.1635 6.96091 12.8048 5.24939 12.1482C4.51371 11.8654 3.90571 11.5341 3.48923 11.1906C2.98459 10.768 2.87819 10.4245 2.87819 10.2086C2.87819 9.80129 2.54683 9.46993 2.13947 9.46993H2.14555Z" fill="#35B5B4"/>
<path d="M11.5763 28.0134C9.08656 28.0134 6.50256 27.6213 4.53264 26.8552C3.54768 26.4721 2.69952 25.9918 2.09152 25.4021C1.48048 24.8093 1.10352 24.0979 1.10352 23.2771C1.10352 22.7056 1.55952 22.2344 2.13408 22.2344C2.70864 22.2344 3.16464 22.7056 3.16464 23.2771C3.16464 23.4504 3.28928 23.7118 3.66016 24.028C4.02192 24.335 4.57216 24.6481 5.3048 24.9339C6.76704 25.5024 8.9072 25.928 11.5763 25.928C12.3576 25.928 13.0355 25.8945 13.6466 25.8307C14.212 25.7669 14.7227 26.1894 14.7805 26.7579C14.8382 27.3233 14.4339 27.8432 13.8654 27.904M11.5763 28.0134C12.4245 28.0134 13.1754 27.98 13.8654 27.904L11.5763 28.0134Z" fill="#35B5B4"/>
<path d="M11.5765 28.3176C8.95905 28.3176 6.35073 27.889 4.42337 27.1411C3.34417 26.7216 2.48689 26.2109 1.88193 25.6242C1.16449 24.931 0.802734 24.1406 0.802734 23.2803C0.802734 22.5386 1.40161 21.9336 2.13729 21.9336C2.87297 21.9336 3.47185 22.5386 3.47185 23.2803C3.47185 23.3502 3.55393 23.5387 3.85793 23.7971C4.21361 24.0981 4.75169 24.393 5.41441 24.6514C7.02865 25.2776 9.21745 25.6242 11.5765 25.6242C12.3456 25.6242 13.0114 25.5938 13.6133 25.5299C13.9629 25.4904 14.3095 25.5938 14.5861 25.8157C14.8688 26.0437 15.0451 26.3659 15.0816 26.7277C15.1576 27.4634 14.6256 28.1291 13.896 28.2082C13.2059 28.2842 12.449 28.3206 11.5765 28.3206V28.3176ZM13.8322 27.6032C14.2304 27.5606 14.5192 27.1958 14.4767 26.7915C14.4554 26.5939 14.3581 26.4176 14.2031 26.2899C14.0541 26.1683 13.8656 26.1136 13.6771 26.1349C13.0509 26.2018 12.3639 26.2352 11.5735 26.2352C9.14145 26.2352 6.87361 25.8765 5.18945 25.2198C4.46593 24.9371 3.86705 24.6088 3.45969 24.2622C2.96113 23.8397 2.85777 23.4962 2.85777 23.2803C2.85777 22.873 2.53249 22.5416 2.13121 22.5416C1.72993 22.5416 1.40465 22.873 1.40465 23.2803C1.40465 23.9704 1.70561 24.6118 2.30145 25.1864C2.84865 25.7184 3.63601 26.1835 4.64225 26.5757C6.50273 27.2992 9.02897 27.7126 11.5735 27.7126C12.4247 27.7126 13.1634 27.6762 13.8291 27.6062L13.8322 27.6032Z" fill="#35B5B4"/>
<path d="M1.10352 27.798C1.10352 28.5823 1.48656 29.2603 2.0976 29.8166C2.7056 30.3699 3.55376 30.8228 4.53872 31.1846C6.5056 31.9051 9.08656 32.2729 11.5763 32.2729C12.4245 32.2729 13.1723 32.2395 13.8624 32.1695C14.4157 32.1118 14.8413 31.6284 14.7774 31.0691C14.7166 30.5158 14.1968 30.1175 13.6435 30.1844C13.0325 30.2452 12.3576 30.2756 11.5763 30.2756C8.90416 30.2756 6.76096 29.8743 5.29872 29.3393C4.56608 29.0718 4.01584 28.7739 3.65408 28.4851C3.28016 28.1871 3.16768 27.947 3.16768 27.798C3.16768 27.2326 2.69344 26.7979 2.13712 26.7979C1.5808 26.7979 1.10656 27.2326 1.10656 27.798H1.10352Z" fill="#35B5B4"/>
<path d="M11.5756 32.5738C8.96123 32.5738 6.35899 32.1694 4.43467 31.4672C3.35547 31.072 2.50123 30.5917 1.89323 30.0384C1.16667 29.3757 0.798828 28.6218 0.798828 27.7949C0.798828 27.0774 1.39771 26.4907 2.13339 26.4907C2.86907 26.4907 3.46795 27.0744 3.46795 27.7949C3.46795 27.7949 3.48315 27.959 3.84187 28.2448C4.19755 28.5275 4.73867 28.8072 5.40139 29.0504C7.01867 29.6432 9.21355 29.9685 11.5756 29.9685C12.3447 29.9685 13.0105 29.9381 13.6124 29.8773C13.962 29.8347 14.3116 29.935 14.5913 30.157C14.8679 30.3758 15.0412 30.6859 15.0777 31.0294C15.1142 31.3699 15.0169 31.7074 14.8011 31.9749C14.5791 32.2515 14.2478 32.4278 13.8921 32.4643C13.2051 32.5342 12.4481 32.5677 11.5756 32.5677V32.5738ZM2.13339 27.1018C1.73211 27.1018 1.40683 27.4149 1.40683 27.7979C1.40683 28.4454 1.70779 29.0504 2.30363 29.5915C2.85083 30.0901 3.63819 30.5309 4.64443 30.8987C6.50491 31.5797 9.03115 31.9688 11.5756 31.9688C12.4268 31.9688 13.1655 31.9354 13.8313 31.8685C14.0259 31.8472 14.2083 31.7499 14.3299 31.601C14.4454 31.4581 14.4971 31.2818 14.4758 31.1054C14.4545 30.923 14.3633 30.7589 14.2143 30.6403C14.0623 30.5187 13.8708 30.464 13.6793 30.4883C13.05 30.5522 12.363 30.5826 11.5756 30.5826C9.14363 30.5826 6.87579 30.2421 5.19163 29.628C4.46507 29.3635 3.86923 29.0504 3.46187 28.7282C2.96331 28.3299 2.85995 28.0077 2.85995 27.804C2.85995 27.421 2.53467 27.1078 2.13339 27.1078V27.1018Z" fill="#35B5B4"/>
<path d="M1.10352 18.9821C1.10352 19.7664 1.48656 20.4443 2.0976 21.0007C2.7056 21.5539 3.55376 22.0069 4.53872 22.3687C6.5056 23.0891 9.08656 23.457 11.5763 23.457C12.4245 23.457 13.1723 23.4235 13.8624 23.3536C14.4157 23.2959 14.8413 22.8125 14.7774 22.2531C14.7166 21.6938 14.1938 21.3077 13.6435 21.3685C13.0325 21.4293 12.3546 21.4597 11.5733 21.4597C8.90111 21.4597 6.75792 21.0584 5.29568 20.5234C4.56304 20.2559 4.0128 19.9579 3.65104 19.6691C3.27712 19.3712 3.16464 19.1311 3.16464 18.9821C3.16464 18.4167 2.6904 17.9819 2.13408 17.9819C1.57776 17.9819 1.10352 18.4167 1.10352 18.9821Z" fill="#35B5B4"/>
<path d="M11.5756 23.7578C8.96123 23.7578 6.35899 23.3535 4.43467 22.6513C3.35547 22.2561 2.50123 21.7758 1.89323 21.2225C1.16667 20.5598 0.798828 19.8058 0.798828 18.979C0.798828 18.2615 1.39771 17.6748 2.13339 17.6748C2.86907 17.6748 3.46795 18.2585 3.46795 18.979C3.46795 18.979 3.48315 19.1431 3.84187 19.4289C4.19755 19.7116 4.73867 19.9913 5.40139 20.2345C7.01867 20.8273 9.21355 21.1526 11.5756 21.1526C12.3447 21.1526 13.0105 21.1222 13.6155 21.0614C13.959 21.0249 14.3025 21.1191 14.5822 21.335C14.8649 21.5538 15.0443 21.867 15.0838 22.2166C15.1203 22.557 15.023 22.8945 14.8071 23.162C14.5852 23.4386 14.2539 23.615 13.8982 23.6514C13.2111 23.7214 12.4542 23.7548 11.5817 23.7548L11.5756 23.7578ZM2.13339 18.2858C1.73211 18.2858 1.40683 18.599 1.40683 18.982C1.40683 19.6295 1.70779 20.2345 2.30363 20.7756C2.85083 21.2742 3.63819 21.715 4.64443 22.0828C6.50187 22.7638 9.03115 23.1529 11.5756 23.1529C12.4268 23.1529 13.1655 23.1194 13.8313 23.0526C14.0259 23.0313 14.2083 22.934 14.3299 22.785C14.4454 22.6422 14.4971 22.4658 14.4758 22.2895C14.4545 22.1041 14.3603 21.9369 14.2083 21.8214C14.0563 21.7028 13.8678 21.6511 13.6763 21.6724C13.05 21.7362 12.363 21.7666 11.5726 21.7666C9.14059 21.7666 6.87275 21.4262 5.18859 20.8121C4.46203 20.5476 3.86619 20.2345 3.45883 19.9122C2.96027 19.514 2.85691 19.1918 2.85691 18.9881C2.85691 18.605 2.53163 18.2919 2.13035 18.2919L2.13339 18.2858Z" fill="#35B5B4"/>
<path d="M1.10352 5.6699C1.10352 6.4907 1.48656 7.19902 2.10976 7.78574C2.72688 8.36942 3.59024 8.84974 4.5904 9.22974C6.59072 9.98974 9.21424 10.3789 11.7466 10.3789C14.2789 10.3789 16.8994 9.98974 18.9027 9.22974C19.9029 8.84974 20.7662 8.36942 21.3834 7.78574C22.0035 7.19598 22.3896 6.48766 22.3896 5.6699C22.3896 4.85214 22.0066 4.14078 21.3834 3.55406C20.7662 2.97038 19.9029 2.49006 18.9027 2.11006C16.9024 1.35006 14.2789 0.960938 11.7466 0.960938C9.21424 0.960938 6.59376 1.35006 4.5904 2.11006C3.59024 2.49006 2.72688 2.97038 2.10976 3.55406C1.4896 4.14382 1.10352 4.85214 1.10352 5.6699ZM3.18896 5.6699C3.18896 5.49966 3.3136 5.24126 3.69056 4.92814C4.0584 4.62414 4.61776 4.30798 5.36256 4.02526C6.84912 3.45982 9.02576 3.03726 11.7435 3.03726C14.4613 3.03726 16.6379 3.45982 18.1245 4.02526C18.8693 4.30798 19.4286 4.62414 19.7965 4.92814C20.1765 5.24126 20.2981 5.5027 20.2981 5.6699C20.2981 5.8371 20.1734 6.09854 19.7965 6.41166C19.4286 6.71566 18.8693 7.03182 18.1245 7.31454C16.6379 7.87998 14.4613 8.30254 11.7435 8.30254C9.02576 8.30254 6.85216 7.87998 5.36256 7.31454C4.61776 7.03182 4.0584 6.71566 3.69056 6.41166C3.31056 6.09854 3.18896 5.8371 3.18896 5.6699Z" fill="#35B5B4"/>
<path d="M11.7428 10.6858C9.08283 10.6858 6.43499 10.2602 4.48027 9.51541C3.38283 9.09893 2.51643 8.59125 1.89931 8.00757C1.16971 7.31445 0.798828 6.53013 0.798828 5.66981C0.798828 4.80949 1.16971 4.02517 1.89931 3.33205C2.51643 2.74837 3.38283 2.24069 4.48027 1.82421C6.43499 1.07941 9.08283 0.653809 11.7428 0.653809C14.4028 0.653809 17.0507 1.07941 19.0054 1.82421C20.1028 2.24069 20.9692 2.74837 21.5863 3.33205C22.3159 4.02213 22.6868 4.80949 22.6868 5.66981C22.6868 6.53013 22.3159 7.31445 21.5863 8.00757C20.9692 8.59125 20.1028 9.09893 19.0054 9.51541C17.0476 10.2602 14.4028 10.6858 11.7428 10.6858ZM11.7428 1.26181C9.15275 1.26181 6.58699 1.67525 4.69611 2.39269C3.67467 2.78181 2.87515 3.24693 2.31883 3.77285C1.71387 4.34437 1.40987 4.98277 1.40987 5.66981C1.40987 6.35685 1.71691 6.99221 2.31883 7.56677C2.87515 8.09573 3.67771 8.56085 4.69611 8.94693C6.58699 9.66437 9.15579 10.0778 11.7428 10.0778C14.3299 10.0778 16.8987 9.66437 18.7895 8.94693C19.811 8.55781 20.6105 8.09269 21.1668 7.56677C21.7718 6.99525 22.0788 6.35685 22.0788 5.66981C22.0788 4.98277 21.7718 4.34741 21.1699 3.77285C20.6136 3.24389 19.814 2.77877 18.7926 2.39269C16.9017 1.67525 14.3329 1.26181 11.7459 1.26181H11.7428ZM11.7428 8.60949C9.27131 8.60949 6.96699 8.25077 5.25547 7.60021C4.51979 7.32053 3.91179 6.98917 3.49531 6.64869C2.99067 6.22917 2.88427 5.88565 2.88427 5.67285C2.88427 5.46005 2.99067 5.11653 3.49531 4.69701C3.90875 4.35349 4.51675 4.02517 5.25547 3.74549C6.96699 3.09493 9.27131 2.73621 11.7428 2.73621C14.2143 2.73621 16.5187 3.09493 18.2302 3.74549C18.9659 4.02517 19.5739 4.35653 19.9903 4.69701C20.495 5.11653 20.6014 5.46005 20.6014 5.67285C20.6014 5.88565 20.495 6.22917 19.9903 6.64869C19.5769 6.99221 18.9689 7.32053 18.2332 7.60021C16.5217 8.25077 14.2174 8.60949 11.7459 8.60949H11.7428ZM11.7428 3.34117C9.34123 3.34117 7.11595 3.68469 5.47131 4.31093C4.79643 4.56629 4.24619 4.86117 3.88443 5.16213C3.57435 5.42053 3.49227 5.60597 3.49227 5.66981C3.49227 5.73365 3.57435 5.92213 3.88443 6.17749C4.24619 6.47845 4.79643 6.77333 5.47131 7.02869C7.11595 7.65493 9.34427 7.99845 11.7428 7.99845C14.1414 7.99845 16.3697 7.65493 18.0143 7.02869C18.6892 6.77029 19.2395 6.47845 19.6012 6.17749C19.9113 5.91909 19.9934 5.73365 19.9934 5.66981C19.9934 5.60597 19.9113 5.41749 19.6012 5.16213C19.2395 4.86117 18.6892 4.56629 18.0143 4.31093C16.3697 3.68469 14.1414 3.34117 11.7428 3.34117Z" fill="#35B5B4"/>
<path d="M1.10352 27.5853C1.10352 28.169 1.58992 28.622 2.16752 28.622C2.74512 28.622 3.23152 28.169 3.23152 27.5853V5.6426C3.23152 5.05892 2.74512 4.60596 2.16752 4.60596C1.58992 4.60596 1.10352 5.05892 1.10352 5.6426V27.5884V27.5853Z" fill="#35B5B4"/>
<path d="M2.16683 28.9258C1.41291 28.9258 0.798828 28.3238 0.798828 27.5851V5.6424C0.798828 4.90368 1.41291 4.30176 2.16683 4.30176C2.92075 4.30176 3.53483 4.90368 3.53483 5.6424V27.5882C3.53483 28.3269 2.92075 28.9288 2.16683 28.9288V28.9258ZM2.16683 4.90976C1.74731 4.90976 1.40683 5.23808 1.40683 5.6424V27.5882C1.40683 27.9925 1.74731 28.3208 2.16683 28.3208C2.58635 28.3208 2.92683 27.9925 2.92683 27.5882V5.6424C2.92683 5.23808 2.58635 4.90976 2.16683 4.90976Z" fill="#35B5B4"/>
<path d="M20.2559 14.5072C20.2559 15.0909 20.7423 15.55 21.3199 15.55C21.8975 15.55 22.3839 15.0909 22.3839 14.5072V5.64868C22.3839 5.065 21.8975 4.60596 21.3199 4.60596C20.7423 4.60596 20.2559 5.065 20.2559 5.64868V14.5072Z" fill="#35B5B4"/>
<path d="M21.3192 15.8538C20.5653 15.8538 19.9512 15.2488 19.9512 14.507V5.64848C19.9512 4.90672 20.5653 4.30176 21.3192 4.30176C22.0731 4.30176 22.6872 4.90672 22.6872 5.64848V14.507C22.6872 15.2488 22.0731 15.8538 21.3192 15.8538ZM21.3192 4.90976C20.8997 4.90976 20.5592 5.24112 20.5592 5.64848V14.507C20.5592 14.9144 20.8997 15.2458 21.3192 15.2458C21.7387 15.2458 22.0792 14.9144 22.0792 14.507V5.64848C22.0792 5.24112 21.7387 4.90976 21.3192 4.90976Z" fill="#35B5B4"/>
</g>
<defs>
<clipPath id="clip0_2537_11473">
<rect width="36.48" height="36.48" fill="white" transform="translate(0.798828 0.653809)"/>
</clipPath>
</defs>
</svg>
