<svg width="37" height="38" viewBox="0 0 37 38" fill="none" xmlns="http://www.w3.org/2000/svg">
<g clip-path="url(#clip0_2537_11519)">
<path d="M6.11444 14.2338C8.63272 14.2338 10.6742 12.1923 10.6742 9.67401C10.6742 7.15573 8.63272 5.11426 6.11444 5.11426C3.59616 5.11426 1.55469 7.15573 1.55469 9.67401C1.55469 12.1923 3.59616 14.2338 6.11444 14.2338Z" fill="#35B5B4"/>
<path d="M11.1154 17.3802C9.58556 18.3348 8.32386 19.6631 7.44905 21.2398C6.57423 22.8166 6.11508 24.5901 6.11483 26.3933H3.07499C2.26952 26.3909 1.49772 26.0699 0.928161 25.5003C0.358602 24.9308 0.0375619 24.159 0.0351562 23.3535L0.0351563 20.3137C0.0387647 19.1054 0.520325 17.9478 1.37466 17.0934C2.229 16.2391 3.3867 15.7575 4.59491 15.7539H7.63474C8.2983 15.7554 8.95352 15.9017 9.55469 16.1826C10.1559 16.4635 10.6885 16.8722 11.1154 17.3802Z" fill="#35B5B4"/>
<path d="M30.4328 14.2338C32.9511 14.2338 34.9926 12.1923 34.9926 9.67401C34.9926 7.15573 32.9511 5.11426 30.4328 5.11426C27.9145 5.11426 25.873 7.15573 25.873 9.67401C25.873 12.1923 27.9145 14.2338 30.4328 14.2338Z" fill="#35B5B4"/>
<path d="M36.5118 20.3137V23.3535C36.5094 24.159 36.1884 24.9308 35.6188 25.5003C35.0493 26.0699 34.2775 26.3909 33.472 26.3933H30.4322C30.4319 24.5901 29.9728 22.8166 29.098 21.2398C28.2231 19.6631 26.9614 18.3348 25.4316 17.3802C25.8585 16.8722 26.3911 16.4635 26.9923 16.1826C27.5935 15.9017 28.2487 15.7554 28.9123 15.7539H31.9521C33.1603 15.7575 34.318 16.2391 35.1723 17.0934C36.0267 17.9478 36.5082 19.1054 36.5118 20.3137Z" fill="#35B5B4"/>
<path d="M18.273 17.2736C21.6307 17.2736 24.3527 14.5516 24.3527 11.1939C24.3527 7.83622 21.6307 5.11426 18.273 5.11426C14.9153 5.11426 12.1934 7.83622 12.1934 11.1939C12.1934 14.5516 14.9153 17.2736 18.273 17.2736Z" fill="#35B5B4"/>
<path d="M27.3933 26.396V27.9159C27.3897 29.1241 26.9081 30.2818 26.0538 31.1361C25.1995 31.9905 24.0418 32.472 22.8336 32.4756H13.7141C12.5058 32.472 11.3481 31.9905 10.4938 31.1361C9.63947 30.2818 9.15791 29.1241 9.1543 27.9159V26.396C9.1543 24.3804 9.95497 22.4475 11.3802 21.0223C12.8054 19.5971 14.7383 18.7964 16.7539 18.7964H19.7937C21.8093 18.7964 23.7422 19.5971 25.1674 21.0223C26.5926 22.4475 27.3933 24.3804 27.3933 26.396Z" fill="#35B5B4"/>
</g>
<defs>
<clipPath id="clip0_2537_11519">
<rect width="36.478" height="36.478" fill="white" transform="translate(0.0351562 0.553711)"/>
</clipPath>
</defs>
</svg>
