<svg width="38" height="37" viewBox="0 0 38 37" fill="none" xmlns="http://www.w3.org/2000/svg">
<path d="M25.9196 5.9571C25.4695 3.68971 23.7233 1.77507 21.5205 0.976974C19.7519 0.332111 17.8429 0.415114 16.1382 1.21321C16.0424 1.2579 15.9594 1.30898 15.8636 1.35368C15.8508 1.35368 15.8381 1.35368 15.8253 1.36645C15.7742 1.39198 15.7231 1.43029 15.6721 1.45583C15.5763 1.50691 15.4805 1.56437 15.3911 1.62184C15.2954 1.6793 15.206 1.74315 15.1166 1.80061C15.0208 1.87084 14.9187 1.93469 14.8229 2.01131C14.7463 2.06877 14.676 2.12623 14.6058 2.19008C14.5037 2.27308 14.4079 2.35609 14.3121 2.44547C14.2546 2.50294 14.1972 2.5604 14.1333 2.61786C14.0376 2.71363 13.9354 2.81579 13.846 2.91795C13.8077 2.95626 13.7758 3.00095 13.7439 3.03926C8.99359 1.75592 3.96877 4.29706 2.25126 9.00264C0.890505 12.7417 2.01343 16.7785 4.76686 19.3196C5.0031 19.5375 5.0861 19.8759 4.97597 20.1784L4.07012 22.6701C4.03421 22.7698 4.039 22.88 4.08369 22.9757L4.61044 24.0986C4.70381 24.2982 4.61842 24.536 4.4181 24.6294L3.50587 25.0572C3.30635 25.1505 3.22015 25.3884 3.31353 25.5879L3.74131 26.5001C3.83469 26.6996 3.74929 26.9375 3.54897 27.0309L2.63674 27.4586C2.43722 27.552 2.35102 27.7899 2.4444 27.9894L2.87218 28.9016C2.96556 29.1011 2.88016 29.339 2.67984 29.4323L1.55612 29.9591C1.46035 30.0038 1.38612 30.0852 1.35021 30.1841L0.769194 31.7867C0.673423 32.0501 0.673423 32.3382 0.768396 32.6008L1.82667 35.5354C2.08047 36.2385 2.90889 36.5402 3.55535 36.1643L6.24973 34.596C6.49155 34.4556 6.67671 34.2337 6.77248 33.9711L10.996 22.3708C11.1062 22.0683 11.3871 21.8624 11.7087 21.8472C15.455 21.6716 18.9083 19.3077 20.2683 15.5622C22.0114 10.7736 19.6873 5.50618 15.0711 3.50774L15.0583 3.51413C15.103 3.46943 15.1413 3.43112 15.186 3.38643C15.2626 3.30981 15.3456 3.24596 15.4286 3.17573C15.4861 3.12465 15.5436 3.07996 15.6074 3.02888C15.684 2.97142 15.767 2.91396 15.8437 2.85649C15.9203 2.80542 15.9905 2.75434 16.0671 2.70964C16.1437 2.66495 16.2204 2.62026 16.297 2.57556C16.4247 2.50533 16.546 2.4351 16.6801 2.37125C18.0719 1.72 19.6362 1.65615 21.0856 2.17971C22.5668 2.71603 23.7097 3.82698 24.3418 5.19971L25.9188 5.9595L25.9196 5.9571ZM14.8037 8.14708C14.4398 9.14311 13.3416 9.65389 12.3456 9.28996C11.3496 8.92602 10.8388 7.82784 11.2027 6.83182C11.407 6.27634 11.8412 5.88048 12.352 5.69533C12.2371 6.11034 12.1413 6.53173 12.103 6.95951C12.071 7.31067 12.3328 7.62353 12.684 7.65545C13.0352 7.68738 13.348 7.4256 13.3799 7.07444C13.4246 6.60835 13.5268 6.14864 13.68 5.70171C14.6569 6.07203 15.1613 7.15744 14.8037 8.14708Z" fill="#35B5B4"/>
<path d="M37.1693 12.5298C37.1366 12.9193 36.9865 13.2896 36.7375 13.5913C36.4885 13.893 36.1541 14.1117 35.7774 14.2178L34.6353 14.5386L36.4933 21.1501C36.6306 21.6409 36.5675 22.1661 36.3177 22.6114C36.0687 23.0559 35.6529 23.3832 35.1621 23.5212L32.518 24.2651C32.0264 24.4023 31.5012 24.3393 31.0567 24.0895C30.6121 23.8405 30.2849 23.4247 30.1461 22.9338L29.4461 20.4422C29.3264 19.9609 29.0351 19.5387 28.6273 19.2578C28.2186 18.9761 27.7206 18.8532 27.2282 18.913C26.9616 18.9577 26.7078 19.0583 26.4828 19.2083C26.2585 19.3592 26.0678 19.5555 25.9249 19.7845C25.7821 20.012 25.6879 20.2674 25.6496 20.5332C25.6105 20.7997 25.628 21.0711 25.7007 21.3297L26.4437 23.9746C26.581 24.4654 26.5179 24.9905 26.2689 25.4351C26.0191 25.8796 25.6033 26.2076 25.1132 26.3457L22.4684 27.0887C21.9775 27.2268 21.4524 27.1637 21.0078 26.9139C20.5633 26.6641 20.2353 26.2491 20.0972 25.7583L18.7069 20.8133C18.6239 20.518 18.7101 20.2027 18.9264 19.9857C18.9272 19.9849 18.9288 19.9833 18.9296 19.9825C20.9831 17.929 22.114 15.1987 22.114 12.2952C22.114 10.794 21.8123 9.33984 21.2361 8.00063C21.0773 7.63111 21.1132 7.20653 21.3335 6.87053L22.0238 5.81864C22.2792 5.43076 22.6671 5.14744 23.1156 5.02134C23.5633 4.89603 24.0422 4.93594 24.4628 5.13467L36.0751 10.6352C36.4287 10.802 36.7232 11.0725 36.9187 11.4109C37.1142 11.7501 37.2012 12.1396 37.1693 12.5298Z" fill="#35B5B4"/>
</svg>
