<svg width="38" height="38" viewBox="0 0 38 38" fill="none" xmlns="http://www.w3.org/2000/svg">
<g clip-path="url(#clip0_2537_11459)">
<path d="M35.1351 24.2632C33.2586 22.3853 30.655 21.5898 27.3112 22.4859L15.3876 10.5502L15.5451 9.95429C16.2319 7.3776 15.4899 4.60791 13.6093 2.7273C11.6944 0.810989 8.97226 0.10786 6.39779 0.81505C6.03065 0.915863 5.74488 1.20434 5.64763 1.57247C5.55038 1.9406 5.65704 2.33188 5.92614 2.60112L8.79714 5.47213C9.63649 6.31354 9.6283 7.66109 8.79921 8.49239C7.97667 9.31714 6.59407 9.31586 5.77481 8.49446L2.90323 5.62267C2.63399 5.35329 2.24157 5.24763 1.87344 5.34545C1.50524 5.4432 1.21783 5.72968 1.11738 6.09717C0.420518 8.64336 1.10605 11.3824 3.03005 13.3064C4.90568 15.1834 7.50609 15.9818 10.8519 15.0837L22.7764 27.0195C21.8866 30.3623 22.6542 32.9407 24.5558 34.8424C26.473 36.761 29.1965 37.4589 31.7653 36.7541C32.1325 36.6534 32.4184 36.3648 32.5157 35.9967C32.613 35.6286 32.5064 35.2372 32.2372 34.9679L29.3668 32.0975C28.5275 31.2561 28.5357 29.9084 29.3648 29.0773C30.1976 28.2487 31.5771 28.2619 32.3892 29.0762L35.261 31.9472C35.5302 32.2164 35.9226 32.3221 36.2907 32.2243C36.6588 32.1265 36.9462 31.8401 37.0467 31.4727C37.7435 28.9269 37.0581 26.1872 35.1351 24.2632Z" fill="#35B5B4"/>
<path d="M12.2759 19.5391L2.08831 29.728C0.421083 31.3952 0.421083 34.1064 2.08831 35.7736C3.75554 37.4408 6.46675 37.4408 8.13391 35.7736L18.3213 25.5849L12.2759 19.5391ZM7.1299 32.457C6.7124 32.8745 6.03628 32.8745 5.61877 32.457C5.20134 32.0396 5.20134 31.3633 5.61877 30.9459L12.1007 24.4627C12.5182 24.0452 13.1945 24.0452 13.6119 24.4627C14.0293 24.8801 14.0293 25.5564 13.6119 25.9738L7.1299 32.457Z" fill="#35B5B4"/>
<path d="M36.9968 2.70083L35.1545 0.858476C34.8077 0.511721 34.2696 0.445462 33.8491 0.697603L28.1817 4.09768C27.5854 4.45541 27.4841 5.27809 27.9757 5.76976L28.4269 6.22075L21.2324 13.3858L24.2558 16.4091L31.4502 9.24408L32.0856 9.87966C32.5773 10.3712 33.4001 10.27 33.7577 9.67369L37.1578 4.00627C37.4099 3.58571 37.3436 3.04759 36.9968 2.70083Z" fill="#35B5B4"/>
</g>
<defs>
<clipPath id="clip0_2537_11459">
<rect width="36.478" height="36.478" fill="white" transform="translate(0.833984 0.547363)"/>
</clipPath>
</defs>
</svg>
