<svg width="28" height="38" viewBox="0 0 28 38" fill="none" xmlns="http://www.w3.org/2000/svg">
<path fill-rule="evenodd" clip-rule="evenodd" d="M0.699219 14.0294C0.699219 6.59899 6.74401 0.554199 14.1744 0.554199C21.6047 0.554199 27.6495 6.59899 27.6495 14.0294C27.6495 16.4763 26.5533 19.1071 26.5073 19.2173C26.153 20.0583 25.4547 21.3646 24.9497 22.1303L15.7097 36.1302C15.3316 36.7033 14.772 37.0322 14.1744 37.0322C13.5767 37.0322 13.0171 36.7033 12.639 36.1294L3.3998 22.1303C2.89567 21.3646 2.19655 20.0583 1.84223 19.2173L1.84127 19.215C1.78292 19.0743 0.699219 16.4606 0.699219 14.0294ZM21.6741 13.9295C21.6741 17.9587 18.1037 21.5291 14.0745 21.5291C10.0452 21.5291 6.77889 17.9587 6.77889 13.9295C6.77889 9.90022 10.0452 6.63387 14.0745 6.63387C18.1037 6.63387 21.6741 9.90022 21.6741 13.9295Z" fill="#35B5B4"/>
</svg>
