<svg width="12" height="13" viewBox="0 0 12 13" fill="none" xmlns="http://www.w3.org/2000/svg">
<g clip-path="url(#clip0_2547_30508)">
<path d="M6.84995 10.3618H6.25271C6.20807 10.3618 6.17188 10.398 6.17188 10.4427V12.4331C6.17188 12.4778 6.20807 12.514 6.25271 12.514H6.84995C6.8946 12.514 6.93079 12.4778 6.93079 12.4331V10.4427C6.93079 10.398 6.8946 10.3618 6.84995 10.3618Z" fill="#35B5B4"/>
<path d="M5.80408 10.3618H5.20779C5.16314 10.3618 5.12695 10.398 5.12695 10.4427V12.4331C5.12695 12.4778 5.16314 12.514 5.20779 12.514H5.80408C5.84873 12.514 5.88492 12.4778 5.88492 12.4331V10.4427C5.88492 10.398 5.84873 10.3618 5.80408 10.3618Z" fill="#35B5B4"/>
<path d="M8.32414 1.46509H3.7288C3.65366 1.46509 3.59375 1.525 3.59375 1.59918V12.1641C3.59375 12.3571 3.75067 12.5141 3.94468 12.5141H4.75495C4.79965 12.5141 4.83579 12.4779 4.83579 12.4332V10.2183C4.83579 10.1394 4.90045 10.0747 4.97939 10.0747H7.07259C7.15152 10.0747 7.21619 10.1394 7.21619 10.2183V12.4332C7.21619 12.4779 7.25233 12.5141 7.29703 12.5141H8.10825C8.30131 12.5141 8.45823 12.3571 8.45823 12.1641V1.59918C8.45823 1.525 8.39832 1.46509 8.32414 1.46509ZM4.31367 2.59205C4.31367 2.51311 4.37739 2.44845 4.45633 2.44845H5.66222C5.74116 2.44845 5.80583 2.51311 5.80583 2.59205V3.79699C5.80583 3.87593 5.74116 3.9406 5.66222 3.9406H4.45633C4.37739 3.9406 4.31367 3.87593 4.31367 3.79699V2.59205ZM4.31367 5.05615C4.31367 4.97721 4.37739 4.91349 4.45633 4.91349H5.66222C5.74116 4.91349 5.80583 4.97721 5.80583 5.05615V6.26204C5.80583 6.34098 5.74116 6.40565 5.66222 6.40565H4.45633C4.37739 6.40565 4.31367 6.34098 4.31367 6.26204V5.05615ZM4.31367 8.72709V7.5212C4.31367 7.44226 4.37739 7.37759 4.45633 7.37759H5.66222C5.74116 7.37759 5.80583 7.44226 5.80583 7.5212V8.72709C5.80583 8.80603 5.74116 8.86975 5.66222 8.86975H4.45633C4.37739 8.86975 4.31367 8.80603 4.31367 8.72709ZM7.74211 8.72709C7.74211 8.80603 7.67744 8.86975 7.59851 8.86975H6.39261C6.31367 8.86975 6.24996 8.80603 6.24996 8.72709V7.5212C6.24996 7.44226 6.31367 7.37759 6.39261 7.37759H7.59851C7.67744 7.37759 7.74211 7.44226 7.74211 7.5212V8.72709ZM7.74211 6.26204C7.74211 6.34098 7.67744 6.40565 7.59851 6.40565H6.39261C6.31367 6.40565 6.24996 6.34098 6.24996 6.26204V5.05615C6.24996 4.97721 6.31367 4.91349 6.39261 4.91349H7.59851C7.67744 4.91349 7.74211 4.97721 7.74211 5.05615V6.26204ZM7.74211 3.79699C7.74211 3.87593 7.67744 3.9406 7.59851 3.9406H6.39261C6.31367 3.9406 6.24996 3.87593 6.24996 3.79699V2.59205C6.24996 2.51311 6.31367 2.44845 6.39261 2.44845H7.59851C7.67744 2.44845 7.74211 2.51311 7.74211 2.59205V3.79699Z" fill="#35B5B4"/>
<path d="M6.61795 7.66504H7.37496C7.41966 7.66504 7.4558 7.70118 7.4558 7.74588V8.50289C7.4558 8.54759 7.41966 8.58373 7.37496 8.58373H6.61795C6.57325 8.58373 6.53711 8.54759 6.53711 8.50289V7.74588C6.53711 7.70118 6.57325 7.66504 6.61795 7.66504Z" fill="#35B5B4"/>
<path d="M4.6824 7.66504H5.43941C5.48411 7.66504 5.52025 7.70118 5.52025 7.74588V8.50289C5.52025 8.54759 5.48411 8.58373 5.43941 8.58373H4.6824C4.6377 8.58373 4.60156 8.54759 4.60156 8.50289V7.74588C4.60156 7.70118 4.6377 7.66504 4.6824 7.66504Z" fill="#35B5B4"/>
<path d="M4.6824 5.19995H5.43941C5.48411 5.19995 5.52025 5.23609 5.52025 5.28079V6.0378C5.52025 6.0825 5.48411 6.11864 5.43941 6.11864H4.6824C4.6377 6.11864 4.60156 6.0825 4.60156 6.0378V5.28079C4.60156 5.23609 4.6377 5.19995 4.6824 5.19995Z" fill="#35B5B4"/>
<path d="M6.61795 5.19995H7.37496C7.41966 5.19995 7.4558 5.23609 7.4558 5.28079V6.0378C7.4558 6.0825 7.41966 6.11864 7.37496 6.11864H6.61795C6.57325 6.11864 6.53711 6.0825 6.53711 6.0378V5.28079C6.53711 5.23609 6.57325 5.19995 6.61795 5.19995Z" fill="#35B5B4"/>
<path d="M6.61795 2.7356H7.37496C7.41966 2.7356 7.4558 2.77173 7.4558 2.81643V3.57345C7.4558 3.61814 7.41966 3.65428 7.37496 3.65428H6.61795C6.57325 3.65428 6.53711 3.61814 6.53711 3.57345V2.81643C6.53711 2.77173 6.57325 2.7356 6.61795 2.7356Z" fill="#35B5B4"/>
<path d="M4.6824 2.7356H5.43941C5.48411 2.7356 5.52025 2.77173 5.52025 2.81643V3.57345C5.52025 3.61814 5.48411 3.65428 5.43941 3.65428H4.6824C4.6377 3.65428 4.60156 3.61814 4.60156 3.57345V2.81643C4.60156 2.77173 4.6377 2.7356 4.6824 2.7356Z" fill="#35B5B4"/>
<path d="M9.04125 0.741455V0.814683C9.04125 0.941169 8.94044 1.04198 8.81396 1.04198H3.24097C3.11733 1.04198 3.01367 0.941169 3.01367 0.814683V0.741455C3.01367 0.617822 3.11448 0.51416 3.24097 0.51416H8.81396C8.94044 0.517013 9.04125 0.617822 9.04125 0.741455Z" fill="#35B5B4"/>
<path d="M3.17132 3.45516C3.17132 3.49986 3.13518 3.536 3.09048 3.536H0.110931C0.0405555 3.536 -0.0269671 3.50747 -0.0745182 3.45992C-0.133482 3.40096 -0.157257 3.32392 -0.148698 3.24118C-0.134433 3.10994 -0.0174568 3.01294 0.114735 3.01294H3.09048C3.13518 3.01294 3.17132 3.04908 3.17132 3.09378V3.45516Z" fill="#35B5B4"/>
<path d="M3.03716 3.95825H0.701451C0.626321 3.95825 0.566406 4.01817 0.566406 4.0933V11.9744C0.566406 12.1675 0.723325 12.3244 0.916383 12.3244H3.09042C3.13512 12.3244 3.17126 12.2883 3.17126 12.2436V4.0933C3.17126 4.01817 3.11134 3.95825 3.03716 3.95825ZM1.12275 5.07095C1.12275 4.99201 1.18742 4.92734 1.26636 4.92734H2.4713C2.55024 4.92734 2.61491 4.99201 2.61491 5.07095V6.27684C2.61491 6.35578 2.55024 6.4195 2.4713 6.4195H1.26636C1.18742 6.4195 1.12275 6.35578 1.12275 6.27684V5.07095ZM2.61491 11.2031C2.61491 11.2821 2.55024 11.3467 2.4713 11.3467H1.26636C1.18742 11.3467 1.12275 11.2821 1.12275 11.2031V9.99724C1.12275 9.91831 1.18742 9.85459 1.26636 9.85459H2.4713C2.55024 9.85459 2.61491 9.91831 2.61491 9.99724V11.2031ZM1.12275 7.536C1.12275 7.45706 1.18742 7.39239 1.26636 7.39239H2.4713C2.55024 7.39239 2.61491 7.45706 2.61491 7.536V8.74094C2.61491 8.81988 2.55024 8.88455 2.4713 8.88455H1.26636C1.18742 8.88455 1.12275 8.81988 1.12275 8.74094V7.536Z" fill="#35B5B4"/>
<path d="M2.247 10.1409H1.48904C1.4444 10.1409 1.4082 10.1771 1.4082 10.2217V10.9787C1.4082 11.0234 1.4444 11.0596 1.48904 11.0596H2.247C2.29165 11.0596 2.32784 11.0234 2.32784 10.9787V10.2217C2.32784 10.1771 2.29165 10.1409 2.247 10.1409Z" fill="#35B5B4"/>
<path d="M1.48904 7.67969H2.24605C2.29075 7.67969 2.32689 7.71583 2.32689 7.76052V8.51754C2.32689 8.56224 2.29075 8.59838 2.24605 8.59838H1.48904C1.44434 8.59838 1.4082 8.56224 1.4082 8.51754V7.76052C1.4082 7.71583 1.44434 7.67969 1.48904 7.67969Z" fill="#35B5B4"/>
<path d="M1.48904 5.2146H2.24605C2.29075 5.2146 2.32689 5.25074 2.32689 5.29544V6.05245C2.32689 6.09715 2.29075 6.13329 2.24605 6.13329H1.48904C1.44434 6.13329 1.4082 6.09715 1.4082 6.05245V5.29544C1.4082 5.25074 1.44434 5.2146 1.48904 5.2146Z" fill="#35B5B4"/>
<path d="M8.88086 4.09232V12.2435C8.88086 12.2882 8.917 12.3244 8.9617 12.3244H11.1357C11.3297 12.3244 11.4867 12.1675 11.4867 11.9734V4.09232C11.4867 4.01814 11.4267 3.95728 11.3516 3.95728H9.0159C8.94172 3.95728 8.88086 4.01719 8.88086 4.09232ZM10.9294 11.2031C10.9294 11.2821 10.8647 11.3467 10.7858 11.3467H9.57986C9.50093 11.3467 9.43626 11.2821 9.43626 11.2031V9.99722C9.43626 9.91828 9.50093 9.85361 9.57986 9.85361H10.7858C10.8647 9.85361 10.9294 9.91828 10.9294 9.99722V11.2031ZM10.9294 8.74092C10.9294 8.81985 10.8647 8.88452 10.7858 8.88452H9.57986C9.50093 8.88452 9.43626 8.81985 9.43626 8.74092V7.53502C9.43626 7.45609 9.50093 7.39142 9.57986 7.39142H10.7858C10.8647 7.39142 10.9294 7.45609 10.9294 7.53502V8.74092ZM10.9294 6.27587C10.9294 6.3548 10.8647 6.41947 10.7858 6.41947H9.57986C9.50093 6.41947 9.43626 6.3548 9.43626 6.27587V5.06997C9.43626 4.99104 9.50093 4.92637 9.57986 4.92637H10.7858C10.8647 4.92637 10.9294 4.99104 10.9294 5.06997V6.27587Z" fill="#35B5B4"/>
<path d="M9.80545 5.21362H10.5625C10.6072 5.21362 10.6433 5.24976 10.6433 5.29446V6.05147C10.6433 6.09617 10.6072 6.13231 10.5625 6.13231H9.80545C9.76075 6.13231 9.72461 6.09617 9.72461 6.05147V5.29446C9.72461 5.24976 9.76075 5.21362 9.80545 5.21362Z" fill="#35B5B4"/>
<path d="M9.80545 7.67871H10.5625C10.6072 7.67871 10.6433 7.71485 10.6433 7.75955V8.51656C10.6433 8.56126 10.6072 8.5974 10.5625 8.5974H9.80545C9.76075 8.5974 9.72461 8.56126 9.72461 8.51656V7.75955C9.72461 7.71485 9.76075 7.67871 9.80545 7.67871Z" fill="#35B5B4"/>
<path d="M9.80545 10.1399H10.5625C10.6072 10.1399 10.6433 10.176 10.6433 10.2207V10.9777C10.6433 11.0224 10.6072 11.0586 10.5625 11.0586H9.80545C9.76075 11.0586 9.72461 11.0224 9.72461 10.9777V10.2207C9.72461 10.176 9.76075 10.1399 9.80545 10.1399Z" fill="#35B5B4"/>
<path d="M12.1999 3.27364C12.1999 3.34401 12.1714 3.41153 12.1238 3.45909C12.0734 3.50949 12.0088 3.53517 11.9384 3.53517H8.9617C8.917 3.53517 8.88086 3.49808 8.88086 3.45338V3.08914C8.88086 3.04444 8.917 3.0083 8.9617 3.0083H11.9384C12.082 3.0083 12.1999 3.12718 12.1999 3.27364Z" fill="#35B5B4"/>
</g>
<defs>
<clipPath id="clip0_2547_30508">
<rect width="12" height="12" fill="white" transform="translate(0 0.463867)"/>
</clipPath>
</defs>
</svg>
