<svg width="12" height="13" viewBox="0 0 12 13" fill="none" xmlns="http://www.w3.org/2000/svg">
<path d="M10.4766 1.66699H11.2969V2.4873C11.2969 2.6816 11.4541 2.83887 11.6484 2.83887C11.8427 2.83887 12 2.6816 12 2.4873V1.31543C12 1.12127 11.8426 0.963867 11.6484 0.963867H10.4766C10.2824 0.963867 10.125 1.12127 10.125 1.31543C10.125 1.50959 10.2824 1.66699 10.4766 1.66699Z" fill="#35B5B4"/>
<path d="M11.2969 5.47144V8.45597C11.2969 8.6498 11.4546 8.80753 11.6484 8.80753C11.8423 8.80753 12 8.6498 12 8.45597V5.47144C12 5.27761 11.8423 5.11987 11.6484 5.11987C11.4546 5.11987 11.2969 5.27761 11.2969 5.47144Z" fill="#35B5B4"/>
<path d="M11.2969 11.4404V12.2607H10.4766C10.4644 12.2607 10.4524 12.2614 10.4406 12.2625C10.4346 12.2632 10.4287 12.2644 10.4228 12.2653C10.4171 12.2661 10.4113 12.2667 10.4057 12.2679C10.3992 12.2692 10.3929 12.2711 10.3866 12.2728C10.3817 12.2741 10.3768 12.275 10.3721 12.2765C10.3668 12.2782 10.3617 12.2803 10.3565 12.2822C10.3509 12.2842 10.3452 12.286 10.3398 12.2883C10.3367 12.2896 10.3339 12.2912 10.3309 12.2926C10.3235 12.296 10.3161 12.2993 10.309 12.3031C10.3083 12.3035 10.3076 12.304 10.3069 12.3044C10.2084 12.3588 10.1387 12.4589 10.1268 12.5763C10.1256 12.5882 10.125 12.6002 10.125 12.6123C10.125 12.8065 10.2824 12.9639 10.4766 12.9639H11.6484C11.8426 12.9639 12 12.8065 12 12.6123V11.4404C12 11.2463 11.8426 11.0889 11.6484 11.0889C11.4543 11.0889 11.2969 11.2463 11.2969 11.4404Z" fill="#35B5B4"/>
<path d="M7.49227 12.2606H6.06652V7.24875C6.06652 7.05459 5.90911 6.89719 5.71495 6.89719H0.703125V5.47144C0.703125 5.27761 0.545391 5.11987 0.351562 5.11987C0.157734 5.11987 0 5.27761 0 5.47144V12.6121C0 12.8063 0.157406 12.9637 0.351562 12.9637H7.49227C7.68609 12.9637 7.84383 12.806 7.84383 12.6121C7.84383 12.4183 7.68609 12.2606 7.49227 12.2606Z" fill="#35B5B4"/>
<path d="M0.703125 2.4873V1.66699H1.52344C1.71759 1.66699 1.875 1.50959 1.875 1.31543C1.875 1.12127 1.71759 0.963867 1.52344 0.963867H0.351562C0.157406 0.963867 0 1.12127 0 1.31543V2.4873C0 2.68146 0.157406 2.83887 0.351562 2.83887C0.545719 2.83887 0.703125 2.68146 0.703125 2.4873Z" fill="#35B5B4"/>
<path d="M4.50781 1.66699H7.49234C7.68617 1.66699 7.84391 1.50926 7.84391 1.31543C7.84391 1.1216 7.68617 0.963867 7.49234 0.963867H4.50781C4.31398 0.963867 4.15625 1.1216 4.15625 1.31543C4.15625 1.50926 4.31398 1.66699 4.50781 1.66699Z" fill="#35B5B4"/>
<path d="M6.36574 5.84309C6.30031 5.90852 6.26758 5.99429 6.26758 6.08004C6.26758 6.16578 6.30029 6.25157 6.36574 6.31699C6.49662 6.44786 6.70879 6.44786 6.83967 6.31699L9.15974 3.99691V4.76712C9.15974 4.95219 9.30978 5.10224 9.49485 5.10224C9.67993 5.10224 9.82997 4.95219 9.82997 4.76712V3.1879C9.82997 3.00283 9.67993 2.85278 9.49485 2.85278H7.91561C7.73054 2.85278 7.58049 3.00283 7.58049 3.1879C7.58049 3.37297 7.73054 3.52301 7.91561 3.52301H8.68582L6.36574 5.84309Z" fill="#35B5B4"/>
</svg>
