<svg width="18" height="15" viewBox="0 0 18 15" fill="none" xmlns="http://www.w3.org/2000/svg">
<path d="M1.89841 8.52469H14.4299L10.5943 13.1315C10.5055 13.2384 10.4386 13.3617 10.3975 13.4944C10.3563 13.627 10.3417 13.7665 10.3545 13.9049C10.3802 14.1843 10.5159 14.442 10.7317 14.6214C10.9475 14.8007 11.2257 14.887 11.5051 14.8612C11.7845 14.8355 12.0422 14.6998 12.2215 14.484L17.5046 8.14431C17.5401 8.09388 17.5719 8.04091 17.5997 7.98582C17.5997 7.93299 17.6525 7.90129 17.6737 7.84846C17.7215 7.72731 17.7466 7.59835 17.7476 7.46808C17.7466 7.33781 17.7215 7.20885 17.6737 7.0877C17.6737 7.03487 17.6208 7.00317 17.5997 6.95034C17.5719 6.89525 17.5401 6.84227 17.5046 6.79184L12.2215 0.452161C12.1222 0.332887 11.9978 0.236968 11.8572 0.171224C11.7165 0.10548 11.5632 0.0715273 11.4079 0.0717794C11.1611 0.071297 10.9218 0.157279 10.7317 0.314801C10.6247 0.403502 10.5363 0.51244 10.4714 0.635374C10.4066 0.758308 10.3667 0.892823 10.3539 1.03122C10.3412 1.16961 10.3558 1.30916 10.3971 1.44187C10.4383 1.57459 10.5054 1.69786 10.5943 1.80463L14.4299 6.41146H1.89841C1.61818 6.41146 1.34943 6.52279 1.15127 6.72094C0.953119 6.91909 0.841797 7.18785 0.841797 7.46808C0.841797 7.74831 0.953119 8.01706 1.15127 8.21522C1.34943 8.41337 1.61818 8.52469 1.89841 8.52469Z" fill="white"/>
</svg>
