<svg width="14" height="14" viewBox="0 0 14 14" fill="none" xmlns="http://www.w3.org/2000/svg">
<path d="M10.6914 6.69946C10.6914 6.24714 10.3234 5.87915 9.87109 5.87915H9.05078C8.59846 5.87915 8.23047 6.24714 8.23047 6.69946V9.57056H10.6914V6.69946Z" fill="#35B5B4"/>
<path d="M1.66797 2.05103C1.66797 1.37263 2.22004 0.820557 2.89844 0.820557H3.71875C4.27312 0.820557 4.74294 1.18926 4.89628 1.69424C3.98787 1.90485 3.30859 2.72013 3.30859 3.69165V4.10181H7.41016V3.69165C7.41016 2.68901 6.68672 1.8527 5.73453 1.67587C5.5577 0.723596 4.72128 0.000244141 3.71875 0.000244141H2.89844C1.76777 0.000244141 0.847656 0.920088 0.847656 2.05103V5.87915H1.66797V2.05103Z" fill="#35B5B4"/>
<path d="M11.5117 10.3909H7.41016V9.1604H0.847656V10.3909C0.847656 11.4641 1.43965 12.4015 2.31416 12.8941L1.78812 13.4202L2.36813 14.0002L3.16096 13.2074C3.34146 13.2431 3.52795 13.262 3.71875 13.262H10.2812C10.4721 13.262 10.6585 13.2431 10.839 13.2074L11.6319 14.0002L12.2119 13.4202L11.6859 12.8942C12.5604 12.4015 13.1523 11.4641 13.1523 10.3909V9.1604H11.5117V10.3909Z" fill="#35B5B4"/>
<path d="M13.1797 6.69946H11.5117V8.34009H13.1797C13.632 8.34009 14 7.97204 14 7.51978C14 7.06751 13.632 6.69946 13.1797 6.69946Z" fill="#35B5B4"/>
<path d="M7.41016 6.69946H0.820312C0.368047 6.69946 0 7.06751 0 7.51978C0 7.97204 0.368047 8.34009 0.820312 8.34009H7.41016V6.69946Z" fill="#35B5B4"/>
</svg>
