<svg width="19" height="10" viewBox="0 0 19 10" fill="none" xmlns="http://www.w3.org/2000/svg">
<circle cx="14.8199" cy="2.72129" r="1.9" fill="#35B5B4"/>
<path d="M3.03171 4.62406C5.34522 4.63402 12.1988 4.66016 12.1593 4.62072V1.6061C12.1585 1.3945 12.07 1.1927 11.9149 1.04869C11.7599 0.904686 11.5521 0.831343 11.341 0.846103C8.40472 1.15006 5.5221 1.84439 2.76943 2.91072C2.47389 3.02237 2.27859 3.30562 2.27931 3.62155V3.86406C2.2783 4.06462 2.357 4.25736 2.4981 4.39989C2.63921 4.54242 2.83115 4.62306 3.03171 4.62406Z" fill="#35B5B4"/>
<path d="M18.62 0.0605469C18.4101 0.0605469 18.24 0.230679 18.24 0.440547V5.38055H0.76V4.24055C0.76 4.03068 0.589868 3.86055 0.38 3.86055C0.170132 3.86055 0 4.03068 0 4.24055V7.66055H19V0.440547C19 0.230679 18.8299 0.0605469 18.62 0.0605469Z" fill="#35B5B4"/>
<path d="M0 9.17992V9.55992C0 9.76979 0.170132 9.93992 0.38 9.93992C0.589868 9.93992 0.76 9.76979 0.76 9.55992V9.17992H18.24V9.55992C18.24 9.76979 18.4101 9.93992 18.62 9.93992C18.8299 9.93992 19 9.76979 19 9.55992V8.41992H0V9.17992Z" fill="#35B5B4"/>
</svg>
