<svg width="11" height="13" viewBox="0 0 11 13" fill="none" xmlns="http://www.w3.org/2000/svg">
<path d="M10.4528 10.0154V10.093C10.4528 10.2271 10.3459 10.334 10.2118 10.334H0.627707C0.496625 10.334 0.386719 10.2271 0.386719 10.093V10.0154C0.386719 9.88432 0.493601 9.77441 0.627707 9.77441H10.2108C10.3449 9.77744 10.4518 9.88432 10.4518 10.0154H10.4528Z" fill="#35B5B4"/>
<path d="M10.4528 0.842551V0.920191C10.4528 1.0543 10.3459 1.16118 10.2118 1.16118H0.627707C0.496625 1.16118 0.386719 1.0543 0.386719 0.920191V0.842551C0.386719 0.711469 0.493601 0.601562 0.627707 0.601562H10.2108C10.3449 0.604587 10.4518 0.711469 10.4518 0.842551H10.4528Z" fill="#35B5B4"/>
<path d="M9.493 1.60962H1.14513C1.06548 1.60962 1.00195 1.67415 1.00195 1.75279V5.10315C1.00195 5.1828 1.06548 5.24632 1.14513 5.24632H9.493C9.57165 5.24632 9.63619 5.1828 9.63619 5.10315V1.75279C9.63619 1.67415 9.57165 1.60962 9.493 1.60962ZM3.55602 4.06668C3.55602 4.15037 3.48746 4.21893 3.40377 4.21893H2.12623C2.04254 4.21893 1.97397 4.15037 1.97397 4.06668V2.78824C1.97397 2.70456 2.04254 2.63701 2.12623 2.63701H3.40377C3.48746 2.63701 3.55602 2.70456 3.55602 2.78824V4.06668ZM6.1101 4.06668C6.1101 4.15037 6.04153 4.21893 5.95784 4.21893H4.6803C4.59661 4.21893 4.52804 4.15037 4.52804 4.06668V2.78824C4.52804 2.70456 4.59661 2.63701 4.6803 2.63701H5.95784C6.04153 2.63701 6.1101 2.70456 6.1101 2.78824V4.06668ZM8.66417 4.06668C8.66417 4.15037 8.5956 4.21893 8.51191 4.21893H7.23437C7.15068 4.21893 7.08211 4.15037 7.08211 4.06668V2.78824C7.08211 2.70456 7.15068 2.63701 7.23437 2.63701H8.51191C8.5956 2.63701 8.66417 2.70456 8.66417 2.78824V4.06668Z" fill="#35B5B4"/>
<path d="M5.72137 2.94043H4.91774C4.8704 2.94043 4.83203 2.9788 4.83203 3.02614V3.82876C4.83203 3.87609 4.8704 3.91447 4.91774 3.91447H5.72137C5.7687 3.91447 5.80708 3.87609 5.80708 3.82876V3.02614C5.80708 2.9788 5.7687 2.94043 5.72137 2.94043Z" fill="#35B5B4"/>
<path d="M8.2741 2.94043H7.47047C7.42314 2.94043 7.38477 2.9788 7.38477 3.02614V3.82876C7.38477 3.87609 7.42314 3.91447 7.47047 3.91447H8.2741C8.32144 3.91447 8.35981 3.87609 8.35981 3.82876V3.02614C8.35981 2.9788 8.32144 2.94043 8.2741 2.94043Z" fill="#35B5B4"/>
<path d="M3.16668 2.94043H2.36305C2.31572 2.94043 2.27734 2.9788 2.27734 3.02614V3.82876C2.27734 3.87609 2.31572 3.91447 2.36305 3.91447H3.16668C3.21402 3.91447 3.25239 3.87609 3.25239 3.82876V3.02614C3.25239 2.9788 3.21402 2.94043 3.16668 2.94043Z" fill="#35B5B4"/>
<path d="M9.63619 10.9259V12.2295C9.63619 12.4352 9.46981 12.6015 9.26412 12.6015H8.74987C8.70248 12.6015 8.66417 12.5632 8.66417 12.5158V11.9623C8.66417 11.8786 8.59661 11.8111 8.51292 11.8111H7.23437C7.15068 11.8111 7.08211 11.8796 7.08211 11.9633V12.5158C7.08211 12.5632 7.0438 12.6015 6.99641 12.6015H6.1958C6.14841 12.6015 6.1101 12.5632 6.1101 12.5158V11.9623C6.1101 11.8786 6.04254 11.8111 5.95885 11.8111H4.67929C4.5956 11.8111 4.52804 11.8786 4.52804 11.9623V12.5158C4.52804 12.5632 4.48973 12.6015 4.44234 12.6015H3.64173C3.59434 12.6015 3.55602 12.5632 3.55602 12.5158V11.9623C3.55602 11.8786 3.48847 11.8111 3.40478 11.8111H2.12623C2.04254 11.8111 1.97397 11.8796 1.97397 11.9633V12.5158C1.97397 12.5632 1.93566 12.6015 1.88827 12.6015H1.37402C1.16833 12.6015 1.00195 12.4352 1.00195 12.2295V10.9269C1.00195 10.8482 1.06649 10.7837 1.14513 10.7837H9.493C9.57165 10.7837 9.63619 10.8482 9.63619 10.9269V10.9259Z" fill="#35B5B4"/>
<path d="M5.72137 12.1135H4.91774C4.8704 12.1135 4.83203 12.1519 4.83203 12.1992V12.5148C4.83203 12.5622 4.8704 12.6005 4.91774 12.6005H5.72137C5.7687 12.6005 5.80708 12.5622 5.80708 12.5148V12.1992C5.80708 12.1519 5.7687 12.1135 5.72137 12.1135Z" fill="#35B5B4"/>
<path d="M8.2741 12.1135H7.47047C7.42314 12.1135 7.38477 12.1519 7.38477 12.1992V12.5148C7.38477 12.5622 7.42314 12.6005 7.47047 12.6005H8.2741C8.32144 12.6005 8.35981 12.5622 8.35981 12.5148V12.1992C8.35981 12.1519 8.32144 12.1135 8.2741 12.1135Z" fill="#35B5B4"/>
<path d="M3.16668 12.1135H2.36305C2.31572 12.1135 2.27734 12.1519 2.27734 12.1992V12.5148C2.27734 12.5622 2.31572 12.6005 2.36305 12.6005H3.16668C3.21402 12.6005 3.25239 12.5622 3.25239 12.5148V12.1992C3.25239 12.1519 3.21402 12.1135 3.16668 12.1135Z" fill="#35B5B4"/>
<path d="M0.998047 5.85582V9.184C0.998047 9.26264 1.06157 9.32717 1.14123 9.32717H6.53573C6.58312 9.32717 6.62144 9.28885 6.62144 9.24147V6.89329C6.62144 6.80961 6.69001 6.74105 6.7737 6.74105H8.99301C9.0767 6.74105 9.14526 6.80961 9.14526 6.89329V9.24147C9.14526 9.28885 9.18358 9.32717 9.23097 9.32717H9.49616C9.57481 9.32717 9.63934 9.26365 9.63934 9.184V5.85582C9.63934 5.77717 9.57581 5.71265 9.49616 5.71265H1.14123C1.06258 5.71265 0.998047 5.77617 0.998047 5.85582ZM3.55615 8.15761C3.55615 8.2413 3.48759 8.30986 3.4039 8.30986H2.12636C2.04267 8.30986 1.9741 8.2413 1.9741 8.15761V6.87917C1.9741 6.79549 2.04166 6.72794 2.12535 6.72794H3.4039C3.48759 6.72794 3.55615 6.7965 3.55615 6.88018V8.15761ZM6.11022 8.15761C6.11022 8.2413 6.04166 8.30986 5.95797 8.30986H4.68043C4.59674 8.30986 4.52817 8.2413 4.52817 8.15761V6.88018C4.52817 6.7965 4.59674 6.72794 4.68043 6.72794H5.95897C6.04166 6.72794 6.11022 6.79549 6.11022 6.87917V8.15761Z" fill="#35B5B4"/>
<path d="M5.72137 7.03149H4.91774C4.8704 7.03149 4.83203 7.06987 4.83203 7.1172V7.91982C4.83203 7.96716 4.8704 8.00553 4.91774 8.00553H5.72137C5.7687 8.00553 5.80708 7.96716 5.80708 7.91982V7.1172C5.80708 7.06987 5.7687 7.03149 5.72137 7.03149Z" fill="#35B5B4"/>
<path d="M3.16668 7.03149H2.36305C2.31572 7.03149 2.27734 7.06987 2.27734 7.1172V7.91982C2.27734 7.96716 2.31572 8.00553 2.36305 8.00553H3.16668C3.21402 8.00553 3.25239 7.96716 3.25239 7.91982V7.1172C3.25239 7.06987 3.21402 7.03149 3.16668 7.03149Z" fill="#35B5B4"/>
<path d="M8.75604 7.04468H8.12282C8.07548 7.04468 8.03711 7.08305 8.03711 7.13038V9.24061C8.03711 9.28794 8.07548 9.32631 8.12282 9.32631H8.75604C8.80337 9.32631 8.84175 9.28794 8.84175 9.24061V7.13038C8.84175 7.08305 8.80337 7.04468 8.75604 7.04468Z" fill="#35B5B4"/>
<path d="M7.64761 7.04468H7.0154C6.96806 7.04468 6.92969 7.08305 6.92969 7.13038V9.24061C6.92969 9.28794 6.96806 9.32631 7.0154 9.32631H7.64761C7.69495 9.32631 7.73332 9.28794 7.73332 9.24061V7.13038C7.73332 7.08305 7.69495 7.04468 7.64761 7.04468Z" fill="#35B5B4"/>
</svg>
