<svg width="19" height="15" viewBox="0 0 19 15" fill="none" xmlns="http://www.w3.org/2000/svg">
<path d="M11.0879 9.25665C10.6152 9.57178 10.0661 9.73837 9.5 9.73837C8.93393 9.73837 8.38486 9.57178 7.91216 9.25665L0.126506 4.06605C0.0833105 4.03725 0.0412285 4.00723 0 3.97636V12.4817C0 13.4569 0.791357 14.2308 1.74908 14.2308H17.2509C18.226 14.2308 19 13.4394 19 12.4817V3.97632C18.9587 4.00727 18.9165 4.03736 18.8732 4.0662L11.0879 9.25665Z" fill="#35B5B4"/>
<path d="M0.744043 3.13916L8.5297 8.32979C8.82442 8.52629 9.16219 8.62452 9.49996 8.62452C9.83777 8.62452 10.1756 8.52625 10.4703 8.32979L18.256 3.13916C18.7219 2.82874 19 2.30921 19 1.74848C19 0.784344 18.2156 0 17.2515 0H1.74848C0.784381 3.71094e-05 0 0.784381 0 1.74941C0 2.30921 0.278172 2.82874 0.744043 3.13916Z" fill="#35B5B4"/>
</svg>
