<svg width="17" height="13" viewBox="0 0 17 13" fill="none" xmlns="http://www.w3.org/2000/svg">
<path d="M10.0047 8.35151C9.59329 8.62933 9.11546 8.7762 8.62281 8.7762C8.13019 8.7762 7.65237 8.62933 7.241 8.35151L0.46556 3.7754C0.427969 3.75001 0.391348 3.72354 0.355469 3.69632V11.1948C0.355469 12.0545 1.04414 12.7368 1.8776 12.7368H15.368C16.2166 12.7368 16.8901 12.0391 16.8901 11.1948V3.69629C16.8542 3.72357 16.8175 3.75011 16.7798 3.77553L10.0047 8.35151Z" fill="white"/>
<path d="M1.00297 2.95869L7.77841 7.53483C8.03489 7.70806 8.32884 7.79466 8.62278 7.79466C8.91675 7.79466 9.21073 7.70803 9.46721 7.53483L16.2427 2.95869C16.6481 2.68502 16.8902 2.22699 16.8902 1.73265C16.8902 0.882651 16.2076 0.191162 15.3685 0.191162H1.87708C1.03807 0.191195 0.355469 0.882684 0.355469 1.73347C0.355469 2.22699 0.597547 2.68502 1.00297 2.95869Z" fill="white"/>
</svg>
