<svg width="29" height="29" viewBox="0 0 29 29" fill="none" xmlns="http://www.w3.org/2000/svg">
<path d="M1.41999 16.1115H2.84028V26.0689C2.84028 27.6379 4.11428 28.9139 5.68086 28.9139H22.7243C24.2909 28.9139 25.5649 27.6379 25.5649 26.0689V16.1115H26.9852C27.2661 16.1115 27.5406 16.028 27.7741 15.8717C28.0076 15.7154 28.1896 15.4932 28.2971 15.2333C28.4046 14.9735 28.4327 14.6875 28.3779 14.4116C28.3231 14.1357 28.1879 13.8823 27.9893 13.6833L15.2067 0.880942C15.075 0.748728 14.9184 0.643837 14.7461 0.57227C14.5738 0.500704 14.3891 0.463867 14.2026 0.463867C14.0161 0.463867 13.8314 0.500704 13.6591 0.57227C13.4868 0.643837 13.3302 0.748728 13.1985 0.880942L0.415842 13.6833C0.217272 13.8823 0.0820516 14.1357 0.0272745 14.4116C-0.0275026 14.6875 0.000623438 14.9735 0.108097 15.2333C0.21557 15.4932 0.397565 15.7154 0.631075 15.8717C0.864585 16.028 1.13912 16.1115 1.41999 16.1115ZM14.2026 3.89804L22.7243 12.433V18.9565L22.7257 26.0689H5.68086V12.433L14.2026 3.89804Z" fill="white"/>
</svg>
