<svg width="12" height="13" viewBox="0 0 12 13" fill="none" xmlns="http://www.w3.org/2000/svg">
<path d="M8.29729 2.27821C8.14921 1.51776 7.57476 0.875622 6.85013 0.607952C6.26833 0.391675 5.64032 0.419513 5.07952 0.687182C5.04801 0.702172 5.02071 0.719303 4.9892 0.734292C4.985 0.734292 4.9808 0.734292 4.9766 0.738575C4.9598 0.74714 4.94299 0.759989 4.92619 0.768554C4.89469 0.785685 4.86318 0.804957 4.83377 0.824229C4.80227 0.843502 4.77286 0.864915 4.74346 0.884187C4.71195 0.907742 4.67835 0.929156 4.64684 0.954852C4.62164 0.974124 4.59853 0.993397 4.57543 1.01481C4.54182 1.04265 4.51032 1.07049 4.47881 1.10046C4.45991 1.11974 4.44101 1.13901 4.42 1.15828C4.3885 1.1904 4.35489 1.22466 4.32548 1.25893C4.31288 1.27177 4.30238 1.28676 4.29188 1.29961C2.7292 0.869198 1.07621 1.72146 0.511211 3.29964C0.0635692 4.55367 0.432972 5.90755 1.33876 6.75981C1.41647 6.83288 1.44378 6.94637 1.40754 7.04782L1.10955 7.88348C1.09774 7.91694 1.09931 7.95388 1.11402 7.986L1.2873 8.36261C1.31802 8.42953 1.28992 8.5093 1.22402 8.54061L0.923934 8.68408C0.858297 8.7154 0.829942 8.79517 0.86066 8.86209L1.00138 9.16803C1.0321 9.23495 1.00401 9.31471 0.938111 9.34603L0.638021 9.4895C0.572384 9.52082 0.544029 9.60059 0.574747 9.6675L0.715472 9.97345C0.74619 10.0404 0.718097 10.1201 0.652198 10.1515L0.282533 10.3281C0.251027 10.3431 0.22661 10.3704 0.214796 10.4036L0.0236621 10.9411C-0.00784347 11.0294 -0.00784347 11.126 0.0233996 11.2141L0.371536 12.1983C0.455026 12.4341 0.727549 12.5353 0.940212 12.4092L1.82657 11.8833C1.90612 11.8362 1.96703 11.7618 1.99854 11.6737L3.38793 7.78311C3.42416 7.68166 3.51658 7.6126 3.62239 7.60752C4.85478 7.54863 5.99082 6.75579 6.4382 5.49962C7.0116 3.8936 6.24706 2.12698 4.72849 1.45673L4.72429 1.45887C4.739 1.44388 4.7516 1.43104 4.7663 1.41605C4.7915 1.39035 4.81881 1.36894 4.84611 1.34538C4.86502 1.32825 4.88392 1.31326 4.90492 1.29613C4.93013 1.27686 4.95743 1.25759 4.98264 1.23831C5.00784 1.22118 5.03095 1.20405 5.05615 1.18906C5.08136 1.17407 5.10656 1.15908 5.13177 1.14409C5.17377 1.12054 5.21368 1.09698 5.25779 1.07557C5.71567 0.857153 6.23026 0.835739 6.70704 1.01133C7.19433 1.1912 7.5703 1.5638 7.77823 2.02419L8.29702 2.27901L8.29729 2.27821ZM4.64054 3.0127C4.52082 3.34675 4.15956 3.51806 3.8319 3.396C3.50424 3.27394 3.33621 2.90563 3.45593 2.57158C3.52314 2.38528 3.66597 2.25252 3.834 2.19042C3.79619 2.3296 3.76469 2.47093 3.75208 2.6144C3.74158 2.73218 3.8277 2.83711 3.94322 2.84781C4.05874 2.85852 4.16166 2.77072 4.17216 2.65295C4.18686 2.49663 4.22047 2.34245 4.27088 2.19256C4.59223 2.31676 4.75816 2.68079 4.64054 3.0127Z" fill="#35B5B4"/>
<path d="M11.9978 4.48367C11.987 4.61429 11.9377 4.73849 11.8558 4.83967C11.7738 4.94085 11.6638 5.01419 11.5399 5.04979L11.1642 5.15739L11.7754 7.37477C11.8206 7.53939 11.7998 7.71551 11.7177 7.86487C11.6357 8.01397 11.499 8.12371 11.3375 8.17002L10.4677 8.41948C10.3059 8.46552 10.1332 8.44438 9.98695 8.3606C9.84071 8.27708 9.73307 8.13763 9.68738 7.97301L9.45713 7.13735C9.41775 6.97594 9.32192 6.83434 9.18776 6.74012C9.05333 6.64564 8.88951 6.60442 8.72751 6.62449C8.63982 6.63948 8.55633 6.67321 8.4823 6.72353C8.40852 6.77412 8.34577 6.83996 8.29878 6.91679C8.25178 6.99307 8.2208 7.07873 8.2082 7.16786C8.19533 7.25726 8.20111 7.34827 8.225 7.435L8.46943 8.32205C8.51459 8.48667 8.49385 8.6628 8.41193 8.81189C8.32976 8.96098 8.19297 9.07099 8.03177 9.1173L7.16169 9.3665C7.00022 9.41281 6.82747 9.39166 6.68123 9.30788C6.53499 9.2241 6.42708 9.08491 6.38166 8.9203L5.92431 7.26181C5.897 7.16278 5.92536 7.05705 5.99651 6.98424C5.99677 6.98397 5.99729 6.98344 5.99756 6.98317C6.67309 6.29445 7.04512 5.37876 7.04512 4.40497C7.04512 3.90149 6.94588 3.41379 6.75632 2.96464C6.70407 2.84071 6.71588 2.69831 6.78835 2.58562L7.01545 2.23283C7.09946 2.10274 7.22706 2.00772 7.37461 1.96543C7.5219 1.92341 7.67943 1.93679 7.81779 2.00344L11.6378 3.84822C11.7542 3.90416 11.851 3.9949 11.9154 4.10839C11.9797 4.22215 12.0083 4.35278 11.9978 4.48367Z" fill="#35B5B4"/>
</svg>
