<svg width="161" height="90" viewBox="0 0 161 98" fill="none" xmlns="http://www.w3.org/2000/svg">
<g clip-path="url(#clip0_3839_762)">
<path d="M85.5065 62.6079H86.2055V64.5194C86.8331 63.0501 88.2454 62.1514 90.157 62.1514C92.2683 62.1514 93.809 63.3639 94.2227 65.247C94.6649 63.3639 96.2626 62.1514 98.5166 62.1514C101.17 62.1514 102.925 64.1057 102.925 67.0302V74.2342H102.226V67.0302C102.226 64.5194 100.742 62.8504 98.5023 62.8504C96.1342 62.8504 94.5508 64.5194 94.5508 67.0302V74.2342H93.8517V67.0302C93.8517 64.5194 92.3681 62.8504 90.1427 62.8504C87.7747 62.8504 86.1912 64.5194 86.1912 67.0302V74.2342H85.4922V62.6221L85.5065 62.6079Z" fill="#35B4B3"/>
<path d="M117.36 62.608H118.059V74.2201H117.36V71.1815C116.518 73.2928 114.521 74.6908 112.025 74.6908C108.501 74.6908 105.99 72.066 105.99 68.414C105.99 64.7621 108.501 62.1372 112.025 62.1372C114.535 62.1372 116.532 63.5352 117.36 65.6465V62.608ZM117.36 68.414C117.36 65.2043 115.02 62.8362 112.025 62.8362C109.029 62.8362 106.689 65.1758 106.689 68.414C106.689 71.6523 108.915 73.9918 112.025 73.9918C115.134 73.9918 117.36 71.6523 117.36 68.414Z" fill="#35B4B3"/>
<path d="M128.087 62.5365V63.3211C127.502 62.993 126.932 62.8361 126.304 62.8361C124.278 62.8361 122.98 64.6906 122.98 67.4866V74.2199H122.281V62.6079H122.98V64.6764C123.508 63.0929 124.649 62.1514 126.276 62.1514C126.903 62.1514 127.531 62.294 128.087 62.5508V62.5365Z" fill="#35B4B3"/>
<path d="M131.841 57.2583V67.7577L138.046 62.6078H139.145L132.412 68.1856L139.33 74.2199H138.289L131.855 68.6279V74.2199H131.156V57.2726H131.855L131.841 57.2583Z" fill="#35B4B3"/>
<path d="M151.813 70.6395L152.512 70.7536C151.77 73.0361 149.36 74.6767 146.806 74.6767C143.154 74.6767 140.529 72.0518 140.529 68.3999C140.529 64.7479 143.154 62.123 146.806 62.123C150.458 62.123 152.84 64.7479 152.84 68.3999V68.6281H141.228C141.328 71.738 143.625 73.9634 146.806 73.9634C149.032 73.9634 151.143 72.5654 151.828 70.6253L151.813 70.6395ZM152.113 67.9434C151.899 64.9476 149.745 62.8363 146.792 62.8363C143.839 62.8363 141.428 64.9476 141.214 67.9434H152.113Z" fill="#35B4B3"/>
<path d="M156.818 63.307H154.721V62.608H156.818V60.0117H157.517V62.608H160.769V63.307H157.517V71.8948C157.517 73.1074 158.216 73.9919 159.471 73.9919C159.942 73.9919 160.541 73.892 160.998 73.7636V74.4626C160.598 74.6053 159.956 74.6909 159.371 74.6909C157.845 74.6909 156.818 73.5782 156.818 71.9091V63.3213V63.307Z" fill="#35B4B3"/>
<path d="M16.819 18C22.5252 18 26.6764 19.5549 29.1871 23.4779V19.1127H38.8163V56.1601H36.5909C32.9675 56.1601 30.2998 54.1629 29.4724 50.9675C26.8761 55.4896 22.5109 57.2586 16.7334 57.2586C7.70335 57.2586 0 49.3412 0 37.5579C0 25.7747 7.70335 18 16.819 18ZM19.6293 49.4839C25.3355 49.4839 29.1871 44.6621 29.1871 37.6293C29.1871 30.5964 25.3355 25.7747 19.6293 25.7747C13.9231 25.7747 10.0001 30.5964 10.0001 37.6293C10.0001 44.6621 13.9231 49.4839 19.6293 49.4839Z" fill="#35B4B3"/>
<path d="M70.7574 69.0989V51.4097C68.1611 55.6323 63.8672 57.2586 58.318 57.2586C49.2737 57.2586 41.5703 49.327 41.5703 37.5579C41.5703 25.7889 49.2737 18 58.3893 18C64.0955 18 68.2467 19.5549 70.7574 23.4779V19.1127H80.3866V76.5169H78.1612C73.7104 76.5169 70.7574 73.5497 70.7574 69.1132V69.0989ZM61.1996 49.4839C66.9058 49.4839 70.7574 44.6621 70.7574 37.6293C70.7574 30.5964 66.9058 25.7747 61.1996 25.7747C55.4934 25.7747 51.5704 30.5964 51.5704 37.6293C51.5704 44.6621 55.4934 49.4839 61.1996 49.4839Z" fill="#35B4B3"/>
<path d="M101.255 18C106.961 18 111.113 19.5549 113.623 23.4779V19.1127H123.252V56.1601H121.027C117.404 56.1601 114.736 54.1629 113.909 50.9675C111.312 55.4896 106.947 57.2586 101.17 57.2586C92.1252 57.2586 84.4219 49.327 84.4219 37.5579C84.4219 25.7889 92.1395 18 101.255 18ZM104.065 49.4839C109.772 49.4839 113.623 44.6621 113.623 37.6293C113.623 30.5964 109.772 25.7747 104.065 25.7747C98.3592 25.7747 94.4362 30.5964 94.4362 37.6293C94.4362 44.6621 98.3592 49.4839 104.065 49.4839Z" fill="#35B4B3"/>
<path d="M137.434 34.5909V56.146H127.805V33.9204C127.805 25.3326 133.211 19.0986 142.47 19.0986H154.467C154.467 23.5495 151.571 26.5024 147.348 26.5024H144.538C139.431 26.5024 137.42 30.1258 137.42 34.5767L137.434 34.5909Z" fill="#35B4B3"/>
</g>
</svg>
