<svg width="12" height="13" viewBox="0 0 12 13" fill="none" xmlns="http://www.w3.org/2000/svg">
<g clip-path="url(#clip0_2547_30775)">
<path d="M4.90039 11.3074C4.90039 11.5784 5.02639 11.8124 5.23039 12.0064C5.43339 12.1994 5.71739 12.3584 6.04639 12.4844C6.70439 12.7354 7.56739 12.8644 8.40039 12.8644C9.23339 12.8644 10.0964 12.7354 10.7544 12.4844C11.0834 12.3584 11.3674 12.2004 11.5704 12.0064C11.7744 11.8124 11.9014 11.5784 11.9014 11.3074C11.9014 11.1184 11.7474 10.9644 11.5584 10.9644C11.3694 10.9644 11.2154 11.1184 11.2154 11.3074C11.2154 11.3634 11.1744 11.4494 11.0504 11.5534C10.9294 11.6544 10.7454 11.7584 10.5004 11.8514C10.0114 12.0384 9.29539 12.1784 8.40139 12.1784C7.50739 12.1784 6.79239 12.0384 6.30239 11.8514C6.05739 11.7574 5.87339 11.6544 5.75239 11.5534C5.62839 11.4494 5.58739 11.3634 5.58739 11.3074C5.58739 11.1184 5.43339 10.9644 5.24439 10.9644C5.05539 10.9644 4.90139 11.1184 4.90139 11.3074H4.90039Z" fill="#35B5B4"/>
<path d="M8.40078 12.9643C7.52578 12.9643 6.65478 12.8233 6.01078 12.5773C5.64978 12.4393 5.36478 12.2713 5.16178 12.0783C4.92178 11.8503 4.80078 11.5903 4.80078 11.3063C4.80078 11.0623 4.99978 10.8633 5.24378 10.8633C5.48778 10.8633 5.68678 11.0623 5.68678 11.3063C5.68678 11.3093 5.68778 11.3693 5.81578 11.4753C5.93478 11.5753 6.11578 11.6723 6.33778 11.7573C6.87878 11.9643 7.61078 12.0783 8.40078 12.0783C9.19078 12.0783 9.92278 11.9643 10.4638 11.7573C10.6858 11.6723 10.8668 11.5753 10.9858 11.4753C11.1138 11.3693 11.1148 11.3083 11.1148 11.3063C11.1148 11.0623 11.3138 10.8633 11.5578 10.8633C11.8018 10.8633 12.0008 11.0623 12.0008 11.3063C12.0008 11.5903 11.8788 11.8493 11.6388 12.0783C11.4368 12.2713 11.1508 12.4393 10.7898 12.5773C10.1458 12.8233 9.27478 12.9643 8.39978 12.9643H8.40078ZM5.24378 11.0643C5.10978 11.0643 5.00078 11.1733 5.00078 11.3073C5.00078 11.5343 5.10178 11.7453 5.29978 11.9343C5.48278 12.1093 5.74678 12.2623 6.08178 12.3913C6.70378 12.6283 7.54878 12.7653 8.39978 12.7653C9.25078 12.7653 10.0958 12.6293 10.7178 12.3913C11.0538 12.2633 11.3168 12.1093 11.4998 11.9343C11.6988 11.7453 11.7988 11.5343 11.7988 11.3073C11.7988 11.1733 11.6898 11.0643 11.5558 11.0643C11.4218 11.0643 11.3128 11.1733 11.3128 11.3073C11.3128 11.3783 11.2778 11.4913 11.1118 11.6303C10.9758 11.7433 10.7758 11.8523 10.5338 11.9453C9.97078 12.1603 9.21278 12.2793 8.39978 12.2793C7.58678 12.2793 6.82878 12.1613 6.26578 11.9453C6.02378 11.8523 5.82378 11.7433 5.68678 11.6303C5.52078 11.4913 5.48578 11.3783 5.48578 11.3073C5.48578 11.1733 5.37678 11.0643 5.24278 11.0643H5.24378Z" fill="#35B5B4"/>
<path d="M4.90139 9.89296C4.90139 10.152 5.02939 10.374 5.23439 10.557C5.43739 10.739 5.72139 10.888 6.04939 11.006C6.70739 11.243 7.56939 11.364 8.40139 11.364C9.23339 11.364 10.0954 11.243 10.7534 11.006C11.0824 10.888 11.3654 10.739 11.5684 10.557C11.7724 10.374 11.9014 10.152 11.9014 9.89296C11.9014 9.70596 11.7424 9.56396 11.5584 9.56396C11.3744 9.56396 11.2154 9.70596 11.2154 9.89296C11.2154 9.94096 11.1774 10.02 11.0524 10.118C10.9314 10.213 10.7474 10.311 10.5014 10.399C10.0114 10.575 9.29439 10.707 8.40139 10.707C7.50839 10.707 6.79039 10.575 6.30039 10.399C6.05539 10.311 5.87039 10.213 5.74939 10.118C5.62439 10.02 5.58639 9.94096 5.58639 9.89296C5.58639 9.70596 5.42739 9.56396 5.24339 9.56396C5.05939 9.56396 4.90039 9.70596 4.90039 9.89296H4.90139Z" fill="#35B5B4"/>
<path d="M8.40078 11.4639C7.52678 11.4639 6.65778 11.3309 6.01478 11.0999C5.65478 10.9709 5.36978 10.8129 5.16678 10.6309C4.92378 10.4129 4.80078 10.1649 4.80078 9.89189C4.80078 9.65589 4.99978 9.46289 5.24378 9.46289C5.48778 9.46289 5.68678 9.65489 5.68678 9.89189C5.68678 9.89189 5.69278 9.94589 5.81178 10.0379C5.93178 10.1319 6.11178 10.2239 6.33478 10.3039C6.87678 10.4989 7.61078 10.6059 8.40178 10.6059C9.19278 10.6059 9.92678 10.4989 10.4688 10.3039C10.6918 10.2239 10.8718 10.1319 10.9918 10.0379C11.1108 9.94489 11.1168 9.89189 11.1168 9.89089C11.1168 9.65489 11.3158 9.46289 11.5598 9.46289C11.8038 9.46289 12.0028 9.65489 12.0028 9.89189C12.0028 10.1649 11.8798 10.4129 11.6368 10.6309C11.4338 10.8129 11.1488 10.9709 10.7888 11.0999C10.1468 11.3309 9.27678 11.4639 8.40278 11.4639H8.40078ZM5.24378 9.66389C5.10978 9.66389 5.00078 9.76689 5.00078 9.89289C5.00078 10.1059 5.10178 10.3049 5.29978 10.4829C5.48278 10.6469 5.74678 10.7919 6.08178 10.9129C6.70378 11.1369 7.54878 11.2649 8.39978 11.2649C9.25078 11.2649 10.0958 11.1369 10.7178 10.9129C11.0538 10.7919 11.3168 10.6479 11.4998 10.4829C11.6988 10.3049 11.7998 10.1059 11.7998 9.89289C11.7998 9.76689 11.6908 9.66389 11.5568 9.66389C11.4228 9.66389 11.3138 9.76689 11.3138 9.89289C11.3138 9.95989 11.2788 10.0659 11.1128 10.1969C10.9768 10.3039 10.7768 10.4059 10.5338 10.4929C9.97078 10.6949 9.21278 10.8069 8.39978 10.8069C7.58678 10.8069 6.82878 10.6949 6.26578 10.4929C6.02378 10.4059 5.82378 10.3029 5.68678 10.1969C5.52078 10.0669 5.48578 9.95989 5.48578 9.89289C5.48578 9.76689 5.37678 9.66389 5.24278 9.66389H5.24378Z" fill="#35B5B4"/>
<path d="M4.90039 8.41423C4.90039 8.68423 5.02639 8.91723 5.23139 9.11023C5.43439 9.30223 5.71839 9.46023 6.04739 9.58523C6.70539 9.83523 7.56839 9.96323 8.40139 9.96323C9.23439 9.96323 10.0964 9.83523 10.7554 9.58523C11.0844 9.46023 11.3684 9.30223 11.5714 9.11023C11.7754 8.91623 11.9024 8.68323 11.9024 8.41423C11.9024 8.14523 11.7764 7.91123 11.5714 7.71823C11.3684 7.52623 11.0844 7.36823 10.7554 7.24323C10.0974 6.99323 9.23439 6.86523 8.40139 6.86523C7.56839 6.86523 6.70639 6.99323 6.04739 7.24323C5.71839 7.36823 5.43439 7.52623 5.23139 7.71823C5.02739 7.91223 4.90039 8.14523 4.90039 8.41423ZM5.58639 8.41423C5.58639 8.35823 5.62739 8.27323 5.75139 8.17023C5.87239 8.07023 6.05639 7.96623 6.30139 7.87323C6.79039 7.68723 7.50639 7.54823 8.40039 7.54823C9.29439 7.54823 10.0104 7.68723 10.4994 7.87323C10.7444 7.96623 10.9284 8.07023 11.0494 8.17023C11.1744 8.27323 11.2144 8.35923 11.2144 8.41423C11.2144 8.46923 11.1734 8.55523 11.0494 8.65823C10.9284 8.75823 10.7444 8.86224 10.4994 8.95524C10.0104 9.14124 9.29439 9.28024 8.40039 9.28024C7.50639 9.28024 6.79039 9.14124 6.30139 8.95524C6.05639 8.86224 5.87239 8.75823 5.75139 8.65823C5.62639 8.55523 5.58639 8.46923 5.58639 8.41423Z" fill="#35B5B4"/>
<path d="M8.40078 10.0642C7.52578 10.0642 6.65478 9.92416 6.01178 9.67916C5.65078 9.54216 5.36578 9.37516 5.16278 9.18316C4.92278 8.95516 4.80078 8.69716 4.80078 8.41416C4.80078 8.13116 4.92278 7.87316 5.16278 7.64516C5.36578 7.45316 5.65078 7.28616 6.01178 7.14916C6.65578 6.90416 7.52578 6.76416 8.40078 6.76416C9.27578 6.76416 10.1468 6.90416 10.7898 7.14916C11.1508 7.28616 11.4358 7.45316 11.6388 7.64516C11.8788 7.87316 12.0008 8.13116 12.0008 8.41416C12.0008 8.69716 11.8788 8.95516 11.6388 9.18316C11.4358 9.37516 11.1508 9.54216 10.7898 9.67916C10.1458 9.92416 9.27478 10.0642 8.40078 10.0642ZM8.40078 6.96416C7.54978 6.96416 6.70478 7.10016 6.08278 7.33616C5.74678 7.46416 5.48378 7.61716 5.30078 7.79016C5.10178 7.97816 5.00178 8.18816 5.00178 8.41416C5.00178 8.64016 5.10278 8.84916 5.30078 9.03816C5.48378 9.21216 5.74778 9.36516 6.08278 9.49216C6.70478 9.72816 7.54978 9.86416 8.40078 9.86416C9.25178 9.86416 10.0968 9.72816 10.7188 9.49216C11.0548 9.36416 11.3178 9.21116 11.5018 9.03816C11.7008 8.85016 11.8008 8.64016 11.8008 8.41416C11.8008 8.18816 11.6998 7.97916 11.5018 7.79016C11.3188 7.61616 11.0548 7.46316 10.7198 7.33616C10.0978 7.10016 9.25278 6.96416 8.40178 6.96416H8.40078ZM8.40078 9.38116C7.58778 9.38116 6.82978 9.26316 6.26678 9.04916C6.02478 8.95716 5.82478 8.84816 5.68778 8.73616C5.52178 8.59816 5.48678 8.48516 5.48678 8.41516C5.48678 8.34516 5.52178 8.23216 5.68778 8.09416C5.82378 7.98116 6.02378 7.87316 6.26678 7.78116C6.82978 7.56716 7.58778 7.44916 8.40078 7.44916C9.21378 7.44916 9.97178 7.56716 10.5348 7.78116C10.7768 7.87316 10.9768 7.98116 11.1138 8.09416C11.2798 8.23216 11.3148 8.34516 11.3148 8.41516C11.3148 8.48516 11.2798 8.59816 11.1138 8.73616C10.9778 8.84916 10.7778 8.95716 10.5348 9.04916C9.97178 9.26316 9.21378 9.38116 8.40078 9.38116ZM8.40078 7.64816C7.61178 7.64816 6.87878 7.76116 6.33778 7.96716C6.11578 8.05116 5.93478 8.14816 5.81578 8.24716C5.71378 8.33216 5.68678 8.39316 5.68678 8.41416C5.68678 8.43516 5.71378 8.49716 5.81578 8.58116C5.93478 8.68016 6.11578 8.77716 6.33778 8.86116C6.87878 9.06716 7.61178 9.18016 8.40078 9.18016C9.18978 9.18016 9.92278 9.06716 10.4638 8.86116C10.6858 8.77716 10.8668 8.68016 10.9858 8.58116C11.0878 8.49616 11.1148 8.43516 11.1148 8.41416C11.1148 8.39316 11.0878 8.33116 10.9858 8.24716C10.8668 8.14816 10.6858 8.05116 10.4638 7.96716C9.92278 7.76116 9.18978 7.64816 8.40078 7.64816Z" fill="#35B5B4"/>
<path d="M11.1992 11.3219C11.1992 11.5139 11.3592 11.6649 11.5492 11.6649C11.7392 11.6649 11.8992 11.5139 11.8992 11.3219V8.40794C11.8992 8.21594 11.7392 8.06494 11.5492 8.06494C11.3592 8.06494 11.1992 8.21594 11.1992 8.40794V11.3219Z" fill="#35B5B4"/>
<path d="M11.5496 11.7646C11.3016 11.7646 11.0996 11.5656 11.0996 11.3216V8.4076C11.0996 8.1636 11.3016 7.9646 11.5496 7.9646C11.7976 7.9646 11.9996 8.1636 11.9996 8.4076V11.3216C11.9996 11.5656 11.7976 11.7646 11.5496 11.7646ZM11.5496 8.1646C11.4116 8.1646 11.2996 8.2736 11.2996 8.4076V11.3216C11.2996 11.4556 11.4116 11.5646 11.5496 11.5646C11.6876 11.5646 11.7996 11.4556 11.7996 11.3216V8.4076C11.7996 8.2736 11.6876 8.1646 11.5496 8.1646Z" fill="#35B5B4"/>
<path d="M4.90039 11.3219C4.90039 11.5139 5.06039 11.6649 5.25039 11.6649C5.44039 11.6649 5.60039 11.5139 5.60039 11.3219V8.40794C5.60039 8.21594 5.44039 8.06494 5.25039 8.06494C5.06039 8.06494 4.90039 8.21594 4.90039 8.40794V11.3219Z" fill="#35B5B4"/>
<path d="M5.25078 11.7646C5.00278 11.7646 4.80078 11.5656 4.80078 11.3216V8.4076C4.80078 8.1636 5.00278 7.9646 5.25078 7.9646C5.49878 7.9646 5.70078 8.1636 5.70078 8.4076V11.3216C5.70078 11.5656 5.49878 11.7646 5.25078 11.7646ZM5.25078 8.1646C5.11278 8.1646 5.00078 8.2736 5.00078 8.4076V11.3216C5.00078 11.4556 5.11278 11.5646 5.25078 11.5646C5.38878 11.5646 5.50078 11.4556 5.50078 11.3216V8.4076C5.50078 8.2736 5.38878 8.1646 5.25078 8.1646Z" fill="#35B5B4"/>
<path d="M0.0996094 5.50633C0.0996094 5.77733 0.225609 6.01133 0.429609 6.20533C0.632609 6.39833 0.916609 6.55733 1.24561 6.68333C1.90361 6.93533 2.76661 7.06333 3.59961 7.06333C4.43261 7.06333 5.29561 6.93433 5.95361 6.68333C6.28261 6.55733 6.56661 6.39933 6.76961 6.20533C6.97361 6.01033 7.09961 5.77633 7.09961 5.50633C7.09961 5.31733 6.94561 5.16333 6.75661 5.16333C6.56761 5.16333 6.41361 5.31733 6.41361 5.50633C6.41361 5.56233 6.37261 5.64833 6.24861 5.75233C6.12761 5.85333 5.94361 5.95733 5.69861 6.05033C5.20961 6.23733 4.49361 6.37733 3.59961 6.37733C2.70561 6.37733 1.99061 6.23733 1.50061 6.05033C1.25561 5.95633 1.07161 5.85233 0.950609 5.75233C0.826609 5.64833 0.785609 5.56233 0.785609 5.50633C0.785609 5.31733 0.631609 5.16333 0.442609 5.16333C0.253609 5.16333 0.0996094 5.31733 0.0996094 5.50633Z" fill="#35B5B4"/>
<path d="M3.6 7.1635C2.725 7.1635 1.854 7.0225 1.21 6.7765C0.849 6.6385 0.564 6.4705 0.361 6.2775C0.121 6.0495 0 5.7895 0 5.5055C0 5.2615 0.199 5.0625 0.443 5.0625C0.687 5.0625 0.886 5.2615 0.886 5.5055C0.886 5.5265 0.913 5.5895 1.015 5.6745C1.134 5.7735 1.315 5.8715 1.537 5.9565C2.078 6.1635 2.81 6.2765 3.6 6.2765C4.39 6.2765 5.122 6.1625 5.663 5.9565C5.885 5.8715 6.066 5.7745 6.185 5.6745C6.287 5.5895 6.314 5.5265 6.314 5.5055C6.314 5.2615 6.513 5.0625 6.757 5.0625C7.001 5.0625 7.2 5.2615 7.2 5.5055C7.2 5.7885 7.078 6.0485 6.838 6.2775C6.636 6.4705 6.35 6.6385 5.989 6.7765C5.345 7.0225 4.474 7.1635 3.599 7.1635H3.6ZM0.443 5.2635C0.309 5.2635 0.2 5.3725 0.2 5.5065C0.2 5.7335 0.301 5.9445 0.499 6.1335C0.682 6.3085 0.946 6.4615 1.281 6.5905C1.903 6.8285 2.748 6.9645 3.599 6.9645C4.45 6.9645 5.295 6.8285 5.917 6.5905C6.253 6.4625 6.516 6.3085 6.699 6.1335C6.898 5.9445 6.998 5.7335 6.998 5.5065C6.998 5.3725 6.889 5.2635 6.755 5.2635C6.621 5.2635 6.512 5.3725 6.512 5.5065C6.512 5.5775 6.477 5.6905 6.311 5.8295C6.175 5.9425 5.975 6.0515 5.732 6.1445C5.169 6.3595 4.411 6.4785 3.598 6.4785C2.785 6.4785 2.027 6.3605 1.464 6.1445C1.222 6.0515 1.022 5.9425 0.885 5.8295C0.719 5.6905 0.684 5.5775 0.684 5.5065C0.684 5.3725 0.575 5.2635 0.441 5.2635H0.443Z" fill="#35B5B4"/>
<path d="M0.0996094 4.10643C0.0996094 4.37743 0.225609 4.61143 0.429609 4.80543C0.632609 4.99843 0.916609 5.15743 1.24561 5.28343C1.90361 5.53543 2.76661 5.66343 3.59961 5.66343C4.43261 5.66343 5.29561 5.53443 5.95361 5.28343C6.28261 5.15743 6.56661 4.99943 6.76961 4.80543C6.97361 4.61043 7.09961 4.37643 7.09961 4.10643C7.09961 3.91743 6.94561 3.76343 6.75661 3.76343C6.56761 3.76343 6.41361 3.91743 6.41361 4.10643C6.41361 4.16243 6.37261 4.24843 6.24861 4.35243C6.12761 4.45343 5.94361 4.55743 5.69861 4.65043C5.20961 4.83743 4.49361 4.97743 3.59961 4.97743C2.70561 4.97743 1.99061 4.83743 1.50061 4.65043C1.25561 4.55643 1.07161 4.45243 0.950609 4.35243C0.826609 4.24843 0.785609 4.16243 0.785609 4.10643C0.785609 3.91743 0.631609 3.76343 0.442609 3.76343C0.253609 3.76343 0.0996094 3.91743 0.0996094 4.10643Z" fill="#35B5B4"/>
<path d="M3.6 5.76335C2.725 5.76335 1.854 5.62235 1.21 5.37635C0.849 5.23835 0.564 5.07035 0.361 4.87735C0.121 4.64935 0 4.38935 0 4.10535C0 3.86135 0.199 3.66235 0.443 3.66235C0.687 3.66235 0.886 3.86135 0.886 4.10535C0.886 4.12635 0.913 4.18935 1.015 4.27435C1.134 4.37335 1.315 4.47135 1.537 4.55635C2.078 4.76335 2.81 4.87635 3.6 4.87635C4.39 4.87635 5.122 4.76235 5.663 4.55635C5.885 4.47135 6.066 4.37435 6.185 4.27435C6.287 4.18935 6.314 4.12635 6.314 4.10535C6.314 3.86135 6.513 3.66235 6.757 3.66235C7.001 3.66235 7.2 3.86135 7.2 4.10535C7.2 4.38835 7.078 4.64835 6.838 4.87735C6.636 5.07035 6.35 5.23835 5.989 5.37635C5.345 5.62235 4.474 5.76335 3.599 5.76335H3.6ZM0.443 3.86335C0.309 3.86335 0.2 3.97235 0.2 4.10635C0.2 4.33335 0.301 4.54435 0.499 4.73335C0.682 4.90835 0.946 5.06135 1.281 5.19035C1.903 5.42835 2.748 5.56435 3.599 5.56435C4.45 5.56435 5.295 5.42835 5.917 5.19035C6.253 5.06235 6.516 4.90835 6.699 4.73335C6.898 4.54435 6.998 4.33335 6.998 4.10635C6.998 3.97235 6.889 3.86335 6.755 3.86335C6.621 3.86335 6.512 3.97235 6.512 4.10635C6.512 4.17735 6.477 4.29035 6.311 4.42935C6.175 4.54235 5.975 4.65135 5.732 4.74435C5.169 4.95935 4.411 5.07835 3.598 5.07835C2.785 5.07835 2.027 4.96035 1.464 4.74435C1.222 4.65135 1.022 4.54235 0.885 4.42935C0.719 4.29035 0.684 4.17735 0.684 4.10635C0.684 3.97235 0.575 3.86335 0.441 3.86335H0.443Z" fill="#35B5B4"/>
<path d="M3.54656 9.96448C2.72756 9.96448 1.87756 9.83548 1.22956 9.58348C0.905563 9.45748 0.626563 9.29948 0.426563 9.10548C0.225563 8.91048 0.101562 8.67648 0.101562 8.40648C0.101562 8.21848 0.251563 8.06348 0.440563 8.06348C0.629563 8.06348 0.779563 8.21848 0.779563 8.40648C0.779563 8.46348 0.820563 8.54948 0.942563 8.65348C1.06156 8.75448 1.24256 8.85748 1.48356 8.95148C1.96456 9.13848 2.66856 9.27848 3.54656 9.27848C3.80356 9.27848 4.02656 9.26748 4.22756 9.24648C4.41356 9.22548 4.58156 9.36448 4.60056 9.55148C4.61956 9.73748 4.48656 9.90848 4.29956 9.92848M3.54656 9.96448C3.82556 9.96448 4.07256 9.95348 4.29956 9.92848L3.54656 9.96448Z" fill="#35B5B4"/>
<path d="M3.54595 10.0646C2.68495 10.0646 1.82695 9.9236 1.19295 9.6776C0.837953 9.5396 0.555953 9.3716 0.356953 9.1786C0.120953 8.9506 0.00195312 8.6906 0.00195312 8.4076C0.00195312 8.1636 0.198953 7.9646 0.440953 7.9646C0.682953 7.9646 0.879953 8.1636 0.879953 8.4076C0.879953 8.4306 0.906953 8.4926 1.00695 8.5776C1.12395 8.6766 1.30095 8.7736 1.51895 8.8586C2.04995 9.0646 2.76995 9.1786 3.54595 9.1786C3.79895 9.1786 4.01795 9.1686 4.21595 9.1476C4.33095 9.1346 4.44495 9.1686 4.53595 9.2416C4.62895 9.3166 4.68695 9.4226 4.69895 9.5416C4.72395 9.7836 4.54895 10.0026 4.30895 10.0286C4.08195 10.0536 3.83295 10.0656 3.54595 10.0656V10.0646ZM4.28795 9.8296C4.41895 9.8156 4.51395 9.6956 4.49995 9.5626C4.49295 9.4976 4.46095 9.4396 4.40995 9.3976C4.36095 9.3576 4.29895 9.3396 4.23695 9.3466C4.03095 9.3686 3.80495 9.3796 3.54495 9.3796C2.74495 9.3796 1.99895 9.2616 1.44495 9.0456C1.20695 8.9526 1.00995 8.8446 0.875953 8.7306C0.711953 8.5916 0.677953 8.4786 0.677953 8.4076C0.677953 8.2736 0.570953 8.1646 0.438953 8.1646C0.306953 8.1646 0.199953 8.2736 0.199953 8.4076C0.199953 8.6346 0.298953 8.8456 0.494953 9.0346C0.674953 9.2096 0.933953 9.3626 1.26495 9.4916C1.87695 9.7296 2.70795 9.8656 3.54495 9.8656C3.82495 9.8656 4.06795 9.8536 4.28695 9.8306L4.28795 9.8296Z" fill="#35B5B4"/>
<path d="M0.0996094 9.89296C0.0996094 10.151 0.225609 10.374 0.426609 10.557C0.626609 10.739 0.905609 10.888 1.22961 11.007C1.87661 11.244 2.72561 11.365 3.54461 11.365C3.82361 11.365 4.06961 11.354 4.29661 11.331C4.47861 11.312 4.61861 11.153 4.59761 10.969C4.57761 10.787 4.40661 10.656 4.22461 10.678C4.02361 10.698 3.80161 10.708 3.54461 10.708C2.66561 10.708 1.96061 10.576 1.47961 10.4C1.23861 10.312 1.05761 10.214 0.938609 10.119C0.815609 10.021 0.778609 9.94196 0.778609 9.89296C0.778609 9.70696 0.622609 9.56396 0.439609 9.56396C0.256609 9.56396 0.100609 9.70696 0.100609 9.89296H0.0996094Z" fill="#35B5B4"/>
<path d="M3.545 11.4639C2.685 11.4639 1.829 11.3309 1.196 11.0999C0.841 10.9699 0.56 10.8119 0.36 10.6299C0.121 10.4119 0 10.1639 0 9.89189C0 9.65589 0.197 9.46289 0.439 9.46289C0.681 9.46289 0.878 9.65489 0.878 9.89189C0.878 9.89189 0.883 9.94589 1.001 10.0399C1.118 10.1329 1.296 10.2249 1.514 10.3049C2.046 10.4999 2.768 10.6069 3.545 10.6069C3.798 10.6069 4.017 10.5969 4.215 10.5769C4.33 10.5629 4.445 10.5959 4.537 10.6689C4.628 10.7409 4.685 10.8429 4.697 10.9559C4.709 11.0679 4.677 11.1789 4.606 11.2669C4.533 11.3579 4.424 11.4159 4.307 11.4279C4.081 11.4509 3.832 11.4619 3.545 11.4619V11.4639ZM0.439 9.66389C0.307 9.66389 0.2 9.76689 0.2 9.89289C0.2 10.1059 0.299 10.3049 0.495 10.4829C0.675 10.6469 0.934 10.7919 1.265 10.9129C1.877 11.1369 2.708 11.2649 3.545 11.2649C3.825 11.2649 4.068 11.2539 4.287 11.2319C4.351 11.2249 4.411 11.1929 4.451 11.1439C4.489 11.0969 4.506 11.0389 4.499 10.9809C4.492 10.9209 4.462 10.8669 4.413 10.8279C4.363 10.7879 4.3 10.7699 4.237 10.7779C4.03 10.7989 3.804 10.8089 3.545 10.8089C2.745 10.8089 1.999 10.6969 1.445 10.4949C1.206 10.4079 1.01 10.3049 0.876 10.1989C0.712 10.0679 0.678 9.96189 0.678 9.89489C0.678 9.76889 0.571 9.66589 0.439 9.66589V9.66389Z" fill="#35B5B4"/>
<path d="M0.0996094 6.99257C0.0996094 7.25057 0.225609 7.47357 0.426609 7.65657C0.626609 7.83857 0.905609 7.98757 1.22961 8.10657C1.87661 8.34357 2.72561 8.46457 3.54461 8.46457C3.82361 8.46457 4.06961 8.45357 4.29661 8.43057C4.47861 8.41157 4.61861 8.25257 4.59761 8.06857C4.57761 7.88457 4.40561 7.75757 4.22461 7.77757C4.02361 7.79757 3.80061 7.80757 3.54361 7.80757C2.66461 7.80757 1.95961 7.67557 1.47861 7.49957C1.23761 7.41157 1.05661 7.31357 0.937609 7.21857C0.814609 7.12057 0.777609 7.04157 0.777609 6.99257C0.777609 6.80657 0.621609 6.66357 0.438609 6.66357C0.255609 6.66357 0.0996094 6.80657 0.0996094 6.99257Z" fill="#35B5B4"/>
<path d="M3.545 8.5635C2.685 8.5635 1.829 8.4305 1.196 8.1995C0.841 8.0695 0.56 7.9115 0.36 7.7295C0.121 7.5115 0 7.2635 0 6.9915C0 6.7555 0.197 6.5625 0.439 6.5625C0.681 6.5625 0.878 6.7545 0.878 6.9915C0.878 6.9915 0.883 7.0455 1.001 7.1395C1.118 7.2325 1.296 7.3245 1.514 7.4045C2.046 7.5995 2.768 7.7065 3.545 7.7065C3.798 7.7065 4.017 7.6965 4.216 7.6765C4.329 7.6645 4.442 7.6955 4.534 7.7665C4.627 7.8385 4.686 7.9415 4.699 8.0565C4.711 8.1685 4.679 8.2795 4.608 8.3675C4.535 8.4585 4.426 8.5165 4.309 8.5285C4.083 8.5515 3.834 8.5625 3.547 8.5625L3.545 8.5635ZM0.439 6.7635C0.307 6.7635 0.2 6.8665 0.2 6.9925C0.2 7.2055 0.299 7.4045 0.495 7.5825C0.675 7.7465 0.934 7.8915 1.265 8.0125C1.876 8.2365 2.708 8.3645 3.545 8.3645C3.825 8.3645 4.068 8.3535 4.287 8.3315C4.351 8.3245 4.411 8.2925 4.451 8.2435C4.489 8.1965 4.506 8.1385 4.499 8.0805C4.492 8.0195 4.461 7.9645 4.411 7.9265C4.361 7.8875 4.299 7.8705 4.236 7.8775C4.03 7.8985 3.804 7.9085 3.544 7.9085C2.744 7.9085 1.998 7.7965 1.444 7.5945C1.205 7.5075 1.009 7.4045 0.875 7.2985C0.711 7.1675 0.677 7.0615 0.677 6.9945C0.677 6.8685 0.57 6.7655 0.438 6.7655L0.439 6.7635Z" fill="#35B5B4"/>
<path d="M0.0996094 2.61394C0.0996094 2.88394 0.225609 3.11694 0.430609 3.30994C0.633609 3.50194 0.917609 3.65994 1.24661 3.78494C1.90461 4.03494 2.76761 4.16294 3.60061 4.16294C4.43361 4.16294 5.29561 4.03494 5.95461 3.78494C6.28361 3.65994 6.56761 3.50194 6.77061 3.30994C6.97461 3.11594 7.10161 2.88294 7.10161 2.61394C7.10161 2.34494 6.97561 2.11094 6.77061 1.91794C6.56761 1.72594 6.28361 1.56794 5.95461 1.44294C5.29661 1.19294 4.43361 1.06494 3.60061 1.06494C2.76761 1.06494 1.90561 1.19294 1.24661 1.44294C0.917609 1.56794 0.633609 1.72594 0.430609 1.91794C0.226609 2.11194 0.0996094 2.34494 0.0996094 2.61394ZM0.785609 2.61394C0.785609 2.55794 0.826609 2.47294 0.950609 2.36994C1.07161 2.26994 1.25561 2.16594 1.50061 2.07294C1.98961 1.88694 2.70561 1.74794 3.59961 1.74794C4.49361 1.74794 5.20961 1.88694 5.69861 2.07294C5.94361 2.16594 6.12761 2.26994 6.24861 2.36994C6.37361 2.47294 6.41361 2.55894 6.41361 2.61394C6.41361 2.66894 6.37261 2.75494 6.24861 2.85794C6.12761 2.95794 5.94361 3.06194 5.69861 3.15494C5.20961 3.34094 4.49361 3.47994 3.59961 3.47994C2.70561 3.47994 1.99061 3.34094 1.50061 3.15494C1.25561 3.06194 1.07161 2.95794 0.950609 2.85794C0.825609 2.75494 0.785609 2.66894 0.785609 2.61394Z" fill="#35B5B4"/>
<path d="M3.6 4.26387C2.725 4.26387 1.854 4.12387 1.211 3.87887C0.85 3.74187 0.565 3.57487 0.362 3.38287C0.122 3.15487 0 2.89687 0 2.61387C0 2.33087 0.122 2.07287 0.362 1.84487C0.565 1.65287 0.85 1.48587 1.211 1.34887C1.854 1.10387 2.725 0.963867 3.6 0.963867C4.475 0.963867 5.346 1.10387 5.989 1.34887C6.35 1.48587 6.635 1.65287 6.838 1.84487C7.078 2.07187 7.2 2.33087 7.2 2.61387C7.2 2.89687 7.078 3.15487 6.838 3.38287C6.635 3.57487 6.35 3.74187 5.989 3.87887C5.345 4.12387 4.475 4.26387 3.6 4.26387ZM3.6 1.16387C2.748 1.16387 1.904 1.29987 1.282 1.53587C0.946 1.66387 0.683 1.81687 0.5 1.98987C0.301 2.17787 0.201 2.38787 0.201 2.61387C0.201 2.83987 0.302 3.04887 0.5 3.23787C0.683 3.41187 0.947 3.56487 1.282 3.69187C1.904 3.92787 2.749 4.06387 3.6 4.06387C4.451 4.06387 5.296 3.92787 5.918 3.69187C6.254 3.56387 6.517 3.41087 6.7 3.23787C6.899 3.04987 7 2.83987 7 2.61387C7 2.38787 6.899 2.17887 6.701 1.98987C6.518 1.81587 6.255 1.66287 5.919 1.53587C5.297 1.29987 4.452 1.16387 3.601 1.16387H3.6ZM3.6 3.58087C2.787 3.58087 2.029 3.46287 1.466 3.24887C1.224 3.15687 1.024 3.04787 0.887 2.93587C0.721 2.79787 0.686 2.68487 0.686 2.61487C0.686 2.54487 0.721 2.43187 0.887 2.29387C1.023 2.18087 1.223 2.07287 1.466 1.98087C2.029 1.76687 2.787 1.64887 3.6 1.64887C4.413 1.64887 5.171 1.76687 5.734 1.98087C5.976 2.07287 6.176 2.18187 6.313 2.29387C6.479 2.43187 6.514 2.54487 6.514 2.61487C6.514 2.68487 6.479 2.79787 6.313 2.93587C6.177 3.04887 5.977 3.15687 5.735 3.24887C5.172 3.46287 4.414 3.58087 3.601 3.58087H3.6ZM3.6 1.84787C2.81 1.84787 2.078 1.96087 1.537 2.16687C1.315 2.25087 1.134 2.34787 1.015 2.44687C0.913 2.53187 0.886 2.59287 0.886 2.61387C0.886 2.63487 0.913 2.69687 1.015 2.78087C1.134 2.87987 1.315 2.97687 1.537 3.06087C2.078 3.26687 2.811 3.37987 3.6 3.37987C4.389 3.37987 5.122 3.26687 5.663 3.06087C5.885 2.97587 6.066 2.87987 6.185 2.78087C6.287 2.69587 6.314 2.63487 6.314 2.61387C6.314 2.59287 6.287 2.53087 6.185 2.44687C6.066 2.34787 5.885 2.25087 5.663 2.16687C5.122 1.96087 4.389 1.84787 3.6 1.84787Z" fill="#35B5B4"/>
<path d="M0.0996094 9.82365C0.0996094 10.0156 0.259609 10.1646 0.449609 10.1646C0.639609 10.1646 0.799609 10.0156 0.799609 9.82365V2.60565C0.799609 2.41365 0.639609 2.26465 0.449609 2.26465C0.259609 2.26465 0.0996094 2.41365 0.0996094 2.60565V9.82465V9.82365Z" fill="#35B5B4"/>
<path d="M0.45 10.2643C0.202 10.2643 0 10.0663 0 9.82331V2.60531C0 2.36231 0.202 2.16431 0.45 2.16431C0.698 2.16431 0.9 2.36231 0.9 2.60531V9.82431C0.9 10.0673 0.698 10.2653 0.45 10.2653V10.2643ZM0.45 2.36431C0.312 2.36431 0.2 2.47231 0.2 2.60531V9.82431C0.2 9.95731 0.312 10.0653 0.45 10.0653C0.588 10.0653 0.7 9.95731 0.7 9.82431V2.60531C0.7 2.47231 0.588 2.36431 0.45 2.36431Z" fill="#35B5B4"/>
<path d="M6.40039 5.52165C6.40039 5.71365 6.56039 5.86465 6.75039 5.86465C6.94039 5.86465 7.10039 5.71365 7.10039 5.52165V2.60765C7.10039 2.41565 6.94039 2.26465 6.75039 2.26465C6.56039 2.26465 6.40039 2.41565 6.40039 2.60765V5.52165Z" fill="#35B5B4"/>
<path d="M6.75078 5.96431C6.50278 5.96431 6.30078 5.76531 6.30078 5.52131V2.60731C6.30078 2.36331 6.50278 2.16431 6.75078 2.16431C6.99878 2.16431 7.20078 2.36331 7.20078 2.60731V5.52131C7.20078 5.76531 6.99878 5.96431 6.75078 5.96431ZM6.75078 2.36431C6.61278 2.36431 6.50078 2.47331 6.50078 2.60731V5.52131C6.50078 5.65531 6.61278 5.76431 6.75078 5.76431C6.88878 5.76431 7.00078 5.65531 7.00078 5.52131V2.60731C7.00078 2.47331 6.88878 2.36431 6.75078 2.36431Z" fill="#35B5B4"/>
</g>
<defs>
<clipPath id="clip0_2547_30775">
<rect width="12" height="12" fill="white" transform="translate(0 0.963867)"/>
</clipPath>
</defs>
</svg>
