<svg width="12" height="13" viewBox="0 0 12 13" fill="none" xmlns="http://www.w3.org/2000/svg">
<path d="M10.0517 1.3149C10.1082 1.3149 10.1618 1.29288 10.2021 1.25266C10.2423 1.21245 10.2643 1.15882 10.2643 1.10233C10.2643 1.04583 10.2423 0.992209 10.2021 0.951992C10.1618 0.911775 10.1082 0.889751 10.0517 0.889751H2.49187C2.37409 0.889751 2.2793 0.794954 2.2793 0.677175C2.2793 0.559397 2.37409 0.4646 2.49187 0.4646H11.7542C11.872 0.4646 11.9668 0.559397 11.9668 0.677175C11.9668 0.794954 11.872 0.889751 11.7542 0.889751H10.903C10.8465 0.889751 10.7929 0.911775 10.7526 0.951992C10.7124 0.992209 10.6904 1.04583 10.6904 1.10233C10.6904 1.15882 10.7124 1.21245 10.7526 1.25266C10.7929 1.29288 10.8465 1.3149 10.903 1.3149" fill="#35B5B4"/>
<path d="M1.05078 5.26865V12.1113C1.05078 12.3066 1.20878 12.4646 1.40412 12.4646H11.2314C11.4268 12.4646 11.5848 12.3066 11.5848 12.1113V5.26865C11.5848 5.22364 11.5484 5.18726 11.5034 5.18726H1.13217C1.08717 5.18726 1.05078 5.22364 1.05078 5.26865ZM3.63616 11.3156C3.63616 11.4209 3.54998 11.5071 3.44465 11.5071H2.10408C1.99875 11.5071 1.91258 11.4209 1.91258 11.3156V9.40047C1.91258 9.29418 1.99875 9.20896 2.10408 9.20896H3.44465C3.54998 9.20896 3.63616 9.29418 3.63616 9.40047V11.3156ZM3.63616 8.0599C3.63616 8.16523 3.54998 8.25141 3.44465 8.25141H2.10408C1.99875 8.25141 1.91258 8.16523 1.91258 8.0599V6.1448C1.91258 6.03852 1.99875 5.95329 2.10408 5.95329H3.44465C3.54998 5.95329 3.63616 6.03852 3.63616 6.1448V8.0599ZM7.17909 11.3156C7.17909 11.4209 7.09291 11.5071 6.98758 11.5071H5.64702C5.54168 11.5071 5.45551 11.4209 5.45551 11.3156V9.40047C5.45551 9.29418 5.54168 9.20896 5.64702 9.20896H6.98758C7.09291 9.20896 7.17909 9.29418 7.17909 9.40047V11.3156ZM7.17909 8.0599C7.17909 8.16523 7.09291 8.25141 6.98758 8.25141H5.64702C5.54168 8.25141 5.45551 8.16523 5.45551 8.0599V6.1448C5.45551 6.03852 5.54168 5.95329 5.64702 5.95329H6.98758C7.09291 5.95329 7.17909 6.03852 7.17909 6.1448V8.0599ZM10.722 11.3156C10.722 11.4209 10.6358 11.5071 10.5305 11.5071H9.18995C9.08461 11.5071 8.99844 11.4209 8.99844 11.3156V9.40047C8.99844 9.29418 9.08461 9.20896 9.18995 9.20896H10.5305C10.6358 9.20896 10.722 9.29418 10.722 9.40047V11.3156ZM10.722 8.0599C10.722 8.16523 10.6358 8.25141 10.5305 8.25141H9.18995C9.08461 8.25141 8.99844 8.16523 8.99844 8.0599V6.1448C8.99844 6.03852 9.08461 5.95329 9.18995 5.95329H10.5305C10.6358 5.95329 10.722 6.03852 10.722 6.1448V8.0599Z" fill="#35B5B4"/>
<path d="M3.17303 6.33643H2.37827C2.33332 6.33643 2.29688 6.37287 2.29688 6.41782V7.78711C2.29688 7.83206 2.33332 7.8685 2.37827 7.8685H3.17303C3.21798 7.8685 3.25442 7.83206 3.25442 7.78711V6.41782C3.25442 6.37287 3.21798 6.33643 3.17303 6.33643Z" fill="#35B5B4"/>
<path d="M3.17303 9.59204H2.37827C2.33332 9.59204 2.29688 9.62848 2.29688 9.67343V11.0427C2.29688 11.0877 2.33332 11.1241 2.37827 11.1241H3.17303C3.21798 11.1241 3.25442 11.0877 3.25442 11.0427V9.67343C3.25442 9.62848 3.21798 9.59204 3.17303 9.59204Z" fill="#35B5B4"/>
<path d="M6.716 6.33643H5.92124C5.87628 6.33643 5.83984 6.37287 5.83984 6.41782V7.78711C5.83984 7.83206 5.87628 7.8685 5.92124 7.8685H6.716C6.76095 7.8685 6.79739 7.83206 6.79739 7.78711V6.41782C6.79739 6.37287 6.76095 6.33643 6.716 6.33643Z" fill="#35B5B4"/>
<path d="M6.716 9.59204H5.92124C5.87628 9.59204 5.83984 9.62848 5.83984 9.67343V11.0427C5.83984 11.0877 5.87628 11.1241 5.92124 11.1241H6.716C6.76095 11.1241 6.79739 11.0877 6.79739 11.0427V9.67343C6.79739 9.62848 6.76095 9.59204 6.716 9.59204Z" fill="#35B5B4"/>
<path d="M10.259 6.33643H9.4642C9.41925 6.33643 9.38281 6.37287 9.38281 6.41782V7.78711C9.38281 7.83206 9.41925 7.8685 9.4642 7.8685H10.259C10.3039 7.8685 10.3404 7.83206 10.3404 7.78711V6.41782C10.3404 6.37287 10.3039 6.33643 10.259 6.33643Z" fill="#35B5B4"/>
<path d="M10.259 9.59204H9.4642C9.41925 9.59204 9.38281 9.62848 9.38281 9.67343V11.0427C9.38281 11.0877 9.41925 11.1241 9.4642 11.1241H10.259C10.3039 11.1241 10.3404 11.0877 10.3404 11.0427V9.67343C10.3404 9.62848 10.3039 9.59204 10.259 9.59204Z" fill="#35B5B4"/>
<path d="M5.07322 1.45089V4.7621H11.5032C11.5482 4.7621 11.5846 4.72571 11.5846 4.68071V1.6673C11.5846 1.47196 11.4266 1.31396 11.2312 1.31396H5.20824C5.13355 1.31396 5.07227 1.37429 5.07227 1.44994L5.07322 1.45089ZM8.13738 4.18757C8.13738 4.2929 8.0512 4.37908 7.94587 4.37908H5.64775C5.54242 4.37908 5.45624 4.2929 5.45624 4.18757V1.88945C5.45624 1.78316 5.54242 1.69794 5.64775 1.69794H7.94587C8.0512 1.69794 8.13738 1.78316 8.13738 1.88945V4.18757ZM11.2015 4.18757C11.2015 4.2929 11.1154 4.37908 11.01 4.37908H8.71191C8.60658 4.37908 8.5204 4.2929 8.5204 4.18757V1.88945C8.5204 1.78316 8.60658 1.69794 8.71191 1.69794H11.01C11.1154 1.69794 11.2015 1.78316 11.2015 1.88945V4.18757Z" fill="#35B5B4"/>
<path d="M7.61897 2.08105H5.97582C5.90072 2.08105 5.83984 2.14193 5.83984 2.21703V3.86018C5.83984 3.93528 5.90072 3.99615 5.97582 3.99615H7.61897C7.69406 3.99615 7.75494 3.93528 7.75494 3.86018V2.21703C7.75494 2.14193 7.69406 2.08105 7.61897 2.08105Z" fill="#35B5B4"/>
<path d="M10.6834 2.08105H9.04027C8.96517 2.08105 8.9043 2.14193 8.9043 2.21703V3.86018C8.9043 3.93528 8.96517 3.99615 9.04027 3.99615H10.6834C10.7585 3.99615 10.8194 3.93528 10.8194 3.86018V2.21703C10.8194 2.14193 10.7585 2.08105 10.6834 2.08105Z" fill="#35B5B4"/>
<path d="M5.07312 2.4314H0.391662C0.230794 2.4314 0.0996094 2.56162 0.0996094 2.72345V4.47193C0.0996094 4.6328 0.230794 4.76303 0.391662 4.76303H5.07312V2.43235V2.4314ZM1.2659 4.17892H0.682756V3.01359H1.2659V4.17892ZM2.43124 4.17892H1.84809V3.01359H2.43124V4.17892ZM3.59658 4.17892H3.01343V3.01359H3.59658V4.17892ZM4.76191 4.17892H4.17877V3.01359H4.76191V4.17892Z" fill="#35B5B4"/>
</svg>
