<svg width="19" height="19" viewBox="0 0 19 19" fill="none" xmlns="http://www.w3.org/2000/svg">
<path d="M14.2285 12.595C14.0524 12.4182 13.8431 12.278 13.6127 12.1823C13.3822 12.0866 13.1352 12.0374 12.8856 12.0374C12.6361 12.0374 12.3891 12.0866 12.1586 12.1823C11.9282 12.278 11.7189 12.4182 11.5428 12.595L10.6265 13.5113C9.59475 12.8565 8.63888 12.0893 7.7764 11.2237C6.91079 10.3612 6.14356 9.40532 5.48878 8.37362L6.40509 7.45731C6.58183 7.28118 6.72206 7.07189 6.81775 6.84145C6.91344 6.61101 6.96269 6.36395 6.96269 6.11443C6.96269 5.86492 6.91344 5.61785 6.81775 5.38741C6.72206 5.15697 6.58183 4.94769 6.40509 4.77156L4.6167 2.98949C4.44306 2.81216 4.23554 2.67155 4.00648 2.57602C3.77742 2.48049 3.53149 2.43198 3.2833 2.43338C3.03336 2.43277 2.78576 2.48158 2.55476 2.57702C2.32375 2.67246 2.1139 2.81264 1.93727 2.98949L1.07783 3.84261C0.66819 4.28305 0.362458 4.80969 0.183109 5.38383C0.0037605 5.95796 -0.0446452 6.56499 0.0414503 7.16029C0.243671 9.53007 1.79824 12.3801 4.1933 14.7815C6.58835 17.1829 9.47 18.7311 11.8398 18.9586C12.0166 18.9681 12.1938 18.9681 12.3706 18.9586C12.8807 18.98 13.39 18.8994 13.8685 18.7214C14.3471 18.5435 14.7853 18.2718 15.1575 17.9222L16.0106 17.0628C16.1874 16.8862 16.3276 16.6763 16.423 16.4453C16.5185 16.2143 16.5673 15.9667 16.5667 15.7168C16.5681 15.4686 16.5196 15.2227 16.4241 14.9936C16.3285 14.7645 16.1879 14.557 16.0106 14.3834L14.2285 12.595Z" fill="#35B5B4"/>
<path d="M16.2192 2.77424C15.3409 1.89266 14.2969 1.19365 13.1472 0.717513C11.9975 0.241373 10.765 -0.00247824 9.52061 1.89876e-05C9.35301 1.89876e-05 9.19227 0.0665982 9.07376 0.18511C8.95525 0.303622 8.88867 0.464358 8.88867 0.631959C8.88867 0.79956 8.95525 0.960297 9.07376 1.07881C9.19227 1.19732 9.35301 1.2639 9.52061 1.2639C10.6053 1.26386 11.6793 1.47864 12.6806 1.89583C13.6819 2.31302 14.5906 2.92438 15.3544 3.69461C16.1181 4.46484 16.7218 5.3787 17.1306 6.38346C17.5393 7.38821 17.745 8.46396 17.7358 9.54864C17.7358 9.71624 17.8024 9.87698 17.9209 9.99549C18.0394 10.114 18.2002 10.1806 18.3678 10.1806C18.5354 10.1806 18.6961 10.114 18.8146 9.99549C18.9331 9.87698 18.9997 9.71624 18.9997 9.54864C19.0118 8.29104 18.772 7.04374 18.2945 5.88026C17.8169 4.71679 17.1113 3.6607 16.2192 2.77424Z" fill="#35B5B4"/>
<path d="M12.6234 6.38919C12.982 6.74566 13.2658 7.17027 13.4579 7.63802C13.6499 8.10577 13.7465 8.60722 13.7419 9.11286C13.7419 9.28046 13.8085 9.4412 13.927 9.55971C14.0455 9.67822 14.2063 9.7448 14.3739 9.7448C14.5415 9.7448 14.7022 9.67822 14.8207 9.55971C14.9392 9.4412 15.0058 9.28046 15.0058 9.11286C15.0142 8.44366 14.8896 7.77946 14.6393 7.15878C14.389 6.5381 14.0179 5.9733 13.5476 5.49714C13.0773 5.02098 12.5172 4.64293 11.8997 4.38492C11.2822 4.12692 10.6196 3.99409 9.9503 3.99414C9.7827 3.99414 9.62196 4.06072 9.50345 4.17923C9.38494 4.29774 9.31836 4.45848 9.31836 4.62608C9.31836 4.79368 9.38494 4.95442 9.50345 5.07293C9.62196 5.19144 9.7827 5.25802 9.9503 5.25802C10.4483 5.26177 10.9407 5.3636 11.3994 5.55769C11.858 5.75178 12.274 6.03433 12.6234 6.38919Z" fill="#35B5B4"/>
</svg>
