<svg width="19" height="19" viewBox="0 0 19 19" fill="none" xmlns="http://www.w3.org/2000/svg">
<g clip-path="url(#clip0_2547_30490)">
<path d="M15.2398 16.4472H3.20912C2.22184 16.4472 1.41992 15.6453 1.41992 14.658V5.22816C1.41992 4.24088 2.22184 3.43896 3.20912 3.43896H5.4861C5.75535 3.43896 5.97388 3.65749 5.97388 3.92675C5.97388 4.19601 5.75535 4.41453 5.4861 4.41453H3.20912C2.76035 4.41453 2.39549 4.7794 2.39549 5.22816V14.658C2.39549 15.1068 2.76035 15.4716 3.20912 15.4716H15.2418C15.6906 15.4716 16.0554 15.1068 16.0554 14.658V9.13044C16.0554 8.86118 16.2739 8.64265 16.5432 8.64265C16.8125 8.64265 17.031 8.86118 17.031 9.13044V14.658C17.031 15.6453 16.2291 16.4472 15.2418 16.4472H15.2398Z" fill="white"/>
<path d="M5.81005 11.2356C5.77493 11.2356 5.73786 11.2317 5.70274 11.222C5.48226 11.1713 5.32227 10.982 5.32227 10.7557V9.7801C5.32227 6.28365 8.16703 3.43889 11.6635 3.43889H11.8254V1.32581C11.8254 1.12679 11.9464 0.947288 12.1317 0.873145C12.3151 0.799001 12.5278 0.843878 12.6644 0.988262L16.8925 5.37832C17.074 5.56758 17.074 5.86611 16.8925 6.05537L12.6644 10.4454C12.5259 10.5898 12.3132 10.6327 12.1317 10.5606C11.9464 10.4864 11.8254 10.3069 11.8254 10.1079V7.9948H11.0528C9.00602 7.9948 7.16804 9.13232 6.25296 10.9605C6.16906 11.1303 5.99346 11.2376 5.8081 11.2376L5.81005 11.2356Z" fill="white"/>
</g>
<defs>
<clipPath id="clip0_2547_30490">
<rect width="17.3394" height="17.3394" fill="white" transform="translate(0.689453 0.838135)"/>
</clipPath>
</defs>
</svg>
