<svg width="17" height="17" viewBox="0 0 17 17" fill="none" xmlns="http://www.w3.org/2000/svg">
<path fill-rule="evenodd" clip-rule="evenodd" d="M10.3114 9.43322C10.0084 9.56147 9.81489 10.0528 9.61854 10.3038C9.51787 10.4324 9.39781 10.4525 9.24305 10.388C8.10594 9.91871 7.23426 9.13266 6.60677 8.04865C6.50047 7.88055 6.51954 7.74776 6.64773 7.59166C6.83719 7.36041 7.07543 7.09774 7.12671 6.78617C7.24051 6.09696 6.37072 3.95905 5.22203 4.92777C1.91668 7.71797 10.736 15.1182 12.3277 11.1158C12.7779 9.98122 10.8135 9.22011 10.3114 9.43322ZM8.40045 15.3067C7.23145 15.3067 6.0812 14.9848 5.07415 14.3753C4.91251 14.2771 4.7171 14.2512 4.53639 14.3021L2.34814 14.9242L3.11039 13.1847C3.21419 12.9479 3.18761 12.6723 3.04098 12.4618C2.22558 11.291 1.79443 9.90867 1.79443 8.46386C1.79443 4.69037 4.75775 1.62066 8.40045 1.62066C12.0432 1.62066 15.0062 4.69037 15.0062 8.46386C15.0062 12.237 12.0428 15.3067 8.40045 15.3067ZM8.40045 0.172607C3.98706 0.172607 0.396568 3.89201 0.396568 8.46386C0.396568 10.0722 0.837407 11.6168 1.675 12.9573L0.459098 15.7313C0.346856 15.9875 0.387814 16.2874 0.563524 16.5009C0.69859 16.6644 0.893997 16.7551 1.09566 16.7551C1.5465 16.7551 4.00488 15.9548 4.6305 15.777C5.787 16.4179 7.08419 16.7551 8.40045 16.7551C12.8135 16.7551 16.4043 13.0354 16.4043 8.46386C16.4043 3.89201 12.8135 0.172607 8.40045 0.172607Z" fill="white"/>
</svg>
