<svg width="19" height="19" viewBox="0 0 19 19" fill="none" xmlns="http://www.w3.org/2000/svg">
<path fill-rule="evenodd" clip-rule="evenodd" d="M11.7682 10.6104C11.4086 10.7573 11.1789 11.3203 10.9458 11.6079C10.8263 11.7552 10.6838 11.7782 10.5001 11.7044C9.15048 11.1667 8.11588 10.266 7.3711 9.02397C7.24492 8.83137 7.26756 8.67922 7.41971 8.50036C7.64459 8.2354 7.92736 7.93444 7.98822 7.57745C8.1233 6.78777 7.09092 4.33819 5.72753 5.44813C1.80435 8.64508 12.2721 17.1242 14.1613 12.5382C14.6957 11.2383 12.3641 10.3662 11.7682 10.6104ZM9.50005 17.3401C8.11254 17.3401 6.74729 16.9713 5.552 16.2729C5.36015 16.1604 5.12822 16.1307 4.91373 16.189L2.31645 16.9019L3.22118 14.9087C3.34438 14.6375 3.31284 14.3217 3.13879 14.0805C2.17099 12.739 1.65925 11.1551 1.65925 9.49971C1.65925 5.17612 5.17646 1.65891 9.50005 1.65891C13.8236 1.65891 17.3405 5.17612 17.3405 9.49971C17.3405 13.8229 13.8233 17.3401 9.50005 17.3401ZM9.50005 -0.000244141C4.26172 -0.000244141 9.93163e-05 4.26137 9.93163e-05 9.49971C9.93163e-05 11.3425 0.523339 13.1123 1.51749 14.6482L0.0743177 17.8266C-0.0589043 18.1202 -0.0102912 18.4638 0.198262 18.7083C0.358574 18.8958 0.590506 18.9997 0.829861 18.9997C1.36497 18.9997 4.28287 18.0827 5.02542 17.879C6.39809 18.6133 7.93775 18.9997 9.50005 18.9997C14.738 18.9997 19 14.7377 19 9.49971C19 4.26137 14.738 -0.000244141 9.50005 -0.000244141Z" fill="#35B5B4"/>
</svg>
