<svg width="25" height="14" viewBox="0 0 25 14" fill="none" xmlns="http://www.w3.org/2000/svg">
<circle cx="19.5" cy="4.00073" r="2.5" fill="white"/>
<path d="M3.99001 6.50495C7.03411 6.51805 16.0519 6.55245 16 6.50055V2.53395C15.9989 2.25552 15.8825 1.98999 15.6785 1.80051C15.4745 1.61103 15.2011 1.51453 14.9233 1.53395C11.0598 1.93389 7.26684 2.84748 3.64491 4.25055C3.25604 4.39746 2.99907 4.77015 3.00001 5.18585V5.50495C2.99868 5.76884 3.10224 6.02245 3.2879 6.20999C3.47356 6.39752 3.72612 6.50363 3.99001 6.50495Z" fill="white"/>
<path d="M24.5 0.500244C24.2239 0.500244 24 0.724102 24 1.00024V7.50024H1V6.00024C1 5.7241 0.776142 5.50024 0.5 5.50024C0.223858 5.50024 0 5.7241 0 6.00024V10.5002H25V1.00024C25 0.724102 24.7761 0.500244 24.5 0.500244Z" fill="white"/>
<path d="M0 12.4998V12.9998C0 13.2759 0.223858 13.4998 0.5 13.4998C0.776142 13.4998 1 13.2759 1 12.9998V12.4998H24V12.9998C24 13.2759 24.2239 13.4998 24.5 13.4998C24.7761 13.4998 25 13.2759 25 12.9998V11.4998H0V12.4998Z" fill="white"/>
</svg>
