<svg width="23" height="28" viewBox="0 0 23 28" fill="none" xmlns="http://www.w3.org/2000/svg">
<path d="M22.0117 8.97805V24.9922C22.0117 26.6536 20.6653 28 19.0039 28H3.69141C2.03 28 0.683594 26.6536 0.683594 24.9922V3.00781C0.683594 1.34641 2.03 0 3.69141 0H12.7061C13.1343 0 13.481 0.347266 13.481 0.774922V6.28906C13.481 6.71781 13.6227 7.1143 13.8616 7.43367C13.6221 7.1143 13.4805 6.71781 13.4805 6.28906V1.64062H3.69141C2.93617 1.64062 2.32422 2.25258 2.32422 3.00781V24.9922C2.32422 25.7474 2.93617 26.3594 3.69141 26.3594H19.0039C19.7591 26.3594 20.3711 25.7474 20.3711 24.9922V8.20312H21.2368C21.665 8.20312 22.0117 8.55039 22.0117 8.97805Z" fill="#002E50"/>
<path d="M20.7736 6.5621H15.3945C15.2436 6.5621 15.1211 6.4396 15.1211 6.28867V1.11249C15.1211 0.764681 15.5378 0.578744 15.7916 0.817181C15.7937 0.819369 15.7954 0.821009 15.7976 0.823197L21.0705 5.81179C21.0705 5.81179 21.0749 5.81617 21.0777 5.81835C21.3593 6.08632 21.1624 6.56265 20.7736 6.56265V6.5621Z" fill="#002E50"/>
<path d="M15.3945 8.20312C14.3391 8.20312 13.4805 7.34453 13.4805 6.28906V1.64062H3.69141C2.93727 1.64062 2.32422 2.25422 2.32422 3.00781V24.9922C2.32422 25.7463 2.93727 26.3594 3.69141 26.3594H19.0039C19.758 26.3594 20.3711 25.7463 20.3711 24.9922V8.20312H15.3945ZM9.14484 21.3281H5.16797C4.71516 21.3281 4.34766 20.9606 4.34766 20.5078C4.34766 20.055 4.71516 19.6875 5.16797 19.6875H9.14484C9.59766 19.6875 9.96516 20.055 9.96516 20.5078C9.96516 20.9606 9.59766 21.3281 9.14484 21.3281ZM17.1992 16.9531H5.16797C4.71516 16.9531 4.34766 16.5856 4.34766 16.1328C4.34766 15.68 4.71516 15.3125 5.16797 15.3125H17.1992C17.652 15.3125 18.0195 15.68 18.0195 16.1328C18.0195 16.5856 17.652 16.9531 17.1992 16.9531ZM17.1992 12.5781H5.16797C4.71516 12.5781 4.34766 12.2106 4.34766 11.7578C4.34766 11.305 4.71516 10.9375 5.16797 10.9375H17.1992C17.652 10.9375 18.0195 11.305 18.0195 11.7578C18.0195 12.2106 17.652 12.5781 17.1992 12.5781Z" fill="#002E50"/>
</svg>
