<svg width="28" height="28" viewBox="0 0 28 28" fill="none" xmlns="http://www.w3.org/2000/svg">
<path d="M24.073 1.61484H25.957V3.49883C25.957 3.94506 26.3182 4.30625 26.7645 4.30625C27.2107 4.30625 27.5719 3.94506 27.5719 3.49883V0.807422C27.5719 0.36151 27.2104 0 26.7645 0H24.073C23.6271 0 23.2656 0.36151 23.2656 0.807422C23.2656 1.25333 23.6271 1.61484 24.073 1.61484Z" fill="#002E50"/>
<path d="M25.957 10.3523V17.2068C25.957 17.652 26.3193 18.0142 26.7645 18.0142C27.2096 18.0142 27.5719 17.652 27.5719 17.2068V10.3523C27.5719 9.90719 27.2096 9.54492 26.7645 9.54492C26.3193 9.54492 25.957 9.90719 25.957 10.3523Z" fill="#002E50"/>
<path d="M25.957 24.0613V25.9453H24.073C24.0452 25.9453 24.0177 25.9467 23.9905 25.9495C23.9766 25.9509 23.9632 25.9536 23.9496 25.9557C23.9365 25.9577 23.9232 25.959 23.9104 25.9617C23.8954 25.9647 23.881 25.9691 23.8663 25.973C23.8553 25.9759 23.8439 25.9781 23.833 25.9815C23.8209 25.9853 23.8092 25.9903 23.7973 25.9946C23.7845 25.9993 23.7713 26.0034 23.7589 26.0087C23.7519 26.0116 23.7454 26.0153 23.7386 26.0185C23.7216 26.0262 23.7045 26.0339 23.6882 26.0427C23.6866 26.0436 23.6851 26.0447 23.6834 26.0456C23.4573 26.1705 23.2972 26.4005 23.2698 26.6701C23.267 26.6973 23.2656 26.7249 23.2656 26.7527C23.2656 27.1986 23.6271 27.5602 24.073 27.5602H26.7645C27.2104 27.5602 27.5719 27.1986 27.5719 26.7527V24.0613C27.5719 23.6154 27.2104 23.2539 26.7645 23.2539C26.3185 23.2539 25.957 23.6154 25.957 24.0613Z" fill="#002E50"/>
<path d="M17.219 25.9447H13.9445V14.4342C13.9445 13.9883 13.583 13.6268 13.1371 13.6268H1.62656V10.3523C1.62656 9.90719 1.2643 9.54492 0.819141 9.54492C0.373982 9.54492 0.0117188 9.90719 0.0117188 10.3523V26.7522C0.0117188 27.1981 0.373228 27.5596 0.819141 27.5596H17.219C17.6641 27.5596 18.0264 27.1973 18.0264 26.7522C18.0264 26.307 17.6641 25.9447 17.219 25.9447Z" fill="#002E50"/>
<path d="M1.62656 3.49883V1.61484H3.51055C3.95646 1.61484 4.31797 1.25333 4.31797 0.807422C4.31797 0.36151 3.95646 0 3.51055 0H0.819141C0.373228 0 0.0117188 0.36151 0.0117188 0.807422V3.49883C0.0117188 3.94474 0.373228 4.30625 0.819141 4.30625C1.26505 4.30625 1.62656 3.94474 1.62656 3.49883Z" fill="#002E50"/>
<path d="M10.3641 1.61484H17.2185C17.6637 1.61484 18.026 1.25258 18.026 0.807422C18.026 0.362263 17.6637 0 17.2185 0H10.3641C9.9189 0 9.55664 0.362263 9.55664 0.807422C9.55664 1.25258 9.9189 1.61484 10.3641 1.61484Z" fill="#002E50"/>
</svg>
