<svg width="33" height="30" viewBox="0 0 33 30" fill="none" xmlns="http://www.w3.org/2000/svg">
<path d="M8.51068 23.8325C6.33051 23.8325 4.39123 22.4366 3.68704 20.3584L3.63941 20.2019C3.47334 19.6515 3.40376 19.1887 3.40376 18.7256V9.44043L0.0999817 20.4687C-0.324929 22.0908 0.643339 23.7725 2.26793 24.2206L23.3262 29.8601C23.589 29.9282 23.8519 29.9608 24.1107 29.9608C25.467 29.9608 26.7063 29.0606 27.0537 27.734L28.2805 23.8325H8.51068Z" fill="#002E50"/>
<path d="M12.255 9.5325C13.7572 9.5325 14.9785 8.31088 14.9785 6.80873C14.9785 5.30658 13.7572 4.08496 12.255 4.08496C10.7529 4.08496 9.53125 5.30658 9.53125 6.80873C9.53125 8.31088 10.7529 9.5325 12.255 9.5325Z" fill="#002E50"/>
<path d="M29.2794 0H8.85179C6.97535 0 5.44727 1.52808 5.44727 3.40477V18.3849C5.44727 20.2616 6.97535 21.7897 8.85179 21.7897H29.2794C31.1561 21.7897 32.6842 20.2616 32.6842 18.3849V3.40477C32.6842 1.52808 31.1561 0 29.2794 0ZM8.85179 2.72377H29.2794C29.6555 2.72377 29.9604 3.02874 29.9604 3.40477V13.0725L25.6585 8.05261C25.2021 7.51748 24.5416 7.23147 23.8321 7.21526C23.1267 7.21925 22.4649 7.53245 22.0128 8.07456L16.9548 14.1455L15.307 12.5017C14.3756 11.5703 12.8598 11.5703 11.9297 12.5017L8.17104 16.2591V3.40477C8.17104 3.02874 8.476 2.72377 8.85179 2.72377Z" fill="#002E50"/>
</svg>
