<svg width="27" height="25" viewBox="0 0 27 25" fill="none" xmlns="http://www.w3.org/2000/svg">
<path d="M20.6943 0.909668H12.7114C12.2061 0.909668 11.7209 1.11081 11.3634 1.4683L0.972456 11.8573C0.227931 12.6019 0.227931 13.8087 0.972456 14.5542L8.95537 22.5371C9.69989 23.2816 10.9068 23.2816 11.6513 22.5371L22.0422 12.1481C22.3997 11.7896 22.6009 11.3044 22.6009 10.7982V2.81626C22.6009 1.76287 21.7477 0.909668 20.6943 0.909668ZM17.3577 7.58275C16.5684 7.58275 15.9278 6.94213 15.9278 6.1528C15.9278 5.36347 16.5684 4.72286 17.3577 4.72286C18.1471 4.72286 18.7877 5.36347 18.7877 6.1528C18.7877 6.94213 18.1471 7.58275 17.3577 7.58275Z" fill="#35B5B4"/>
<path d="M24.5087 2.81738L24.5078 11.6916C24.5078 12.1311 24.3333 12.5534 24.0216 12.8642L13.4629 23.4229L13.625 23.585C14.3695 24.3295 15.5763 24.3295 16.3209 23.585L25.8558 14.052C26.2142 13.6945 26.4153 13.2093 26.4153 12.704V4.72398C26.4153 3.67058 25.5621 2.81738 24.5087 2.81738Z" fill="#35B5B4"/>
</svg>
