<svg width="27" height="27" viewBox="0 0 27 27" fill="none" xmlns="http://www.w3.org/2000/svg">
<path d="M18.3915 4.63123C18.0707 3.01512 16.826 1.65045 15.256 1.0816C13.9954 0.621968 12.6347 0.681129 11.4197 1.24998C11.3514 1.28183 11.2923 1.31824 11.224 1.3501C11.2149 1.3501 11.2058 1.3501 11.1967 1.3592C11.1603 1.3774 11.1239 1.40471 11.0875 1.42291C11.0192 1.45932 10.951 1.50027 10.8872 1.54123C10.819 1.58219 10.7553 1.6277 10.6916 1.66865C10.6233 1.71871 10.5505 1.76422 10.4822 1.81883C10.4276 1.85979 10.3776 1.90074 10.3275 1.94625C10.2547 2.00541 10.1864 2.06457 10.1182 2.12828C10.0772 2.16924 10.0362 2.2102 9.99073 2.25116C9.92247 2.31942 9.84966 2.39223 9.78595 2.46504C9.75864 2.49235 9.73589 2.5242 9.71313 2.55151C6.32733 1.6368 2.74585 3.44802 1.52169 6.80196C0.551796 9.46703 1.35217 12.3443 3.3147 14.1555C3.48308 14.3108 3.54224 14.552 3.46374 14.7676L2.8181 16.5435C2.7925 16.6146 2.79591 16.6931 2.82777 16.7614L3.20321 17.5618C3.26976 17.704 3.2089 17.8735 3.06611 17.9401L2.41592 18.245C2.27371 18.3115 2.21227 18.481 2.27883 18.6232L2.58373 19.2734C2.65029 19.4157 2.58942 19.5852 2.44664 19.6517L1.79644 19.9566C1.65423 20.0232 1.59279 20.1927 1.65935 20.3349L1.96425 20.9851C2.03081 21.1273 1.96994 21.2968 1.82716 21.3634L1.02622 21.7388C0.957955 21.7707 0.905052 21.8287 0.879454 21.8993L0.46533 23.0415C0.397068 23.2292 0.397068 23.4346 0.464762 23.6217L1.21906 25.7134C1.39995 26.2146 1.99042 26.4296 2.45119 26.1617L4.37163 25.0439C4.54399 24.9437 4.67596 24.7856 4.74422 24.5984L7.75458 16.3302C7.83308 16.1146 8.03332 15.9678 8.26256 15.957C10.9327 15.8319 13.3942 14.147 14.3635 11.4773C15.6059 8.06424 13.9494 4.30983 10.6591 2.88542L10.65 2.88998C10.6819 2.85812 10.7092 2.83081 10.741 2.79896C10.7957 2.74435 10.8548 2.69884 10.914 2.64878C10.9549 2.61238 10.9959 2.58052 11.0414 2.54411C11.096 2.50316 11.1552 2.4622 11.2098 2.42124C11.2644 2.38484 11.3144 2.34843 11.3691 2.31657C11.4237 2.28472 11.4783 2.25286 11.5329 2.22101C11.6239 2.17095 11.7104 2.12089 11.8059 2.07538C12.798 1.6112 13.913 1.56569 14.946 1.93886C16.0018 2.32112 16.8164 3.11296 17.2669 4.09139L18.3909 4.63293L18.3915 4.63123ZM10.4686 6.19215C10.2092 6.90208 9.42643 7.26614 8.71651 7.00675C8.00658 6.74735 7.64252 5.96461 7.90191 5.25469C8.04754 4.85877 8.35699 4.57662 8.72106 4.44464C8.63914 4.74045 8.57088 5.0408 8.54358 5.3457C8.52082 5.596 8.70741 5.81899 8.9577 5.84174C9.20799 5.86449 9.43098 5.67791 9.45374 5.42762C9.48559 5.09541 9.5584 4.76775 9.66762 4.44919C10.3639 4.71314 10.7234 5.48678 10.4686 6.19215Z" fill="#35B5B4"/>
<path d="M26.4099 9.31637C26.3866 9.59397 26.2797 9.85792 26.1022 10.0729C25.9247 10.288 25.6864 10.4438 25.4179 10.5195L24.6038 10.7482L25.9281 15.4605C26.026 15.8104 25.981 16.1847 25.803 16.5021C25.6255 16.8189 25.3291 17.0522 24.9793 17.1506L23.0947 17.6808C22.7443 17.7786 22.37 17.7337 22.0531 17.5556C21.7363 17.3781 21.503 17.0818 21.404 16.7319L20.9052 14.956C20.8198 14.6129 20.6122 14.312 20.3215 14.1118C20.0303 13.911 19.6753 13.8234 19.3243 13.866C19.1343 13.8979 18.9534 13.9696 18.793 14.0765C18.6332 14.184 18.4972 14.324 18.3954 14.4872C18.2936 14.6493 18.2264 14.8314 18.1991 15.0208C18.1713 15.2108 18.1838 15.4042 18.2355 15.5885L18.7651 17.4737C18.863 17.8235 18.8181 18.1978 18.6406 18.5147C18.4625 18.8315 18.1661 19.0653 17.8169 19.1637L15.9317 19.6933C15.5819 19.7918 15.2076 19.7468 14.8907 19.5688C14.5739 19.3907 14.3401 19.0949 14.2416 18.7451L13.2507 15.2205C13.1916 15.01 13.253 14.7853 13.4071 14.6306C13.4077 14.63 13.4089 14.6289 13.4094 14.6283C14.8731 13.1646 15.6791 11.2186 15.6791 9.14913C15.6791 8.07912 15.4641 7.04268 15.0534 6.08815C14.9402 5.82477 14.9658 5.52214 15.1228 5.28265L15.6149 4.53291C15.7969 4.25645 16.0733 4.05451 16.393 3.96463C16.7122 3.87532 17.0535 3.90376 17.3533 4.0454L25.63 7.96592C25.882 8.08481 26.0919 8.27765 26.2313 8.51885C26.3707 8.76061 26.4327 9.03821 26.4099 9.31637Z" fill="#35B5B4"/>
</svg>
