<svg width="23" height="23" viewBox="0 0 23 23" fill="none" xmlns="http://www.w3.org/2000/svg">
<path d="M19.6211 1.81543H21.125V3.31934C21.125 3.67555 21.4133 3.96387 21.7695 3.96387C22.1257 3.96387 22.4141 3.67555 22.4141 3.31934V1.1709C22.4141 0.814945 22.1255 0.526367 21.7695 0.526367H19.6211C19.2651 0.526367 18.9766 0.814945 18.9766 1.1709C18.9766 1.52685 19.2651 1.81543 19.6211 1.81543Z" fill="#35B5B4"/>
<path d="M21.125 8.78955V14.2612C21.125 14.6165 21.4142 14.9057 21.7695 14.9057C22.1249 14.9057 22.4141 14.6165 22.4141 14.2612V8.78955C22.4141 8.4342 22.1249 8.14502 21.7695 8.14502C21.4142 8.14502 21.125 8.4342 21.125 8.78955Z" fill="#35B5B4"/>
<path d="M21.125 19.7334V21.2373H19.6211C19.5988 21.2373 19.5769 21.2384 19.5552 21.2406C19.5441 21.2417 19.5334 21.2439 19.5225 21.2456C19.5121 21.2472 19.5015 21.2483 19.4912 21.2504C19.4793 21.2528 19.4678 21.2563 19.4561 21.2594C19.4472 21.2617 19.4382 21.2635 19.4295 21.2662C19.4198 21.2692 19.4105 21.2732 19.401 21.2767C19.3907 21.2804 19.3803 21.2837 19.3703 21.2879C19.3647 21.2902 19.3595 21.2932 19.3541 21.2957C19.3406 21.3019 19.3269 21.308 19.3139 21.315C19.3126 21.3158 19.3114 21.3166 19.3101 21.3174C19.1295 21.417 19.0017 21.6006 18.9799 21.8159C18.9777 21.8376 18.9766 21.8596 18.9766 21.8818C18.9766 22.2378 19.2651 22.5264 19.6211 22.5264H21.7695C22.1255 22.5264 22.4141 22.2378 22.4141 21.8818V19.7334C22.4141 19.3774 22.1255 19.0889 21.7695 19.0889C21.4136 19.0889 21.125 19.3774 21.125 19.7334Z" fill="#35B5B4"/>
<path d="M14.1499 21.2363H11.536V12.048C11.536 11.692 11.2474 11.4034 10.8915 11.4034H1.70312V8.78955C1.70312 8.4342 1.41395 8.14502 1.05859 8.14502C0.703242 8.14502 0.414062 8.4342 0.414062 8.78955V21.8808C0.414062 22.2368 0.702641 22.5254 1.05859 22.5254H14.1499C14.5052 22.5254 14.7944 22.2362 14.7944 21.8808C14.7944 21.5255 14.5052 21.2363 14.1499 21.2363Z" fill="#35B5B4"/>
<path d="M1.70312 3.31934V1.81543H3.20703C3.56298 1.81543 3.85156 1.52685 3.85156 1.1709C3.85156 0.814945 3.56298 0.526367 3.20703 0.526367H1.05859C0.702641 0.526367 0.414062 0.814945 0.414062 1.1709V3.31934C0.414062 3.67529 0.702641 3.96387 1.05859 3.96387C1.41455 3.96387 1.70312 3.67529 1.70312 3.31934Z" fill="#35B5B4"/>
<path d="M8.67773 1.81543H14.1494C14.5047 1.81543 14.7939 1.52625 14.7939 1.1709C14.7939 0.815547 14.5047 0.526367 14.1494 0.526367H8.67773C8.32238 0.526367 8.0332 0.815547 8.0332 1.1709C8.0332 1.52625 8.32238 1.81543 8.67773 1.81543Z" fill="#35B5B4"/>
<path d="M12.0862 9.47148C11.9663 9.59145 11.9062 9.74869 11.9062 9.90589C11.9062 10.0631 11.9662 10.2204 12.0862 10.3403C12.3262 10.5802 12.7151 10.5802 12.9551 10.3403L17.2085 6.08683V7.49888C17.2085 7.83818 17.4836 8.11326 17.8229 8.11326C18.1622 8.11326 18.4373 7.83818 18.4373 7.49888V4.60364C18.4373 4.26434 18.1622 3.98926 17.8229 3.98926H14.9276C14.5883 3.98926 14.3133 4.26434 14.3133 4.60364C14.3133 4.94294 14.5883 5.21802 14.9276 5.21802H16.3397L12.0862 9.47148Z" fill="#35B5B4"/>
</svg>
