<svg width="29" height="15" viewBox="0 0 29 15" fill="none" xmlns="http://www.w3.org/2000/svg">
<circle cx="22.2531" cy="4.16768" r="2.8" fill="#35B5B4"/>
<path d="M4.88225 6.97164C8.29164 6.98631 18.3916 7.02484 18.3335 6.96671V2.52412C18.3322 2.21227 18.2018 1.91488 17.9733 1.70267C17.7448 1.49045 17.4386 1.38236 17.1275 1.40412C12.8004 1.85205 8.5523 2.87527 4.49574 4.44671C4.06021 4.61125 3.77239 5.02867 3.77345 5.49424V5.85164C3.77196 6.14719 3.88795 6.43124 4.09589 6.64128C4.30383 6.85132 4.58669 6.97015 4.88225 6.97164Z" fill="#35B5B4"/>
<path d="M27.8541 0.246582C27.5448 0.246582 27.2941 0.497303 27.2941 0.806582V8.08658H1.53406V6.40658C1.53406 6.0973 1.28334 5.84658 0.974063 5.84658C0.664783 5.84658 0.414063 6.0973 0.414062 6.40658V11.4466H28.4141V0.806582C28.4141 0.497303 28.1633 0.246582 27.8541 0.246582Z" fill="#35B5B4"/>
<path d="M0.414062 13.6854V14.2454C0.414063 14.5547 0.664783 14.8054 0.974063 14.8054C1.28334 14.8054 1.53406 14.5547 1.53406 14.2454V13.6854H27.2941V14.2454C27.2941 14.5547 27.5448 14.8054 27.8541 14.8054C28.1633 14.8054 28.4141 14.5547 28.4141 14.2454V12.5654H0.414062V13.6854Z" fill="#35B5B4"/>
</svg>
