<svg width="30" height="30" viewBox="0 0 30 30" fill="none" xmlns="http://www.w3.org/2000/svg">
<path d="M26.5613 29.9993H3.43875C1.54125 29.9993 0 28.458 0 26.5605V8.4368C0 6.5393 1.54125 4.99805 3.43875 4.99805H7.815C8.3325 4.99805 8.7525 5.41805 8.7525 5.93555C8.7525 6.45305 8.3325 6.87305 7.815 6.87305H3.43875C2.57625 6.87305 1.875 7.5743 1.875 8.4368V26.5605C1.875 27.423 2.57625 28.1243 3.43875 28.1243H26.565C27.4275 28.1243 28.1287 27.423 28.1287 26.5605V15.9368C28.1287 15.4193 28.5487 14.9993 29.0662 14.9993C29.5838 14.9993 30.0037 15.4193 30.0037 15.9368V26.5605C30.0037 28.458 28.4625 29.9993 26.565 29.9993H26.5613Z" fill="#35B5B4"/>
<path d="M8.4375 19.983C8.37 19.983 8.29875 19.9755 8.23125 19.9568C7.8075 19.8593 7.5 19.4955 7.5 19.0605V17.1855C7.5 10.4655 12.9675 4.99803 19.6875 4.99803H19.9988V0.93678C19.9988 0.55428 20.2313 0.20928 20.5875 0.0667803C20.94 -0.0757197 21.3488 0.0105302 21.6112 0.28803L29.7375 8.72553C30.0863 9.08928 30.0863 9.66303 29.7375 10.0268L21.6112 18.4643C21.345 18.7418 20.9363 18.8243 20.5875 18.6855C20.2313 18.543 19.9988 18.198 19.9988 17.8155V13.7543H18.5138C14.58 13.7543 11.0475 15.9405 9.28875 19.4543C9.1275 19.7805 8.79 19.9868 8.43375 19.9868L8.4375 19.983Z" fill="#35B5B4"/>
</svg>
