<svg width="20" height="20" viewBox="0 0 20 20" fill="none" xmlns="http://www.w3.org/2000/svg">
<path d="M19.4324 8.60199L11.0917 1.34003C10.7892 1.07745 10.4022 0.932791 10.0016 0.932617C9.60108 0.932444 9.21391 1.07677 8.9112 1.33909L0.573261 8.59833C0.318046 8.81834 0.136224 9.11114 0.0521903 9.43744C-0.0318434 9.76375 -0.0140682 10.108 0.103131 10.4239C0.22033 10.7398 0.431346 11.0123 0.707866 11.2048C0.984386 11.3974 1.31318 11.5008 1.65013 11.5011H2.6716V17.4119C2.67213 17.8507 2.84667 18.2713 3.15693 18.5816C3.46719 18.8918 3.88785 19.0664 4.32662 19.0669H6.69095C7.12972 19.0664 7.55038 18.8918 7.86064 18.5816C8.17091 18.2713 8.34544 17.8507 8.34597 17.4119V15.0476C8.34623 14.8161 8.39493 14.5872 8.48893 14.3757C8.58294 14.1641 8.72017 13.9746 8.8918 13.8192C9.0638 13.6626 9.2671 13.5443 9.48826 13.4722C9.70941 13.4001 9.94337 13.3757 10.1746 13.4009C10.5967 13.466 10.9804 13.6833 11.2533 14.0118C11.5262 14.3403 11.6695 14.7574 11.656 15.1843V17.4119C11.6566 17.8507 11.8311 18.2713 12.1414 18.5816C12.4516 18.8919 12.8723 19.0664 13.3111 19.0669H15.6754C16.1142 19.0664 16.5348 18.8919 16.8451 18.5816C17.1553 18.2713 17.3299 17.8507 17.3304 17.4119V11.5011H18.3519C18.6884 11.5008 19.0168 11.3978 19.2931 11.2057C19.5694 11.0136 19.7804 10.7417 19.898 10.4264C20.0155 10.1111 20.0339 9.76742 19.9507 9.44137C19.8675 9.11531 19.6867 8.82245 19.4324 8.60199Z" fill="#35B5B4"/>
</svg>
